<svg xmlns="http://www.w3.org/2000/svg" width="24" height="24" viewBox="0 0 24 24">
  <g>
    <circle cx="12" cy="2" r="1.5" fill="currentColor"/>
    <path d="M12,1a1,1,0,1,1-1,1,1,1,0,0,1,1-1m0-1a2,2,0,1,0,2,2,2,2,0,0,0-2-2Z" fill="currentColor"/>
  </g>
  <g>
    <circle cx="12" cy="12" r="1.5" fill="currentColor"/>
    <path d="M12,11a1,1,0,1,1-1,1,1,1,0,0,1,1-1m0-1a2,2,0,1,0,2,2,2,2,0,0,0-2-2Z" fill="currentColor"/>
  </g>
  <g>
    <circle cx="12" cy="22" r="1.5" fill="currentColor"/>
    <path d="M12,21a1,1,0,1,1-1,1,1,1,0,0,1,1-1m0-1a2,2,0,1,0,2,2,2,2,0,0,0-2-2Z" fill="currentColor"/>
  </g>
</svg>
