<svg xmlns="http://www.w3.org/2000/svg" width="24" height="24" viewBox="0 0 24 24">
  <g>
    <path d="M22,21H3V2A1,1,0,0,0,2,1H2A1,1,0,0,0,1,2V22a1,1,0,0,0,1,1H22a1,1,0,0,0,0-2Z" fill="currentColor"/>
    <path d="M6,12a1,1,0,0,0,.51-.14l4.67-2.8,3.61.76a1,1,0,0,0,.91-.26l6-5.81a1,1,0,0,0-1.4-1.44L14.69,7.75,11.21,7a1,1,0,0,0-.72.12l-5,3A1,1,0,0,0,6,12Z" fill="currentColor"/>
    <path d="M6,19a1,1,0,0,0,1-1V15a1,1,0,0,0-2,0v3A1,1,0,0,0,6,19Z" fill="currentColor"/>
    <path d="M10,12v6a1,1,0,0,0,2,0V12a1,1,0,0,0-2,0Z" fill="currentColor"/>
    <path d="M15,12v6a1,1,0,0,0,2,0V12a1,1,0,0,0-2,0Z" fill="currentColor"/>
    <path d="M20,8.1V18a1,1,0,0,0,2,0V8.1a1,1,0,0,0-2,0Z" fill="currentColor"/>
  </g>
</svg>
