<svg xmlns="http://www.w3.org/2000/svg" width="24" height="24" viewBox="0 0 24 24">
  <path d="M23,4l-4.5-2.46a2,2,0,0,0-1.92,0L12,4,7.46,1.52a2,2,0,0,0-1.92,0L1,4A2,2,0,0,0,0,5.73v4.82A2,2,0,0,0,1,12.3L5.5,14.73v4.82a2,2,0,0,0,1,1.75L11,23.75A1.94,1.94,0,0,0,12,24a2,2,0,0,0,1-.24l4.5-2.46a2,2,0,0,0,1-1.75V14.73L23,12.3a2,2,0,0,0,1-1.75V5.73A2,2,0,0,0,23,4Zm-5.46-.7,3.41,1.86L17.5,7,14.09,5.14ZM12,16,8.59,14.14l1.16-.63L12,12.28l2.25,1.23,1.16.63Zm4.5-3.55-1.25-.68L13,10.55V6.82l3.5,1.91ZM11,10.55,8.75,11.77l-1.25.68V8.73L11,6.82ZM6.5,3.28,9.91,5.14,6.5,7,3.09,5.14ZM2,6.82,5.5,8.73v3.73L2,10.55Zm5.5,9L11,17.73v3.72l-3.5-1.9ZM13,21.45V17.73l3.5-1.91v3.73Zm5.5-9V8.73L22,6.82v3.73Z" fill="currentColor"/>
</svg>
