<svg xmlns="http://www.w3.org/2000/svg" width="24" height="24" viewBox="0 0 24 24">
  <path d="M15.47,9.11h0m-.88.88L16,11.41l-5.35,5.35-1.95.53.53-1.95L14.59,10M9.33,15h0M14.6,7.47a.76.76,0,0,0-.54.23L7.6,14.16a.86.86,0,0,0-.2.33L6,19.53a.38.38,0,0,0,.36.47h.1l5-1.39a.86.86,0,0,0,.33-.2l6.46-6.46a.76.76,0,0,0,0-1.07L15.13,7.69a.79.79,0,0,0-.53-.22Z" fill="currentColor"/>
  <path d="M20,0H8.83A2,2,0,0,0,7.41.59L2.59,5.41A2,2,0,0,0,2,6.83V22a2,2,0,0,0,2,2H20a2,2,0,0,0,2-2L22,6V2A2,2,0,0,0,20,0ZM8,2.83V5A1,1,0,0,1,7,6H4.83ZM20,5.1V6l0,16H4V8H7a3,3,0,0,0,3-3V2H20Z" fill="currentColor"/>
</svg>
