<?xml version="1.0" encoding="UTF-8"?>
<svg width="100px" height="100px" viewBox="0 0 100 100" version="1.1" xmlns="http://www.w3.org/2000/svg" xmlns:xlink="http://www.w3.org/1999/xlink">
    <!-- Generator: Sketch 48.2 (47327) - http://www.bohemiancoding.com/sketch -->
    <title>Icon - Time Color</title>
    <desc>Created with Sketch.</desc>
    <defs></defs>
    <g id="Version-4" stroke="none" stroke-width="1" fill="none" fill-rule="evenodd">
        <g id="Icon---Time-Color" fill-rule="nonzero">
            <g id="TIME" transform="translate(7.000000, 0.000000)">
                <path d="M43,100 C19.645,100 0.641,80.996 0.641,57.641 C0.641,34.282 19.645,15.282 43,15.282 C66.355,15.282 85.359,34.286 85.359,57.641 C85.359,80.996 66.355,100 43,100 Z M43,18.508 C21.422,18.508 3.867,36.063 3.867,57.641 C3.867,79.219 21.422,96.774 43,96.774 C64.578,96.774 82.133,79.219 82.133,57.641 C82.133,36.063 64.578,18.508 43,18.508 Z" id="Shape" fill="#000000"></path>
                <path d="M43,93.66 C23.137,93.66 6.977,77.5 6.977,57.637 C6.977,37.778 23.137,21.617 43,21.617 C62.863,21.617 79.023,37.777 79.023,57.637 C79.023,77.504 62.863,93.66 43,93.66 Z M43,24.844 C24.918,24.844 10.203,39.555 10.203,57.641 C10.203,75.723 24.918,90.438 43,90.438 C61.082,90.438 75.797,75.727 75.797,57.641 C75.797,39.555 61.082,24.844 43,24.844 Z" id="Shape" fill="#42A5F5"></path>
                <polygon id="Shape" fill="#000000" points="41.387 28.777 44.6136 28.777 44.6136 32.7379 41.387 32.7379"></polygon>
                <polygon id="Shape" fill="#000000" points="29.965 31.84 31.9455 35.2697 29.1525 36.883 27.172 33.4533"></polygon>
                <polygon id="Shape" fill="#000000" points="18.812 41.809 22.2417 43.7895 20.6284 46.5825 17.1987 44.602"></polygon>
                <polygon id="Shape" fill="#000000" points="14.137 56.027 18.0979 56.027 18.0979 59.2536 14.137 59.2536"></polygon>
                <polygon id="Shape" fill="#000000" points="20.625 68.695 22.2383 71.488 18.8086 73.4685 17.1953 70.6755"></polygon>
                <polygon id="Shape" fill="#000000" points="29.152 78.398 31.945 80.0113 29.9645 83.441 27.1715 81.8277"></polygon>
                <polygon id="Shape" fill="#000000" points="41.387 82.543 44.6136 82.543 44.6136 86.5039 41.387 86.5039"></polygon>
                <polygon id="Shape" fill="#000000" points="56.848 78.398 58.8324 81.8277 56.0394 83.441 54.055 80.0113"></polygon>
                <polygon id="Shape" fill="#000000" points="65.367 68.688 68.8006 70.6685 67.1873 73.4615 63.7537 71.481"></polygon>
                <polygon id="Shape" fill="#000000" points="67.898 56.027 71.8628 56.027 71.8628 59.2536 67.898 59.2536"></polygon>
                <polygon id="Shape" fill="#000000" points="67.195 41.809 68.8083 44.602 65.3747 46.5864 63.7614 43.7934"></polygon>
                <polygon id="Shape" fill="#000000" points="56.035 31.84 58.828 33.4533 56.8475 36.883 54.0545 35.2697"></polygon>
                <path d="M44.594,68.734 L41.4182,68.734 C39.7307,68.734 38.137,68.07775 36.9299,66.8824 C35.7307,65.6636 35.0744,64.0738 35.0744,62.3863 L38.301,62.3863 C38.301,63.22224 38.62522,64.0074 39.21116,64.6051 C39.79319,65.18322 40.58226,65.51135 41.41816,65.51135 L44.59396,65.51135 C45.41037,65.51135 46.22286,65.17541 46.82836,64.58557 C47.38305,64.03088 47.69555,63.24177 47.69555,62.39027 C47.69555,61.52699 47.38305,60.74187 46.81274,60.17547 C46.21899,59.59735 45.40654,59.2575 44.59394,59.2575 L41.41814,59.2575 C39.72674,59.2575 38.13294,58.59734 36.92594,57.402 C35.72674,56.195 35.07044,54.6012 35.07044,52.8981 C35.07044,51.2223 35.72278,49.6325 36.90634,48.4215 C38.12904,47.2106 39.72274,46.5543 41.41414,46.5543 L44.58994,46.5543 C46.23834,46.5543 47.87514,47.22617 49.07434,48.3941 C50.26964,49.605 50.91814,51.1988 50.91814,52.898 L47.69154,52.898 C47.69154,52.30034 47.53529,51.4253 46.80092,50.6792 C46.21889,50.11279 45.40642,49.77686 44.59002,49.77686 L41.41422,49.77686 C40.57828,49.77686 39.79312,50.10108 39.19542,50.69483 C38.6212,51.28077 38.29698,52.06983 38.29698,52.89793 C38.29698,53.74168 38.6212,54.53073 39.20323,55.11673 C39.79307,55.70267 40.58213,56.02689 41.41413,56.02689 L44.58993,56.02689 C46.23833,56.02689 47.87513,56.69877 49.07433,57.87459 C50.26573,59.06209 50.91413,60.65979 50.91413,62.38629 C50.91413,64.09719 50.26569,65.69489 49.08993,66.87459 C47.87903,68.06209 46.24613,68.73399 44.59383,68.73399 L44.594,68.734 Z" id="Shape" fill="#42A5F5"></path>
                <polygon id="Shape" fill="#42A5F5" points="41.391 43.305 44.6176 43.305 44.6176 48.1644 41.391 48.1644"></polygon>
                <polygon id="Shape" fill="#42A5F5" points="41.391 67.121 44.6176 67.121 44.6176 71.9765 41.391 71.9765"></polygon>
                <polygon id="Shape" fill="#000000" points="41.387 6.707 44.6136 6.707 44.6136 16.895 41.387 16.895"></polygon>
                <path d="M48.094,13.414 L37.906,13.414 C36.113,13.414 34.4294,12.71478 33.1638,11.4492 C31.8982,10.1836 31.199,8.5 31.199,6.707 C31.199,4.914 31.89822,3.2304 33.1638,1.9648 C34.4294,0.6992 36.113,0 37.906,0 L48.094,0 C49.8831,0 51.5667,0.69922 52.8362,1.9648 C54.1018,3.2304 54.801,4.9179 54.801,6.707 C54.801,8.4961 54.10178,10.1836 52.8362,11.4492 C51.5706,12.7148 49.8831,13.414 48.094,13.414 Z M37.906,3.226 C36.97631,3.226 36.1013,3.58928 35.4451,4.2455 C34.7889,4.90172 34.4256,5.7767 34.4256,6.7064 C34.4256,7.63609 34.78888,8.5111 35.4451,9.1673 C36.10132,9.8235 36.9763,10.1868 37.906,10.1868 L48.094,10.1868 C49.02369,10.1868 49.8987,9.82352 50.5549,9.1673 C51.2111,8.51108 51.5744,7.6361 51.5744,6.7064 C51.5744,5.77671 51.21112,4.9017 50.5549,4.2455 C49.89868,3.5893 49.0237,3.226 48.094,3.226 L37.906,3.226 Z" id="Shape" fill="#4BB3FD"></path>
                <path d="M78.957,29.727 L76.6758,27.4458 L79.0781,25.0435 C79.28904,24.83647 79.40232,24.55912 79.40232,24.26225 C79.40232,23.96928 79.28513,23.69194 79.0781,23.481 L77.1601,21.5591 C76.74604,21.14504 76.0195,21.14113 75.6015,21.5591 L73.1992,23.9614 L70.918,21.6802 L73.3203,19.2779 C74.13671,18.46149 75.2226,18.0123 76.3789,18.0084 C77.5351,18.0084 78.6211,18.45762 79.4414,19.274 L81.3633,21.1959 C82.18361,22.01621 82.6328,23.1021 82.6328,24.2584 C82.6328,25.4147 82.18358,26.5045 81.3633,27.3209 L78.957,29.727 Z" id="Shape" fill="#42A5F5"></path>
                <path d="M7.043,29.727 L4.6407,27.3247 C3.82429,26.50829 3.3751,25.4224 3.3712,24.2661 C3.375106,23.1059 3.82432,22.02 4.6407,21.1997 L6.5626,19.2778 C7.38291,18.46139 8.4688,18.0083 9.6251,18.0083 C10.7814,18.0083 11.8712,18.45752 12.6876,19.2778 L15.0899,21.6801 L12.8087,23.9613 L10.4064,21.559 C9.99234,21.14494 9.2658,21.14103 8.8439,21.559 L6.9259,23.477 C6.71887,23.68403 6.60168,23.96528 6.60168,24.26216 C6.60168,24.55122 6.71887,24.83247 6.9259,25.0395 L9.3282,27.4418 L7.043,29.727 Z" id="Shape" fill="#42A5F5"></path>
            </g>
        </g>
    </g>
</svg>