<svg xmlns="http://www.w3.org/2000/svg" width="74" height="98" viewBox="0 0 74 98">
    <g fill="none" fill-rule="evenodd" stroke="#008ED8" stroke-width="2">
        <path d="M13.973 70.095h45.241v-21.76H13.973zM14.26 55.588h44.668M14.26 62.841h44.668M25.284 48.62v21.19M36.594 48.62v21.19M47.905 48.62v21.19M1 31.272h28.263c1.11 0 2.009-.9 2.009-2.008V1"/>
        <path d="M22.89 96.14H3.01a2.009 2.009 0 0 1-2.01-2.009V32.098c0-.529.211-1.037.586-1.41L30.686 1.583A1.997 1.997 0 0 1 32.099 1H70.18c1.11 0 2.007.9 2.007 2.008v91.123a2.007 2.007 0 0 1-2.007 2.008H22.891z"/>
    </g>
</svg>
