<?xml version="1.0" encoding="UTF-8"?>
<svg width="15px" height="12px" viewBox="0 0 15 12" version="1.1" xmlns="http://www.w3.org/2000/svg" xmlns:xlink="http://www.w3.org/1999/xlink">
    <!-- Generator: Sketch 46.2 (44496) - http://www.bohemiancoding.com/sketch -->
    <title>Shape@3x</title>
    <desc>Created with Sketch.</desc>
    <defs></defs>
    <g id="√-Business-Web-|-Landingpage" stroke="none" stroke-width="1" fill="none" fill-rule="evenodd">
        <g id="Business-Landingpage-(1920)" transform="translate(-1150.000000, -3876.000000)" fill-rule="nonzero" fill="#4BB3FD">
            <g id="Mover-One" transform="translate(-92.000000, 3385.000000)">
                <g id="CTA" transform="translate(978.000000, 485.000000)">
                    <path d="M272.561644,6.74777448 C272.561644,6.92581602 272.630137,7.10385757 272.767123,7.2462908 L276.671233,11.305638 L264.684932,11.305638 C264.308219,11.305638 264,11.6261128 264,12.0178042 C264,12.4094955 264.308219,12.7299703 264.684932,12.7299703 L276.671233,12.7299703 L272.767123,16.7893175 C272.630137,16.9317507 272.561644,17.1097923 272.561644,17.2878338 C272.561644,17.4658754 272.630137,17.6439169 272.767123,17.7863501 C273.041096,18.0712166 273.452055,18.0712166 273.726027,17.7863501 L278.794521,12.5163205 C279.068493,12.231454 279.068493,11.8041543 278.794521,11.5192878 L273.726027,6.21364985 C273.452055,5.92878338 273.041096,5.92878338 272.767123,6.21364985 C272.630137,6.35608309 272.561644,6.53412463 272.561644,6.74777448 Z" id="Shape"></path>
                </g>
            </g>
        </g>
    </g>
</svg>