<svg xmlns="http://www.w3.org/2000/svg" width="28" height="28" viewBox="0 0 28 28">
    <g fill="none" fill-rule="evenodd" stroke="currentColor" stroke-linecap="round" stroke-linejoin="round" stroke-width="1.5" transform="translate(2 2)">
        <path d="M13.52 5.42a6.2 6.2 0 0 1 1.68-.2c.59 0 1.176.087 1.74.26"/>
        <circle cx="4.57" cy="3.08" r="2.33"/>
        <path d="M2.38 8.36h.65l1.52 1.47 1.52-1.47h.7a1 1 0 0 1 1 .91l.61 6.81h-1a.51.51 0 0 0-.5.45l-.7 6.39a1 1 0 0 1-1 .9h-1.2a1 1 0 0 1-1-.91l-.6-6.46a.5.5 0 0 0-.49-.45H.75l.63-6.73a1 1 0 0 1 1-.91zM13.45 17.35a6.79 6.79 0 0 0 1.75.25 6.27 6.27 0 0 0 1.75-.25M21.19 12.99a6.23 6.23 0 0 1-1.57 2.76M21.21 9.86a6.09 6.09 0 0 0-1.59-2.82M10.98 6.85a6 6 0 0 0-.76.83M10.98 6.85L9.82 4.92l2.56-1.51 1.14 2.01M16.94 5.43l1.12-2.02L20.8 5l-1.18 2.03M21.21 9.86h2.42v3.13H21.2M19.62 15.75l1.15 2.24-2.71 1.42-1.11-2.06"/>
        <path d="M10.38 18.34l2.01 1.07 1.06-2.06"/>
        <circle cx="15.23" cy="11.42" r="2.39"/>
    </g>
</svg>
