<svg xmlns="http://www.w3.org/2000/svg" width="22" height="14" viewBox="0 0 22 14">
    <g fill="none" fill-rule="evenodd">
        <path fill="#1A6BC6" d="M11.458 11.262a4.696 4.696 0 1 1 0-9.393 4.696 4.696 0 0 1 0 9.393m0-10.762C5.958.5 3.08 4.614 1.5 6.567c1.58 1.952 4.458 6.066 9.958 6.066 5.499 0 8.376-4.114 9.958-6.066C19.834 4.614 16.956.5 11.458.5"/>
        <path fill="#1A6BC6" d="M8.873 6.567a2.584 2.584 0 1 1 5.169-.001 2.584 2.584 0 0 1-5.17.001"/>
        <path stroke="#1A6BC6" stroke-linejoin="round" d="M11.458.5C5.958.5 3.08 4.614 1.5 6.567c1.58 1.952 4.458 6.066 9.958 6.066 5.499 0 8.376-4.114 9.958-6.066C19.834 4.614 16.956.5 11.458.5z"/>
    </g>
</svg>
