<svg xmlns="http://www.w3.org/2000/svg" width="24" height="24" viewBox="0 0 24 24">
  <path d="M20,20,8,8V5H6A2,2,0,0,1,4,3H4A2,2,0,0,1,6,1h7.59A3,3,0,0,1,15.9,2.08l4.33,5.2A2,2,0,0,0,21.77,8H23V18l-3,2" fill="none" stroke="currentColor" stroke-linecap="round" stroke-linejoin="round" stroke-width="2"/>
  <path d="M19.5,19.5l-2.09,2.09a2,2,0,0,1-2.82,0L13.5,20.5" fill="none" stroke="currentColor" stroke-linecap="round" stroke-linejoin="round" stroke-width="2"/>
  <path d="M1,18V7H3.4a2.05,2.05,0,0,0,1.1-.33L7,5.05" fill="none" stroke="currentColor" stroke-linecap="round" stroke-linejoin="round" stroke-width="2"/>
  <path d="M13.5,20.5l-1.09,1.09a2,2,0,0,1-2.82,0L8.5,20.5" fill="none" stroke="currentColor" stroke-linecap="round" stroke-linejoin="round" stroke-width="2"/>
  <path d="M8.5,20.5,7.41,21.59a2,2,0,0,1-2.82,0L3.5,20.5,2,19,1,18" fill="none" stroke="currentColor" stroke-linecap="round" stroke-linejoin="round" stroke-width="2"/>
  <line x1="23" y1="7" x2="23" y2="20" fill="none" stroke="currentColor" stroke-linecap="round" stroke-linejoin="round" stroke-width="2"/>
  <line x1="1" y1="6" x2="1" y2="20" fill="none" stroke="currentColor" stroke-linecap="round" stroke-linejoin="round" stroke-width="2"/>
</svg>
