<svg width="28px" height="28px" viewBox="0 0 28 28" version="1.1" xmlns="http://www.w3.org/2000/svg" xmlns:xlink="http://www.w3.org/1999/xlink">
    <g stroke="none" stroke-width="1" fill="none" fill-rule="evenodd" stroke-linecap="round" stroke-linejoin="round">
        <g transform="translate(2.000000, 3.000000)" stroke="currentColor" stroke-width="1.5">
            <path d="M20.91,14.1 L21.84,14.1 C22.6905185,14.1 23.38,13.4105185 23.38,12.56 L23.38,9.85 C23.38,8.99948149 22.6905185,8.31 21.84,8.31 L20.91,8.31"></path>
            <path d="M11.28,21.96 C10.5896441,21.96 10.03,21.4003559 10.03,20.71 C10.03,20.0196441 10.5896441,19.46 11.28,19.46 L13.97,19.46 C14.6603559,19.46 15.22,20.0196441 15.22,20.71 C15.22,21.4003559 14.6603559,21.96 13.97,21.96 L11.28,21.96 Z"></path>
            <path d="M3.22,8.31 L2.29,8.31 C1.43948149,8.31 0.75,8.99948149 0.75,9.85 L0.75,12.56 C0.75,13.4105185 1.43948149,14.1 2.29,14.1 L3.22,14.1 L3.22,8.59 C3.38038428,3.820758 7.29306199,0.0374474744 12.065,0.0374474744 C16.836938,0.0374474744 20.7496157,3.820758 20.91,8.59 L20.91,16.24 C20.9044859,18.7103295 18.9003357,20.7100062 16.43,20.71 L15.23,20.71"></path>
        </g>
    </g>
</svg>
