<svg xmlns="http://www.w3.org/2000/svg" width="24" height="24" viewBox="0 0 24 24">
  <path d="M21,8h-.06a9.09,9.09,0,0,0-2.79-5.56A9,9,0,0,0,11.38,0,9.14,9.14,0,0,0,3.05,8H3a3,3,0,0,0-3,3v1a3,3,0,0,0,3,3H4a1,1,0,0,0,1-1V9.3A7.17,7.17,0,0,1,11.51,2,7,7,0,0,1,19,9v6.52A3.44,3.44,0,0,1,15.81,19,3,3,0,0,0,13,17H11a3,3,0,0,0,0,6h2a3,3,0,0,0,2.81-2A5.47,5.47,0,0,0,21,15.54V15a3,3,0,0,0,3-3V11A3,3,0,0,0,21,8ZM2,12V11a1,1,0,0,1,1-1v3A1,1,0,0,1,2,12Zm11,9H11a1,1,0,0,1,0-2h2a1,1,0,1,1,0,2Zm9-9a1,1,0,0,1-1,1V10a1,1,0,0,1,1,1Z" fill="currentColor"/>
</svg>
