<svg xmlns="http://www.w3.org/2000/svg" width="24" height="24" viewBox="0 0 24 24">
  <g>
    <path d="M16.9,14h-.19l-1.08-3.26A4,4,0,0,0,11.84,8H6.18a4,4,0,0,0-3.79,2.74L1.3,14H1.15A1.08,1.08,0,0,0,0,15v6a1,1,0,0,0,1,1v1a1,1,0,0,0,2,0V22H15v1a1,1,0,0,0,2,0V22a1,1,0,0,0,1-1V15A1.07,1.07,0,0,0,16.9,14ZM2,20V16H16v4Zm2.27-8.63A2,2,0,0,1,6.18,10h5.66a2,2,0,0,1,1.89,1.37L14.6,14H3.41Z" fill="currentColor"/>
    <path d="M5,17a1,1,0,1,0,1,1A1,1,0,0,0,5,17Z" fill="currentColor"/>
    <path d="M13,17a1,1,0,1,0,1,1A1,1,0,0,0,13,17Z" fill="currentColor"/>
    <path d="M13.12,0A1,1,0,0,0,12,1a1,1,0,0,0,.88,1A10,10,0,0,1,22,11.07,1,1,0,0,0,23,12a1,1,0,0,0,1-1.11A12,12,0,0,0,13.12,0Z" fill="currentColor"/>
    <path d="M13.16,4A1,1,0,0,0,12,5a1,1,0,0,0,.85,1A6,6,0,0,1,18,11.11a1,1,0,0,0,2-.28A8,8,0,0,0,13.16,4Z" fill="currentColor"/>
  </g>
</svg>
