<svg xmlns="http://www.w3.org/2000/svg" width="28" height="28" viewBox="0 0 28 28">
    <g stroke="none" stroke-width="1" fill="none" fill-rule="evenodd">
        <g transform="translate(5.000000, 1.000000)">
            <path d="M4.6592,4.5922 C4.6592,2.4702 6.3792,0.7502 8.5012,0.7502 C10.6232,0.7502 12.3432,2.4702 12.3432,4.5922 C12.3432,6.7142 10.6232,8.4342 8.5012,8.4342 C6.3792,8.4342 4.6592,6.7142 4.6592,4.5922" fill="currentColor"></path>
            <path d="M4.6592,4.5922 C4.6592,2.4702 6.3792,0.7502 8.5012,0.7502 C10.6232,0.7502 12.3432,2.4702 12.3432,4.5922 C12.3432,6.7142 10.6232,8.4342 8.5012,8.4342 C6.3792,8.4342 4.6592,6.7142 4.6592,4.5922 Z" stroke="currentColor" stroke-width="1.5" stroke-linecap="round" stroke-linejoin="round"></path>
            <path d="M9.3677,12.1977 C4.6987,11.6917 0.7497,15.3357 0.7497,19.9017 L0.7497,20.1207 C0.7497,20.3627 0.8287,20.5777 0.9387,20.7747 C1.3057,16.8677 4.5567,13.7997 8.5597,13.7997 C12.4947,13.7997 15.7027,16.7657 16.1597,20.5777 C16.2117,20.4337 16.2527,20.2827 16.2527,20.1207 C16.2527,16.1337 13.3317,12.6277 9.3677,12.1977" fill="currentColor"></path>
            <path d="M9.3677,12.1977 C4.6987,11.6917 0.7497,15.3357 0.7497,19.9017 L0.7497,20.1207 C0.7497,20.3627 0.8287,20.5777 0.9387,20.7747 C1.3057,16.8677 4.5567,13.7997 8.5597,13.7997 C12.4947,13.7997 15.7027,16.7657 16.1597,20.5777 C16.2117,20.4337 16.2527,20.2827 16.2527,20.1207 C16.2527,16.1337 13.3317,12.6277 9.3677,12.1977 Z" stroke="currentColor" stroke-width="1.5" stroke-linecap="round" stroke-linejoin="round"></path>
            <path d="M4.7173,21.4931 C4.7173,19.4031 6.4113,17.7091 8.5013,17.7091 C10.5913,17.7091 12.2853,19.4031 12.2853,21.4931 C12.2853,23.5831 10.5913,25.2771 8.5013,25.2771 C6.4113,25.2771 4.7173,23.5831 4.7173,21.4931 Z" stroke="currentColor" stroke-width="1.5" stroke-linecap="round" stroke-linejoin="round"></path>
            <path d="M4.7891,20.7743 L0.9381,20.7743" stroke="currentColor" stroke-width="1.5" stroke-linecap="round" stroke-linejoin="round"></path>
            <path d="M12.2134,20.7743 L16.0644,20.7743" stroke="currentColor" stroke-width="1.5" stroke-linecap="round" stroke-linejoin="round"></path>
        </g>
    </g>
</svg>
