<svg xmlns="http://www.w3.org/2000/svg" width="28" height="28" viewBox="0 0 28 28">
    <g stroke="none" stroke-width="1" fill="none" fill-rule="evenodd">
        <g transform="translate(2.000000, 1.000000)">
            <path d="M23.3441,11.5649 C23.3441,8.6759 22.2191,5.9609 20.1771,3.9189 C18.1351,1.8749 15.4181,0.7499 12.5291,0.7499" stroke="currentColor" stroke-width="1.5" stroke-linecap="round" stroke-linejoin="round"></path>
            <path d="M17.6341,12.7422 C17.6341,11.0642 16.9811,9.4862 15.7951,8.3002 C14.6081,7.1132 13.0301,6.4592 11.3511,6.4592" stroke="currentColor" stroke-width="1.5" stroke-linecap="round" stroke-linejoin="round"></path>
            <path d="M0.7498,24.1743 L0.7498,17.9523 C0.7498,17.6603 0.8218,17.3733 0.9598,17.1153 L3.2678,12.8013 C3.5768,12.2233 4.1788,11.8623 4.8328,11.8623 L7.8178,11.8623" stroke="currentColor" stroke-width="1.5" stroke-linecap="round" stroke-linejoin="round"></path>
            <path d="M14.8856,24.1743 L14.8856,17.9523 C14.8856,17.6603 14.8136,17.3733 14.6756,17.1153 L12.3676,12.8013 C12.0586,12.2233 11.4566,11.8623 10.8026,11.8623 L7.8176,11.8623" stroke="currentColor" stroke-width="1.5" stroke-linecap="round" stroke-linejoin="round"></path>
            <path d="M12.1776,21.5483 C11.5486,21.5483 11.0386,21.0383 11.0386,20.4093 C11.0386,19.7793 11.5486,19.2703 12.1776,19.2703 C12.8066,19.2703 13.3166,19.7793 13.3166,20.4093 C13.3166,21.0383 12.8066,21.5483 12.1776,21.5483 Z M3.4576,21.5483 C2.8286,21.5483 2.3186,21.0383 2.3186,20.4093 C2.3186,19.7793 2.8286,19.2703 3.4576,19.2703 C4.0876,19.2703 4.5966,19.7793 4.5966,20.4093 C4.5966,21.0383 4.0876,21.5483 3.4576,21.5483 Z M0.7496,22.9613 L14.8796,22.9613 L14.8796,17.8573 L0.7496,17.8573 L0.7496,22.9613 Z" fill="currentColor"></path>
        </g>
    </g>
</svg>
