<svg xmlns="http://www.w3.org/2000/svg" width="111" height="103" viewBox="0 0 111 103">
    <g fill="none" fill-rule="evenodd">
        <path fill="var(--surface-color)" d="M103.886 1.283c-1.71-1.71-4.484-1.71-6.195 0L93.865 5.11l9.445 9.445 3.825-3.826c1.712-1.711 1.712-4.485 0-6.196l-3.249-3.25zM100.026 35.69H0v-7.365c0-1.657 1.343-3 3-3h94.026c1.657 0 3 1.343 3 3v7.366zM97.026 100.637H3c-1.657 0-3-1.344-3-3V35.691h100.026v61.946c0 1.656-1.343 3-3 3" transform="translate(1 1)"/>
        <path stroke="var(--palette-color-primary)" stroke-width="2" d="M97.026 100.637H3c-1.657 0-3-1.344-3-3V35.691h100.026v61.946c0 1.656-1.343 3-3 3z" transform="translate(1 1)"/>
        <path fill="var(--palette-color-primary-lighter)" d="M100.026 35.69H0v-7.365c0-1.657 1.343-3 3-3h94.026c1.657 0 3 1.343 3 3v7.366z" transform="translate(1 1)"/>
        <path stroke="var(--palette-color-primary)" stroke-width="2" d="M100.026 35.69H0v-7.365c0-1.657 1.343-3 3-3h94.026c1.657 0 3 1.343 3 3v7.366z" transform="translate(1 1)"/>
        <path fill="var(--palette-color-primary-lighter)" d="M51.053 62.286l.925 1.806h5.453v5.672h-7.642l-7.64 12.593v7.8l5.413 3.024h-15.6V82.834l-4.457-2.816s.796-6.098.796-6.575V59.257l6.049-7.304 7.8-.955 3.979-5.176h3.375l2.992-4.27-1.004 6.158.617 9.392-1.056 5.184z" transform="translate(1 1)"/>
        <path stroke="var(--palette-color-primary)" stroke-linecap="round" stroke-linejoin="round" stroke-width="2" d="M51.053 62.286l.925 1.806h5.453v5.672h-7.642l-7.64 12.593v7.8l5.413 3.024h-15.6V82.834l-4.457-2.816s.796-6.098.796-6.575V59.257l6.049-7.304 7.8-.955 3.979-5.176h3.375l2.992-4.27-1.004 6.158.617 9.392-1.056 5.184z" transform="translate(1 1)"/>
        <path fill="var(--palette-color-primary-lighter)" d="M54.711 80.018L48.981 82.516 51.846 87.928 57.099 91.271 59.487 88.087 59.487 84.426z" transform="translate(1 1)"/>
        <path stroke="var(--palette-color-primary)" stroke-linecap="round" stroke-linejoin="round" stroke-width="2" d="M54.711 80.018L48.981 82.516 51.846 87.928 57.099 91.271 59.487 88.087 59.487 84.426z" transform="translate(1 1)"/>
        <path fill="var(--palette-color-primary-lighter)" d="M62.823 77.582L68.076 77.582 69.509 74.819 66.802 72.806 71.578 73.761 72.374 78.716 73.966 75.761 73.17 72.806 77.149 70.578 79.855 72.169 79.855 78.716 75.239 82.198 79.219 84.427 74.284 87.928 76.035 91.27 70.464 89.838 70.623 86.974 66.962 87.609 65.529 84.903 66.643 83.63 65.211 80.019z" transform="translate(1 1)"/>
        <path stroke="var(--palette-color-primary)" stroke-linecap="round" stroke-linejoin="round" stroke-width="2" d="M62.823 77.582L68.076 77.582 69.509 74.819 66.802 72.806 71.578 73.761 72.374 78.716 73.966 75.761 73.17 72.806 77.149 70.578 79.855 72.169 79.855 78.716 75.239 82.198 79.219 84.427 74.284 87.928 76.035 91.27 70.464 89.838 70.623 86.974 66.962 87.609 65.529 84.903 66.643 83.63 65.211 80.019z" transform="translate(1 1)"/>
        <path stroke="var(--palette-color-primary)" stroke-width="2" d="M15.356 35.691L15.356 100.637" transform="translate(1 1)"/>
        <path fill="var(--surface-color)" d="M74.261 43.603L64.816 34.157 93.865 5.109 103.309 14.555z" transform="translate(1 1)"/>
        <path stroke="var(--palette-color-primary)" opacity="0.8" stroke-linecap="round" stroke-linejoin="round" stroke-width="2" d="M74.261 43.603L64.816 34.157 93.865 5.109 103.309 14.555z" transform="translate(1 1)"/>
        <path fill="var(--surface-color)" d="M57.311 51.108L57.311 51.108 64.815 34.158 74.261 43.604z" transform="translate(1 1)"/>
        <path stroke="var(--palette-color-primary)" opacity="0.8" stroke-linecap="round" stroke-linejoin="round" stroke-width="2" d="M57.311 51.108L57.311 51.108 64.815 34.158 74.261 43.604z" transform="translate(1 1)"/>
        <path stroke="var(--palette-color-primary)" opacity="0.8" stroke-linecap="round" stroke-linejoin="round" stroke-width="2" d="M61.036 42.694c1.009.446 1.953 1.083 2.78 1.909.826.826 1.463 1.77 1.909 2.78" transform="translate(1 1)"/>
        <path fill="var(--palette-color-primary-lighter)" d="M103.886 1.283c-1.71-1.71-4.484-1.71-6.195 0L93.865 5.11l9.445 9.445 3.825-3.826c1.712-1.711 1.712-4.485 0-6.196l-3.249-3.25z" transform="translate(1 1)"/>
        <path stroke="var(--palette-color-primary)" stroke-linecap="round" stroke-linejoin="round" stroke-width="2" d="M107.135 4.533l-3.249-3.25c-1.71-1.71-4.484-1.71-6.195 0L93.865 5.11l9.445 9.445 3.825-3.826c1.712-1.711 1.712-4.485 0-6.196zM55.127 52.259L53.803 52.965" transform="translate(1 1)"/>
        <path stroke="var(--palette-color-primary)" stroke-dasharray="3.063 6.126" stroke-linecap="round" stroke-linejoin="round" stroke-width="2" d="M48.398 55.848l-3.18 1.696-8.873 7.642" transform="translate(1 1)"/>
        <path stroke="var(--palette-color-primary)" stroke-linecap="round" stroke-linejoin="round" stroke-width="2" d="M34.024 67.185L32.887 68.164 33.399 69.574" transform="translate(1 1)"/>
        <path stroke="var(--palette-color-primary)" stroke-dasharray="2.114 4.229" stroke-linecap="round" stroke-linejoin="round" stroke-width="2" d="M34.84 73.55L36.28 77.526" transform="translate(1 1)"/>
        <path stroke="var(--palette-color-primary)" stroke-linecap="round" stroke-linejoin="round" stroke-width="2" d="M37.001 79.514L37.512 80.924 38.3 79.648" transform="translate(1 1)"/>
        <path stroke="var(--palette-color-primary)" stroke-dasharray="2.745 5.49" stroke-linecap="round" stroke-linejoin="round" stroke-width="2" d="M41.182 74.976l1.228-1.989.977-2.998" transform="translate(1 1)"/>
        <path stroke="var(--palette-color-primary)" stroke-linecap="round" stroke-linejoin="round" stroke-width="2" d="M44.239 67.38L44.704 65.954" transform="translate(1 1)"/>
    </g>
</svg>
