<svg xmlns="http://www.w3.org/2000/svg" width="24" height="24" viewBox="0 0 24 24">
  <g>
    <circle cx="12" cy="12" r="4" fill="currentColor"/>
    <path d="M12,10a2,2,0,1,1-2,2,2,2,0,0,1,2-2m0-2a4,4,0,1,0,4,4,4,4,0,0,0-4-4Z" fill="currentColor"/>
  </g>
  <path d="M12,6c4.76,0,8.85,4.59,10,6-1.15,1.41-5.24,6-10,6S3.14,13.41,2,12c1.14-1.41,5.24-6,10-6m0-2C6.89,4,2.56,8.14.45,10.74a2,2,0,0,0,0,2.53C2.56,15.86,6.89,20,12,20s9.44-4.14,11.55-6.73a2,2,0,0,0,0-2.53C21.44,8.14,17.11,4,12,4Z" fill="currentColor"/>
</svg>
