<svg xmlns="http://www.w3.org/2000/svg" width="24" height="24" viewBox="0 0 24 24">
  <g>
    <path d="M1,3H8v.61a.4.4,0,0,0,.4.4.41.41,0,0,0,.18,0l3.22-1.6a.41.41,0,0,0,0-.72L8.58.06A.39.39,0,0,0,8.4,0a.4.4,0,0,0-.4.4V1H1A1,1,0,0,0,1,3Z" fill="currentColor"/>
    <path d="M7,6A1,1,0,0,0,7,8h7v.61a.4.4,0,0,0,.4.4.41.41,0,0,0,.18,0l3.22-1.6a.41.41,0,0,0,0-.72L14.58,5.06a.39.39,0,0,0-.18,0,.4.4,0,0,0-.4.4V6H7Z" fill="currentColor"/>
    <path d="M11.8,21.65,8.58,20a.39.39,0,0,0-.18,0,.4.4,0,0,0-.4.4V21H1a1,1,0,0,0,0,2H8v.61a.4.4,0,0,0,.4.4A.41.41,0,0,0,8.58,24l3.22-1.6A.41.41,0,0,0,11.8,21.65Z" fill="currentColor"/>
    <path d="M17.8,16.65,14.58,15a.39.39,0,0,0-.18,0,.4.4,0,0,0-.4.4V16H7a1,1,0,0,0,0,2h7v.61a.4.4,0,0,0,.4.4.41.41,0,0,0,.18-.05l3.22-1.6A.41.41,0,0,0,17.8,16.65Z" fill="currentColor"/>
    <path d="M23.78,11.66l-3.22-1.61a.39.39,0,0,0-.18,0,.4.4,0,0,0-.4.4V11H13a1,1,0,0,0,0,2h7v.61a.4.4,0,0,0,.4.4.41.41,0,0,0,.18,0l3.22-1.6A.41.41,0,0,0,23.78,11.66Z" fill="currentColor"/>
  </g>
</svg>
