<svg xmlns="http://www.w3.org/2000/svg" width="24" height="24" viewBox="0 0 24 24">
  <path d="M15.57,11.82A6,6,0,0,0,18,7a5,5,0,0,0,0-.67,2.36,2.36,0,0,0,1-1.81C19,2.62,15.87,0,12,0S5,2.62,5,4.53A2.42,2.42,0,0,0,6,6.35C6,6.57,6,6.79,6,7a6,6,0,0,0,2.42,4.8A9.45,9.45,0,0,0,3,20.31V21a3,3,0,0,0,3,3H18a3,3,0,0,0,3-3v-.4A9.81,9.81,0,0,0,15.57,11.82ZM12,2c2.92,0,4.85,1.87,5,2.5C16.75,5,15,6,12,6S7.26,5,7,4.51C7.17,3.85,9.1,2,12,2Zm0,6a12.52,12.52,0,0,0,4-.61A4,4,0,0,1,8,7.39,12.57,12.57,0,0,0,12,8Zm0,5h.12a7.19,7.19,0,0,1,6.43,5H17V17a1,1,0,0,0-1-1H8a1,1,0,0,0-1,1v1H5.38A7.15,7.15,0,0,1,12,13Zm0,7a1,1,0,0,0,1-1V18h2v4H9V18h2v1A1,1,0,0,0,12,20ZM5,21v-.67c0-.11,0-.21,0-.32H7v2H6A1,1,0,0,1,5,21Zm14,0a1,1,0,0,1-1,1H17V20h2a5.83,5.83,0,0,1,0,.59Z" fill="currentColor"/>
</svg>
