<svg xmlns="http://www.w3.org/2000/svg" width="24" height="24" viewBox="0 0 24 24">
  <g>
    <path d="M12,8a4,4,0,1,0,4,4A4,4,0,0,0,12,8Zm0,6a2,2,0,1,1,2-2A2,2,0,0,1,12,14Z" fill="currentColor"/>
    <path d="M12,4A8,8,0,0,0,5.33,16.42a9.27,9.27,0,0,0,1,1.24,1,1,0,1,0,1.42-1.42A5.55,5.55,0,0,1,7,15.32a6,6,0,1,1,10,0,6.09,6.09,0,0,1-.76.92,1,1,0,0,0,0,1.42,1,1,0,0,0,1.42,0,8.68,8.68,0,0,0,1-1.24A8,8,0,0,0,12,4Z" fill="currentColor"/>
    <path d="M12,0A12,12,0,0,0,3.51,20.48a1,1,0,0,0,1.42-1.41A10,10,0,1,1,22,12a9.93,9.93,0,0,1-2.93,7.07,1,1,0,0,0,.71,1.71,1,1,0,0,0,.71-.3A12,12,0,0,0,12,0Z" fill="currentColor"/>
  </g>
</svg>
