<svg xmlns="http://www.w3.org/2000/svg" width="28" height="28" viewBox="0 0 28 28">
    <g stroke="none" stroke-width="1" fill="none" fill-rule="evenodd">
        <g transform="translate(1.000000, 2.000000)">
            <path d="M14.8775,13.0576 C14.8775,14.0616 14.0615,14.8776 13.0575,14.8776 C12.0535,14.8776 11.2365,14.0616 11.2365,13.0576 C11.2365,12.0536 12.0535,11.2376 13.0575,11.2376 C14.0615,11.2376 14.8775,12.0536 14.8775,13.0576" fill="currentColor"></path>
            <path d="M14.8775,13.0576 C14.8775,14.0616 14.0615,14.8776 13.0575,14.8776 C12.0535,14.8776 11.2365,14.0616 11.2365,13.0576 C11.2365,12.0536 12.0535,11.2376 13.0575,11.2376 C14.0615,11.2376 14.8775,12.0536 14.8775,13.0576 Z" stroke="currentColor" stroke-width="1.5" stroke-linecap="round" stroke-linejoin="round"></path>
            <path d="M6.9049,23.7139 C3.2279,21.5829 0.7499,17.6039 0.7499,13.0569 C0.7499,6.2709 6.2709,0.7499 13.0569,0.7499 C19.8439,0.7499 25.3639,6.2709 25.3639,13.0569 C25.3639,17.6039 22.8859,21.5829 19.2099,23.7139" stroke="currentColor" stroke-width="1.5" stroke-linecap="round" stroke-linejoin="round"></path>
            <path d="M9.5265,19.1738 C7.4165,17.9508 5.9935,15.6668 5.9935,13.0568 C5.9935,9.1618 9.1625,5.9938 13.0575,5.9938 C16.9525,5.9938 20.1215,9.1618 20.1215,13.0568 C20.1215,15.6668 18.6985,17.9508 16.5885,19.1738" stroke="currentColor" stroke-width="1.5" stroke-linecap="round" stroke-linejoin="round"></path>
        </g>
    </g>
</svg>
