<svg xmlns="http://www.w3.org/2000/svg" width="29" height="28" viewBox="0 0 29 28">
    <g fill="none" fill-rule="evenodd" stroke="currentColor" stroke-linecap="round" stroke-linejoin="round" stroke-width="2">
        <path d="M27.433 18.055H25.57a.845.845 0 0 1-.845-.845V6.63c0-.467.378-.846.845-.846h1.863v12.27zM.75 20.203h1.863a.845.845 0 0 0 .845-.845V8.778a.845.845 0 0 0-.845-.846H.75v12.271zM15.355 10.703h-.829a2.14 2.14 0 0 1-2.139-2.139v-.073c0-.954-.773-1.727-1.727-1.727H7.83a2.007 2.007 0 1 1 0-4.014h9.533l7.102 3.976M24.725 17.429l-2.464.286M3.81 8.802l3.264-2.185M15.355 10.781l6.386 6.386a1.78 1.78 0 0 1-2.516 2.515"/>
        <path d="M19.225 19.682a1.777 1.777 0 1 1-2.515 2.515l-1.583-1.583a1.777 1.777 0 1 1-2.515 2.515l-1.606-1.56a1.777 1.777 0 1 1-2.515 2.515L3.7 19.292M19.897 20.353l-1.075-1.074"/>
    </g>
</svg>
