<svg xmlns="http://www.w3.org/2000/svg" width="28" height="28" viewBox="0 0 28 28">
    <g fill="none" fill-rule="evenodd" transform="translate(3 7)">
        <path fill="currentColor" fill-rule="nonzero" d="M10.45.5C4.96.5 2.08 4.61.5 6.57c1.58 1.95 4.46 6.06 10 6.06s8.38-4.11 10-6.06C18.86 4.61 15.95.5 10.45.5zm0 10.76a4.7 4.7 0 1 1 4.7-4.69 4.69 4.69 0 0 1-4.7 4.69z"/>
        <circle cx="10.46" cy="6.57" r="2.58" fill="currentColor" fill-rule="nonzero"/>
        <path stroke="currentColor" stroke-linejoin="round" d="M10.45.5C4.96.5 2.08 4.61.5 6.57c1.58 1.95 4.46 6.06 10 6.06s8.38-4.11 10-6.06C18.86 4.61 15.95.5 10.45.5z"/>
    </g>
</svg>
