<svg width="24px" height="24px" viewBox="0 0 24 24">
    <g stroke="none" stroke-width="1" fill="none" fill-rule="evenodd">
        <g stroke="currentColor" stroke-width="2">
            <g transform="translate(1.000000, 1.000000)">
                <g transform="translate(0.000000, 0.278200)">
                    <polygon points="5.4998 12.8609 10.9998 9.8609 10.9998 3.8609 5.4998 0.8609 -0.0002 3.8609 -0.0002 9.8609"></polygon>
                    <path d="M-0.0002,3.8609 L5.4998,6.8609"></path>
                </g>
                <path d="M10.9998,4.1391 L5.4998,7.1391"></path>
                <path d="M5.4998,7.1391 L5.4998,13.1391"></path>
                <polygon points="16.4998 13.1391 21.9998 10.1391 21.9998 4.1391 16.4998 1.1391 10.9998 4.1391 10.9998 10.1391"></polygon>
                <path d="M10.9998,4.1391 L16.4998,7.1391"></path>
                <path d="M21.9998,4.1391 L16.4998,7.1391"></path>
                <path d="M16.4998,7.1391 L16.4998,13.1391"></path>
                <polygon points="10.9998 22.1391 16.4998 19.1391 16.4998 13.1391 10.9998 10.1391 5.4998 13.1391 5.4998 19.1391"></polygon>
                <path d="M5.4998,13.1391 L10.9998,16.1391"></path>
                <path d="M16.4998,13.1391 L10.9998,16.1391"></path>
                <path d="M10.9998,16.1391 L10.9998,22.1391"></path>
            </g>
        </g>
    </g>
</svg>
