<svg xmlns="http://www.w3.org/2000/svg" xmlns:xlink="http://www.w3.org/1999/xlink" width="14" height="14" viewBox="0 0 14 14">
    <defs>
        <path id="a" d="M0 0h5v14H0z"/>
        <path id="c" d="M0 0h5v14H0z"/>
    </defs>
    <g fill="none" fill-rule="evenodd">
        <g>
            <mask id="b" fill="#fff">
                <use xlink:href="#a"/>
            </mask>
            <path fill="#ABBEC7" d="M4 14H1a1 1 0 0 1-1-1V1a1 1 0 0 1 1-1h3a1 1 0 0 1 1 1v12a1 1 0 0 1-1 1" mask="url(#b)"/>
        </g>
        <g transform="translate(9)">
            <mask id="d" fill="#fff">
                <use xlink:href="#c"/>
            </mask>
            <path fill="#ABBEC7" d="M4 14H1a1 1 0 0 1-1-1V1a1 1 0 0 1 1-1h3a1 1 0 0 1 1 1v12a1 1 0 0 1-1 1" mask="url(#d)"/>
        </g>
    </g>
</svg>
