<svg xmlns="http://www.w3.org/2000/svg" width="16" height="16" viewBox="0 0 16 16">
  <g>
    <path d="M4.14,7.36a1.51,1.51,0,0,0-1.06-.43A1.47,1.47,0,0,0,2,7.36L.5,8.9V3.12a.51.51,0,0,1,.5-.5H15a.5.5,0,0,1,.5.5V8.91L12.07,5.48A1.49,1.49,0,0,0,11,5.05a1.47,1.47,0,0,0-1.07.45L6.17,9.39ZM6.5,3.62a2,2,0,1,0,2,2A2,2,0,0,0,6.5,3.62Z" fill="currentColor"/>
    <path d="M15,3.12V7.71L12.42,5.13A1.94,1.94,0,0,0,11,4.55a2,2,0,0,0-1.43.6L9,5.75V5.62a2.5,2.5,0,0,0-2.48-2.5H15m-8.52,0A2.51,2.51,0,0,0,4.33,6.87a2,2,0,0,0-1.25-.44A2,2,0,0,0,1.67,7L1,7.69V3.12H6.48M5.3,7.82a2.57,2.57,0,0,0,1.2.3h.21l-.54.56L5.3,7.82M15,2.12H1a1,1,0,0,0-1,1v7L2.38,7.71a1,1,0,0,1,1.41,0L6.18,10.1l4.11-4.25a1,1,0,0,1,.72-.3,1,1,0,0,1,.71.29L16,10.12v-7a1,1,0,0,0-1-1Zm-8.5,5A1.5,1.5,0,1,1,8,5.62a1.5,1.5,0,0,1-1.5,1.5Z" fill="currentColor"/>
  </g>
  <g>
    <path d="M1,13.62a.5.5,0,0,1-.5-.5v-1.5h15v1.5a.5.5,0,0,1-.5.5Z" fill="currentColor"/>
    <path d="M1,12.12H15v1H1v-1m-1-1v2a1,1,0,0,0,1,1H15a1,1,0,0,0,1-1v-2Z" fill="currentColor"/>
  </g>
</svg>
