<svg xmlns="http://www.w3.org/2000/svg" width="16" height="16" viewBox="0 0 16 16">
  <g>
    <path d="M15,7a1,1,0,0,1-1-1V3a3,3,0,0,0-3-3H10a1,1,0,0,0,0,2h1a1,1,0,0,1,1,1V6a3,3,0,0,0,.78,2A3,3,0,0,0,12,10v3a1,1,0,0,1-1,1H10a1,1,0,0,0,0,2h1a3,3,0,0,0,3-3V10a1,1,0,0,1,1-1,1,1,0,1,0,0-2Z" fill="currentColor"/>
    <path d="M5,2H6A1,1,0,0,0,6,0H5A3,3,0,0,0,2,3V6A1,1,0,0,1,1,7,1,1,0,0,0,1,9a1,1,0,0,1,1,1v3a3,3,0,0,0,3,3H6a1,1,0,0,0,0-2H5a1,1,0,0,1-1-1V10a3,3,0,0,0-.78-2A3,3,0,0,0,4,6V3A1,1,0,0,1,5,2Z" fill="currentColor"/>
  </g>
</svg>
