<svg xmlns="http://www.w3.org/2000/svg" width="24" height="24" viewBox="0 0 24 24">
  <g>
    <path d="M12,8a4,4,0,1,0,4,4A4,4,0,0,0,12,8Zm0,6a2,2,0,1,1,2-2A2,2,0,0,1,12,14Z" fill="currentColor"/>
    <path d="M7.11,7.11A1,1,0,0,0,5.6,7.2a8,8,0,0,0,0,9.6,1,1,0,0,0,1.51.09,1,1,0,0,0,.08-1.29,6,6,0,0,1,0-7.19A1,1,0,0,0,7.11,7.11Z" fill="currentColor"/>
    <path d="M2,12A10,10,0,0,1,4.33,5.59a1,1,0,0,0-.07-1.33,1,1,0,0,0-1.49.07,12,12,0,0,0,0,15.34,1,1,0,0,0,1.49.07,1,1,0,0,0,.07-1.33A10,10,0,0,1,2,12Z" fill="currentColor"/>
    <path d="M18.4,7.2a1,1,0,0,0-1.51-.09,1,1,0,0,0-.08,1.3,6,6,0,0,1,0,7.19,1,1,0,0,0,.08,1.29,1,1,0,0,0,1.51-.09,8,8,0,0,0,0-9.6Z" fill="currentColor"/>
    <path d="M21.23,4.33a1,1,0,0,0-1.49-.07,1,1,0,0,0-.07,1.33,10,10,0,0,1,0,12.82,1,1,0,0,0,.07,1.33,1,1,0,0,0,1.49-.07,12,12,0,0,0,0-15.34Z" fill="currentColor"/>
  </g>
</svg>
