<svg xmlns="http://www.w3.org/2000/svg" width="24" height="24" viewBox="0 0 24 24">
  <g>
    <path d="M21,2H18V1a1,1,0,0,0-2,0V2H8V1A1,1,0,0,0,6,1V2H3A2,2,0,0,0,1,4V21a2,2,0,0,0,2,2H21a2,2,0,0,0,2-2V4A2,2,0,0,0,21,2Zm0,2V6H3V4ZM3,21V8H21V21Z" fill="currentColor"/>
    <circle cx="7" cy="12" r="1" fill="currentColor"/>
    <circle cx="12" cy="12" r="1" fill="currentColor"/>
    <circle cx="12" cy="17" r="1" fill="currentColor"/>
    <circle cx="17" cy="12" r="1" fill="currentColor"/>
    <circle cx="7" cy="17" r="1" fill="currentColor"/>
    <circle cx="17" cy="17" r="1" fill="currentColor"/>
  </g>
</svg>
