<svg xmlns="http://www.w3.org/2000/svg" width="28" height="28" viewBox="0 0 28 28">
    <g stroke="none" stroke-width="1" fill="none" fill-rule="evenodd">
        <g transform="translate(1.000000, 6.000000)">
            <path d="M3.566,14.3465 C1.751,12.5305 0.75,10.1175 0.75,7.5495 C0.75,4.9805 1.75,2.5665 3.566,0.7495" stroke="currentColor" stroke-width="2" stroke-linecap="round" stroke-linejoin="round"></path>
            <path d="M7.8951,11.4973 C6.8401,10.4423 6.2591,9.0403 6.2591,7.5483 C6.2591,6.0563 6.8401,4.6543 7.8951,3.5993" stroke="currentColor" stroke-width="2" stroke-linecap="round" stroke-linejoin="round"></path>
            <path d="M23.0826,14.3465 C24.8976,12.5305 25.8986,10.1175 25.8986,7.5495 C25.8986,4.9805 24.8986,2.5665 23.0826,0.7495" stroke="currentColor" stroke-width="2" stroke-linecap="round" stroke-linejoin="round"></path>
            <path d="M18.7535,11.4973 C19.8085,10.4423 20.3895,9.0403 20.3895,7.5483 C20.3895,6.0563 19.8085,4.6543 18.7535,3.5993" stroke="currentColor" stroke-width="2" stroke-linecap="round" stroke-linejoin="round"></path>
            <path d="M13.3243,9.5091 C12.2423,9.5091 11.3633,8.6301 11.3633,7.5481 C11.3633,6.4671 12.2423,5.5871 13.3243,5.5871 C14.4053,5.5871 15.2853,6.4671 15.2853,7.5481 C15.2853,8.6301 14.4053,9.5091 13.3243,9.5091" fill="currentColor"></path>
            <path d="M13.3243,9.5091 C12.2423,9.5091 11.3633,8.6301 11.3633,7.5481 C11.3633,6.4671 12.2423,5.5871 13.3243,5.5871 C14.4053,5.5871 15.2853,6.4671 15.2853,7.5481 C15.2853,8.6301 14.4053,9.5091 13.3243,9.5091 Z" stroke="currentColor"></path>
        </g>
    </g>
</svg>
