<svg xmlns="http://www.w3.org/2000/svg" width="24" height="24" viewBox="0 0 24 24">
  <path d="M20,16a4,4,0,0,0-2,.57L15.43,14A3.86,3.86,0,0,0,16,12a4,4,0,0,0-4-4,3.86,3.86,0,0,0-2,.57L7.43,6a4.17,4.17,0,0,0,.43-1h8.28a4,4,0,1,0,0-2H7.86A4,4,0,1,0,4,8a3.86,3.86,0,0,0,2-.57L8.57,10A4,4,0,0,0,8,12a4,4,0,0,0,4,4,4,4,0,0,0,2-.57L16.57,18a4.17,4.17,0,0,0-.43,1H7.86a4,4,0,1,0,0,2h8.28A4,4,0,1,0,20,16ZM20,2a2,2,0,1,1-2,2A2,2,0,0,1,20,2ZM4,22a2,2,0,1,1,2-2A2,2,0,0,1,4,22ZM2,4A2,2,0,1,1,4,6,2,2,0,0,1,2,4Zm8,8a2,2,0,1,1,2,2A2,2,0,0,1,10,12ZM20,22a2,2,0,1,1,2-2A2,2,0,0,1,20,22Z" fill="currentColor"/>
</svg>
