<svg xmlns="http://www.w3.org/2000/svg" width="24" height="24" viewBox="0 0 24 24">
  <g>
    <path d="M5,16a4,4,0,1,0,4,4A4,4,0,0,0,5,16Zm0,6a2,2,0,1,1,2-2A2,2,0,0,1,5,22Z" fill="currentColor"/>
    <path d="M18,11H6A3,3,0,0,1,6,5h9.14a4,4,0,1,0,0-2H6A5,5,0,0,0,6,13H18a3,3,0,1,1,0,6H13.43l1.28-1.3a1,1,0,1,0-1.41-1.41l-3,3a.65.65,0,0,0-.1.15.94.94,0,0,0-.12.18,1.16,1.16,0,0,0,0,.18,1.42,1.42,0,0,0,0,.2,1.42,1.42,0,0,0,0,.2,1.16,1.16,0,0,0,0,.18.94.94,0,0,0,.12.18.45.45,0,0,0,.1.14l3,3A1,1,0,0,0,14,24a1,1,0,0,0,.7-1.71L13.43,21H18a5,5,0,1,0,0-10Zm1-9a2,2,0,1,1-2,2A2,2,0,0,1,19,2Z" fill="currentColor"/>
  </g>
</svg>
