<svg xmlns="http://www.w3.org/2000/svg" width="24" height="24" viewBox="0 0 24 24">
  <g>
    <path d="M12,7a5,5,0,1,0,5,5A5,5,0,0,0,12,7Zm0,8a3,3,0,1,1,3-3A3,3,0,0,1,12,15Z" fill="currentColor"/>
    <path d="M23.1,9.71l-2-.19a9.28,9.28,0,0,0-.92-2.23l1.24-1.52a1,1,0,0,0-.07-1.34L19.57,2.6a1,1,0,0,0-1.34-.07L16.71,3.77a9.38,9.38,0,0,0-2.22-.92L14.29.9a1,1,0,0,0-1-.9H10.7a1,1,0,0,0-1,.9l-.2,2a9.62,9.62,0,0,0-2.23.92L5.77,2.53a1,1,0,0,0-1.34.07L2.6,4.43a1,1,0,0,0-.07,1.34L3.77,7.29a9.28,9.28,0,0,0-.92,2.23L.9,9.71a1,1,0,0,0-.9,1v2.6a1,1,0,0,0,.9,1l2,.2a9.62,9.62,0,0,0,.92,2.23L2.53,18.23a1,1,0,0,0,.07,1.34L4.43,21.4a1,1,0,0,0,1.34.07l1.51-1.24a9.62,9.62,0,0,0,2.23.92l.2,2a1,1,0,0,0,1,.9h2.6a1,1,0,0,0,1-.9l.2-2a9.38,9.38,0,0,0,2.22-.92l1.52,1.24a1,1,0,0,0,1.34-.07l1.83-1.83a1,1,0,0,0,.07-1.34l-1.24-1.52a9.38,9.38,0,0,0,.92-2.22l2-.2a1,1,0,0,0,.9-1V10.7A1,1,0,0,0,23.1,9.71ZM22,12.39l-1.76.18a1,1,0,0,0-.89.81,7.35,7.35,0,0,1-1.18,2.85,1,1,0,0,0,.06,1.2l1.12,1.37-.56.55-1.37-1.12a1,1,0,0,0-1.2-.05,7.43,7.43,0,0,1-2.78,1.17,1,1,0,0,0-.49.19,1,1,0,0,0-.38.7L12.39,22h-.78l-.18-1.76a1,1,0,0,0-.81-.88,7.51,7.51,0,0,1-2.85-1.18,1,1,0,0,0-1.2.05L5.2,19.35l-.55-.55,1.12-1.37a1,1,0,0,0,.05-1.2,7.44,7.44,0,0,1-1.18-2.85,1,1,0,0,0-.88-.81L2,12.39v-.78l1.76-.18a1,1,0,0,0,.88-.81A7.51,7.51,0,0,1,5.82,7.77a1,1,0,0,0-.05-1.19L4.65,5.21l.55-.56L6.57,5.77a1,1,0,0,0,1.2.06,7.29,7.29,0,0,1,2.85-1.18,1,1,0,0,0,.81-.89L11.61,2h.78l.18,1.76a1,1,0,0,0,.81.89,7.25,7.25,0,0,1,2.84,1.18,1,1,0,0,0,1.2-.06l1.37-1.12.56.56L18.23,6.58a1,1,0,0,0-.06,1.19,7.35,7.35,0,0,1,1.18,2.85,1,1,0,0,0,.89.81l1.76.18Z" fill="currentColor"/>
  </g>
</svg>
