<svg width="24px" height="24px" viewBox="0 0 24 24">
    <g stroke="none" stroke-width="1" fill="none" fill-rule="evenodd">
        <g fill="currentColor">
            <path d="M12,15 C10.343,15 9,13.657 9,12 C9,10.343 10.343,9 12,9 C13.657,9 15,10.343 15,12 C15,13.657 13.657,15 12,15 M19.1,10.18 L18.105,10.081 C17.993,9.722 17.848,9.375 17.673,9.041 L18.307,8.267 C18.632,7.87 18.603,7.29 18.24,6.927 L17.074,5.76 C16.709,5.396 16.131,5.369 15.733,5.693 L14.959,6.327 C14.626,6.152 14.278,6.008 13.919,5.896 L13.82,4.901 C13.769,4.39 13.338,4 12.825,4 L11.176,4 C10.662,4 10.232,4.39 10.181,4.901 L10.081,5.896 C9.722,6.008 9.375,6.152 9.041,6.327 L8.267,5.693 C7.87,5.369 7.291,5.396 6.927,5.76 L5.761,6.927 C5.397,7.29 5.368,7.87 5.693,8.267 L6.327,9.041 C6.152,9.375 6.008,9.722 5.896,10.081 L4.9,10.18 C4.39,10.231 4,10.662 4,11.175 L4,12.825 C4,13.339 4.39,13.769 4.9,13.82 L5.896,13.92 C6.008,14.278 6.152,14.626 6.327,14.96 L5.693,15.734 C5.368,16.132 5.397,16.711 5.761,17.074 L6.927,18.24 C7.29,18.603 7.871,18.632 8.267,18.308 L9.041,17.674 C9.375,17.849 9.723,17.993 10.082,18.105 L10.181,19.1 C10.232,19.61 10.662,20 11.176,20 L12.825,20 C13.338,20 13.769,19.61 13.82,19.1 L13.919,18.105 C14.278,17.993 14.625,17.849 14.959,17.674 L15.733,18.308 C16.13,18.632 16.71,18.603 17.074,18.24 L18.24,17.074 C18.603,16.711 18.632,16.132 18.307,15.734 L17.673,14.96 C17.848,14.626 17.993,14.278 18.105,13.92 L19.1,13.82 C19.611,13.769 20,13.339 20,12.825 L20,11.175 C20,10.662 19.611,10.231 19.1,10.18"></path>
        </g>
    </g>
</svg>
