<svg width="24px" height="24px" viewBox="0 0 24 24">
    <g stroke="none" stroke-width="1" fill="none" fill-rule="evenodd">
        <g transform="translate(0.000000, 1.000000)">
            <path d="M11.9998,6 C9.2388,6 6.9998,8.239 6.9998,11 C6.9998,13.762 9.2388,16 11.9998,16 C14.7618,16 16.9998,13.762 16.9998,11 C16.9998,8.239 14.7618,6 11.9998,6 M11.9998,8 C13.6538,8 14.9998,9.346 14.9998,11 C14.9998,12.654 13.6538,14 11.9998,14 C10.3458,14 8.9998,12.654 8.9998,11 C8.9998,9.346 10.3458,8 11.9998,8" fill="currentColor"></path>
            <path d="M16.7914,4 L18.8614,2.305 L20.6944,4.138 L18.9994,6.209 C19.6544,7.163 20.1184,8.257 20.3384,9.438 L22.9994,9.704 L22.9994,12.296 L20.3384,12.562 C20.1184,13.742 19.6544,14.837 18.9994,15.791 L20.6944,17.861 L18.8614,19.694 L16.7914,18 C15.8384,18.653 14.7464,19.117 13.5684,19.337 L13.5624,19.337 L13.2964,22 L10.7044,22 L10.4384,19.338 C9.2574,19.118 8.1634,18.654 7.2084,18 L5.1384,19.694 L3.3054,17.861 L4.9994,15.791 C4.3454,14.837 3.8814,13.742 3.6614,12.562 L0.9994,12.296 L0.9994,9.704 L3.6614,9.438 C3.8814,8.257 4.3454,7.163 4.9994,6.209 L3.3054,4.138 L5.1384,2.305 L7.2084,4 C8.1634,3.346 9.2574,2.881 10.4384,2.662 L10.7044,0 L13.2964,0 L13.5624,2.662 C14.7424,2.881 15.8374,3.346 16.7914,4 Z" stroke="currentColor" stroke-width="2" stroke-linecap="round" stroke-linejoin="round"></path>
        </g>
    </g>
</svg>
