<svg width="24px" height="24px" viewBox="0 0 24 24">
    <g stroke="none" stroke-width="1" fill="none" fill-rule="evenodd">
        <g>
            <g transform="translate(5.000000, 4.000000)">
                <path d="M11,5.0002 C9.897,5.0002 9,4.1032 9,3.0002 C9,1.8972 9.897,1.0002 11,1.0002 C12.103,1.0002 13,1.8972 13,3.0002 C13,4.1032 12.103,5.0002 11,5.0002" fill="currentColor"></path>
                <path d="M11,0.0002 C9.343,0.0002 8,1.3432 8,3.0002 C8,4.6572 9.343,6.0002 11,6.0002 C12.657,6.0002 14,4.6572 14,3.0002 C14,1.3432 12.657,0.0002 11,0.0002 M11,2.0002 C11.551,2.0002 12,2.4482 12,3.0002 C12,3.5512 11.551,4.0002 11,4.0002 C10.449,4.0002 10,3.5512 10,3.0002 C10,2.4482 10.449,2.0002 11,2.0002" fill="currentColor"></path>
                <path d="M3,14.9997 C1.897,14.9997 1,14.1027 1,12.9997 C1,11.8967 1.897,10.9997 3,10.9997 C4.103,10.9997 5,11.8967 5,12.9997 C5,14.1027 4.103,14.9997 3,14.9997" fill="currentColor"></path>
                <path d="M3,9.9997 C1.343,9.9997 0,11.3437 0,12.9997 C0,14.6567 1.343,15.9997 3,15.9997 C4.657,15.9997 6,14.6567 6,12.9997 C6,11.3437 4.657,9.9997 3,9.9997 M3,11.9997 C3.551,11.9997 4,12.4487 4,12.9997 C4,13.5517 3.551,13.9997 3,13.9997 C2.449,13.9997 2,13.5517 2,12.9997 C2,12.4487 2.449,11.9997 3,11.9997" fill="currentColor"></path>
                <path d="M8.7427,3.0002 L3.4997,3.0002 C2.1187,3.0002 0.9997,4.1192 0.9997,5.5002 C0.9997,6.8802 2.1187,8.0002 3.4997,8.0002 L10.4997,8.0002 C11.8807,8.0002 13.0007,9.1192 13.0007,10.5002 C13.0007,11.8802 11.8807,13.0002 10.4997,13.0002 L7.9997,13.0002" stroke="currentColor" stroke-width="2" stroke-linecap="round" stroke-linejoin="round"></path>
                <path d="M8,12.9997 L10,10.9997" stroke="currentColor" stroke-width="2" stroke-linecap="round" stroke-linejoin="round"></path>
                <path d="M8,12.9997 L10,14.9997" stroke="currentColor" stroke-width="2" stroke-linecap="round" stroke-linejoin="round"></path>
            </g>
        </g>
    </g>
</svg>
