<svg width="24px" height="24px" viewBox="0 0 24 24">
    <g stroke="none" stroke-width="1" fill="none" fill-rule="evenodd" fill="currentColor">
        <g transform="translate(1.000000, 0.000000)">
            <path d="M4,16 C1.791,16 0,17.791 0,20 C0,22.209 1.791,24 4,24 C6.209,24 8,22.209 8,20 C8,17.791 6.209,16 4,16 M4,18 C5.103,18 6,18.897 6,20 C6,21.103 5.103,22 4,22 C2.897,22 2,21.103 2,20 C2,18.897 2.897,18 4,18"></path>
            <path d="M18,2 C19.103,2 20,2.897 20,4 C20,5.103 19.103,6 18,6 C16.897,6 16,5.103 16,4 C16,2.897 16.897,2 18,2 M17,11 L5,11 C3.346,11 2,9.654 2,8 C2,6.346 3.346,5 5,5 L14.142,5 C14.588,6.722 16.139,8 18,8 C20.209,8 22,6.209 22,4 C22,1.791 20.209,0 18,0 C16.139,0 14.588,1.278 14.142,3 L5,3 C2.243,3 0,5.243 0,8 C0,10.757 2.243,13 5,13 L17,13 C18.654,13 20,14.346 20,16 C20,17.654 18.654,19 17,19 L12.422,19 L13.709,17.705 C14.099,17.313 14.097,16.68 13.705,16.291 C13.313,15.901 12.681,15.904 12.291,16.295 L9.309,19.295 C9.254,19.35 9.226,19.418 9.187,19.48 C9.156,19.529 9.113,19.572 9.092,19.624 C9.067,19.686 9.066,19.751 9.054,19.816 C9.042,19.878 9.019,19.937 9.019,20 C9.019,20.062 9.042,20.122 9.054,20.184 C9.066,20.249 9.067,20.314 9.092,20.376 C9.113,20.428 9.156,20.471 9.187,20.52 C9.226,20.582 9.254,20.65 9.309,20.705 L12.291,23.705 C12.486,23.901 12.743,24 13,24 C13.255,24 13.51,23.903 13.705,23.709 C14.097,23.32 14.099,22.687 13.709,22.295 L12.422,21 L17,21 C19.757,21 22,18.757 22,16 C22,13.243 19.757,11 17,11"></path>
        </g>
    </g>
</svg>
