<svg xmlns="http://www.w3.org/2000/svg" width="24" height="24" viewBox="0 0 24 24">
  <path d="M21.49,5.3A2,2,0,0,0,19.61,4H18V3a2,2,0,0,0-2-2H2A2,2,0,0,0,0,3V17a2,2,0,0,0,2,2H3a4.06,4.06,0,0,0,.31,1.56,4.13,4.13,0,0,0,.86,1.27,4.65,4.65,0,0,0,.59.49,4.22,4.22,0,0,0,1.43.6A4.28,4.28,0,0,0,7,23H7a4,4,0,0,0,4-4h2a4.06,4.06,0,0,0,.31,1.56,4.13,4.13,0,0,0,.86,1.27,4.65,4.65,0,0,0,.59.49,4.22,4.22,0,0,0,1.43.6,4.14,4.14,0,0,0,1.62,0,4.22,4.22,0,0,0,1.43-.6,4.65,4.65,0,0,0,.59-.49,4.13,4.13,0,0,0,.86-1.27A4.06,4.06,0,0,0,21,19h1a2,2,0,0,0,2-2V12ZM19.61,6l1.32,3.5H18V6h1.61ZM5,19a2,2,0,1,1,2,2A2,2,0,0,1,5,19Zm12,2a2,2,0,1,1,2-2A2,2,0,0,1,17,21ZM16,4.22V10.5a1,1,0,0,0,1,1h4.68l.32.86V17H20.45a4,4,0,0,0-6.9,0h-3.1a4,4,0,0,0-6.9,0H2V3H16V4.22Z" fill="currentColor"/>
</svg>
