<svg xmlns="http://www.w3.org/2000/svg" width="16" height="16" viewBox="0 0 16 16">
  <g>
    <path d="M8.23,14a2,2,0,0,0,1.11-3.51A2,2,0,0,0,10,9V6A2,2,0,0,0,6,6V9a2,2,0,0,0,.67,1.48A2,2,0,0,0,7.79,14H1.3A.3.3,0,0,1,1,13.85a.27.27,0,0,1,0-.3L8,2l7,11.55a.29.29,0,0,1,0,.3.3.3,0,0,1-.26.15Z" fill="currentColor"/>
    <path d="M11,8.91,13.48,13H10.85A3,3,0,0,0,11,12a3,3,0,0,0-.41-1.51A2.88,2.88,0,0,0,11,9v-.1m-6,0V9a2.88,2.88,0,0,0,.4,1.48A3,3,0,0,0,5,12a3,3,0,0,0,.17,1H2.54L5,8.91M8,1a1,1,0,0,0-.86.49L.18,13A1.3,1.3,0,0,0,1.3,15H14.72a1.3,1.3,0,0,0,1.11-2l-7-11.54A1,1,0,0,0,8,1Zm0,9A1,1,0,0,1,7,9V6A1,1,0,0,1,9,6V9a1,1,0,0,1-1,1Zm0,3a1,1,0,1,1,1-1,1,1,0,0,1-1,1Z" fill="currentColor"/>
  </g>
</svg>
