<svg xmlns="http://www.w3.org/2000/svg" width="74" height="98" viewBox="0 0 74 98">
    <g fill="none" fill-rule="evenodd">
        <path stroke="currentColor" stroke-width="2" d="M54.526 70.168l-12.5-20.59a6.307 6.307 0 0 0-5.432-3.058 6.307 6.307 0 0 0-5.432 3.057l-12.5 20.592a6.365 6.365 0 0 0-.107 6.414 6.365 6.365 0 0 0 5.54 3.238h25a6.363 6.363 0 0 0 5.537-3.238 6.365 6.365 0 0 0-.106-6.415z"/>
        <path fill="currentColor" d="M34.907 74.747c-.445-.456-.668-1.023-.668-1.703 0-.678.223-1.246.668-1.702.446-.456 1.008-.684 1.687-.684.68 0 1.242.228 1.687.684.445.456.668 1.024.668 1.702 0 .68-.223 1.247-.668 1.703-.445.457-1.008.684-1.687.684s-1.24-.227-1.687-.684m.875-6.317c-.222-.212-.355-.52-.397-.923l-1.178-12.38-.03-.318c0-.658.226-1.183.682-1.576.456-.392 1.035-.588 1.735-.588.7 0 1.278.196 1.735.588.455.393.683.918.683 1.576l-.03.35-1.179 12.348c-.042.403-.174.711-.397.923a1.136 1.136 0 0 1-.812.318c-.318 0-.588-.106-.812-.318"/>
        <g stroke="currentColor" stroke-width="2">
            <path d="M1 31.272h28.264a2.007 2.007 0 0 0 2.007-2.008V1"/>
            <path d="M22.89 96.14H3.01a2.009 2.009 0 0 1-2.01-2.009V32.098c0-.529.211-1.037.586-1.41L30.688 1.583A1.996 1.996 0 0 1 32.097 1H70.18c1.108 0 2.008.9 2.008 2.008v91.123c0 1.11-.9 2.008-2.008 2.008H22.89z"/>
        </g>
        <g stroke="currentColor" stroke-width="2">
            <path d="M1 31.272h28.264a2.007 2.007 0 0 0 2.007-2.008V1"/>
            <path d="M22.89 96.14H3.01a2.009 2.009 0 0 1-2.01-2.009V32.098c0-.529.211-1.037.586-1.41L30.688 1.583A1.996 1.996 0 0 1 32.097 1H70.18c1.108 0 2.008.9 2.008 2.008v91.123c0 1.11-.9 2.008-2.008 2.008H22.89z"/>
        </g>
    </g>
</svg>
