<svg xmlns="http://www.w3.org/2000/svg" width="209" height="217" viewBox="0 0 209 217">
    <g fill="none" fill-rule="evenodd" stroke="#D5E2EF" stroke-linecap="round" stroke-linejoin="round" stroke-width="2.5">
        <path d="M108.187 62.376a42.35 42.35 0 0 0-1.821-2.988"/>
        <path stroke-dasharray="7.208,7.208" d="M101.882 53.757C94.118 45.533 83.114 40.4 70.912 40.4c-23.519 0-42.584 19.066-42.584 42.585v53.42"/>
        <path d="M28.328 140.003v3.5M175.785 28.394c0-1.184-.077-2.35-.224-3.493"/>
        <path stroke-dasharray="7.286,7.286" d="M173.675 17.885C169.568 8.113 159.905 1.25 148.64 1.25c-14.99 0-27.143 12.153-27.143 27.144V81.42"/>
        <path d="M121.497 85.069v3.5-5.583M18.187 155.643h-6.565c-.41 0-.8.178-1.07.487L1.604 168.4c-.228.26-.354.591-.354.93v10.288c0 .78.638 1.42 1.42 1.42h2.687a4.934 4.934 0 0 1 4.927-4.613 4.93 4.93 0 0 1 4.927 4.612h15.681a4.933 4.933 0 0 1 4.926-4.612 4.93 4.93 0 0 1 4.928 4.612h2.041c.78 0 1.411-.632 1.411-1.41v-22.58a4.257 4.257 0 0 0-4.257-4.257H22.636a4.257 4.257 0 0 0-4.257 4.257v7.69H4.792"/>
        <path d="M30.876 181.369a4.941 4.941 0 0 0 4.943 4.942 4.937 4.937 0 0 0 4.943-4.942c0-.11 0-.221-.016-.332a4.929 4.929 0 0 0-4.927-4.612 4.935 4.935 0 0 0-4.927 4.612c-.016.11-.016.221-.016.332zM5.342 181.369a4.941 4.941 0 0 0 4.943 4.942 4.936 4.936 0 0 0 4.942-4.942c0-.11 0-.221-.015-.332a4.93 4.93 0 0 0-4.927-4.612 4.934 4.934 0 0 0-4.927 4.612c-.016.11-.016.221-.016.332zM190.036 40.97h6.565c.41 0 .8.177 1.07.486l8.947 12.271c.229.26.355.591.355.93v10.288c0 .78-.638 1.42-1.42 1.42h-2.687a4.935 4.935 0 0 0-4.928-4.613 4.929 4.929 0 0 0-4.926 4.612H177.33a4.934 4.934 0 0 0-4.927-4.612 4.93 4.93 0 0 0-4.927 4.612h-2.042a1.411 1.411 0 0 1-1.411-1.41V42.372a4.257 4.257 0 0 1 4.258-4.257h17.305a4.257 4.257 0 0 1 4.257 4.257v7.691h13.587"/>
        <path d="M177.347 66.695a4.941 4.941 0 0 1-4.943 4.943 4.937 4.937 0 0 1-4.943-4.943c0-.11 0-.22.016-.33a4.93 4.93 0 0 1 4.927-4.613 4.934 4.934 0 0 1 4.927 4.612c.016.11.016.221.016.331zM202.882 66.695a4.942 4.942 0 0 1-4.943 4.943 4.936 4.936 0 0 1-4.943-4.943c0-.11 0-.22.016-.33a4.929 4.929 0 0 1 4.927-4.613 4.935 4.935 0 0 1 4.927 4.612c.016.11.016.221.016.331zM169.745 163.847c0 28.347-22.98 51.327-51.327 51.327-28.346 0-51.326-22.98-51.326-51.327 0-28.347 22.98-51.327 51.326-51.327 28.347 0 51.327 22.98 51.327 51.328z"/>
        <path d="M109.808 112.52V99.04h17.22v13.482M137.243 99.039h-37.65M125.013 163.847a6.594 6.594 0 1 1-13.189 0 6.595 6.595 0 1 1 13.189 0zM123.772 158.494l8.855-8.856M163.334 120.856l-12.197-12.197 5.772-5.772 12.197 12.197zM156.804 115.19l-6.608 6.607M118.418 122.144v5.7M147.906 134.359l-4.03 4.03M160.121 163.847h-5.7M147.906 193.336l-4.03-4.03M118.418 205.55v-5.699M88.93 193.336l4.03-4.03M76.715 163.847h5.7M88.93 134.359l4.03 4.03"/>
    </g>
</svg>
