<svg xmlns="http://www.w3.org/2000/svg" width="28" height="22" viewBox="0 0 28 22">
    <g fill="none" fill-rule="evenodd" stroke="#ABBEC7" stroke-linecap="round" stroke-linejoin="round" stroke-width="2">
        <path d="M16.51 3.37h3.73a.81.81 0 0 1 .61.28l5.07 7a.82.82 0 0 1 .21.53v5.84a.81.81 0 0 1-.81.8h-1.53a2.8 2.8 0 0 0-5.59 0H9.3a2.8 2.8 0 0 0-5.59 0H2.55a.8.8 0 0 1-.8-.8V4.21a2.42 2.42 0 0 1 2.42-2.46h9.82a2.41 2.41 0 0 1 2.41 2.46v4.36h7.71"/>
        <path d="M9.31 17.97a2.81 2.81 0 1 1-5.61 0 1.28 1.28 0 0 1 0-.19 2.8 2.8 0 0 1 5.59 0c.011.063.018.126.02.19zM23.8 17.97a2.81 2.81 0 1 1-5.61 0 1.28 1.28 0 0 1 0-.19 2.8 2.8 0 0 1 5.59 0c.011.063.018.126.02.19z"/>
    </g>
</svg>
