<svg width="24" height="24" viewBox="0 0 68 68" focusable="false" role="presentation">
	<path fill="#ffffff" opacity="0.05" d="M34,32.3c-3.7,0-6.7-2.9-6.7-6.5c0-3.6,3-6.5,6.7-6.5c3.7,0,6.7,2.9,6.7,6.5C40.7,29.3,37.7,32.3,34,32.3z"/>
    <ellipse fill="#000000" opacity="0.05" cx="34" cy="56.9" rx="12.6" ry="3"/>
    <path fill="currentColor" d="M34,8.1c-9.4,0-18,8.1-18,17.6c0,13.5,13.5,16.6,18,31.4c4.5-14.8,18-17.8,18-31.4C52,16.3,43.4,8.1,34,8.1zM34,31.6c-3.3,0-6-2.6-6-5.9c0-3.2,2.7-5.9,6-5.9c3.3,0,6,2.6,6,5.9C40,29,37.3,31.6,34,31.6z"/>
</svg>
