
<svg width="16px" height="16px" viewBox="0 0 16 16" version="1.1" xmlns="http://www.w3.org/2000/svg" xmlns:xlink="http://www.w3.org/1999/xlink">
    <!-- Generator: Sketch 50.2 (55047) - http://www.bohemiancoding.com/sketch -->
    <desc>Created with Sketch.</desc>
    <defs></defs>
    <g id="Design-3" stroke="none" stroke-width="1" fill="none" fill-rule="evenodd">
        <g id="Ruteoptimering---Overblik-(Vis-mindre)" transform="translate(-1803.000000, -901.000000)" fill="#333333">
            <g id="Control-panel" transform="translate(240.000000, 884.000000)">
                <g id="Oversigt">
                    <g id="List" transform="translate(1563.000000, 17.000000)">
                        <g id="Collapse">
                            <g id="noun_801720">
                                <g>
                                    <path d="M3.35134658,11.3948571 C3.35134658,11.3948571 1.92254305,11.3948571 0.969465784,11.3948571 C0.74807947,11.3948929 0.535735099,11.3059643 0.379196468,11.1476429 C0.222657837,10.9893571 0.134710817,10.7746786 0.134710817,10.5508214 C0.134710817,10.5507143 0.134710817,10.5506071 0.134710817,10.5504643 C0.134710817,10.3266071 0.222657837,10.1119286 0.379196468,9.95364286 C0.535735099,9.79535714 0.74807947,9.70642857 0.969465784,9.70642857 C2.22467108,9.70642857 4.54308168,9.70642857 5.40644592,9.70642857 C5.62126269,9.70642857 5.82732009,9.79271429 5.97919647,9.94632143 C5.97923179,9.94632143 5.97923179,9.94632143 5.97923179,9.94632143 C6.13114349,10.0999286 6.21647682,10.30825 6.21647682,10.5255 C6.21647682,11.3985 6.21647682,13.7427857 6.21647682,15.012 C6.21647682,15.2358571 6.1285298,15.4505357 5.97199117,15.6088571 C5.81545254,15.7671429 5.60310817,15.8560714 5.38172185,15.8560714 C5.38161589,15.8560714 5.38150993,15.8560714 5.38140397,15.8560714 C5.16001766,15.8560714 4.94767329,15.7671429 4.79113466,15.6088571 C4.63459603,15.4505357 4.54664901,15.2358571 4.54664901,15.012 C4.54664901,14.0482857 4.54664901,12.6035357 4.54664901,12.6035357 C4.54664901,12.6035357 2.5055011,14.6674643 1.46309934,15.7215 C1.13313907,16.0551429 0.598145695,16.0551429 0.26818543,15.7215 C0.26807947,15.7213571 0.26793819,15.7212143 0.267796909,15.7210714 C-0.0621633554,15.3874286 -0.0621633554,14.8465 0.267796909,14.5128214 C1.31019868,13.4587857 3.35134658,11.3948571 3.35134658,11.3948571 Z" id="Shape"></path>
                                    <path d="M3.35134658,4.58925 C3.35134658,4.58925 1.92254305,4.58925 0.969465784,4.58925 C0.74807947,4.58925 0.535735099,4.67817857 0.379196468,4.83646429 C0.222657837,4.99475 0.134710817,5.20942857 0.134710817,5.43328571 C0.134710817,5.43342857 0.134710817,5.43353571 0.134710817,5.43364286 C0.134710817,5.6575 0.222657837,5.87217857 0.379196468,6.03046429 C0.535735099,6.18878571 0.74807947,6.27767857 0.969465784,6.27767857 C2.22467108,6.27767857 4.54308168,6.27767857 5.40644592,6.27767857 C5.62126269,6.27767857 5.82732009,6.19139286 5.97919647,6.03782143 C5.97923179,6.03778571 5.97923179,6.03778571 5.97923179,6.03778571 C6.13114349,5.88417857 6.21647682,5.67585714 6.21647682,5.45864286 C6.21647682,4.58564286 6.21647682,2.24132143 6.21647682,0.972107143 C6.21647682,0.74825 6.1285298,0.533571429 5.97199117,0.375285714 C5.81545254,0.217 5.60310817,0.128071429 5.38172185,0.128071429 C5.38161589,0.128071429 5.38150993,0.128071429 5.38140397,0.128071429 C5.16001766,0.128071429 4.94767329,0.217 4.79113466,0.375285714 C4.63459603,0.533571429 4.54664901,0.74825 4.54664901,0.972107143 C4.54664901,1.93582143 4.54664901,3.38060714 4.54664901,3.38060714 C4.54664901,3.38060714 2.5055011,1.31667857 1.46309934,0.262642857 C1.13313907,-0.071 0.598145695,-0.071 0.26818543,0.262642857 C0.26807947,0.262785714 0.26793819,0.262892857 0.267796909,0.263035714 C-0.0621633554,0.596678571 -0.0621633554,1.13764286 0.267796909,1.47128571 C1.31019868,2.52532143 3.35134658,4.58925 3.35134658,4.58925 Z" id="Shape"></path>
                                    <path d="M12.6682561,11.3948571 C12.6682561,11.3948571 14.0970949,11.3948571 15.0501722,11.3948571 C15.2715585,11.3948929 15.4838675,11.3059643 15.6404062,11.1476429 C15.7969448,10.9893571 15.8848918,10.7746786 15.8848918,10.5508214 C15.8848918,10.5507143 15.8848918,10.5506071 15.8848918,10.5504643 C15.8848918,10.3266071 15.7969448,10.1119286 15.6404062,9.95364286 C15.4838675,9.79535714 15.2715585,9.70642857 15.0501722,9.70642857 C13.7949669,9.70642857 11.4765563,9.70642857 10.6131567,9.70642857 C10.39834,9.70642857 10.1923179,9.79271429 10.0404062,9.94632143 C10.0404062,9.94632143 10.0404062,9.94632143 10.0404062,9.94632143 C9.88849448,10.0999286 9.80316115,10.30825 9.80316115,10.5255 C9.80316115,11.3985 9.80316115,13.7427857 9.80316115,15.012 C9.80316115,15.2358571 9.89110817,15.4505357 10.0476468,15.6088571 C10.2041854,15.7671429 10.4164945,15.8560714 10.6378808,15.8560714 C10.6379868,15.8560714 10.638128,15.8560714 10.638234,15.8560714 C10.8596203,15.8560714 11.0719294,15.7671429 11.228468,15.6088571 C11.3850066,15.4505357 11.4729536,15.2358571 11.4729536,15.012 C11.4729536,14.0482857 11.4729536,12.6035357 11.4729536,12.6035357 C11.4729536,12.6035357 13.5141015,14.6674643 14.5565033,15.7215 C14.8864636,16.0551429 15.421457,16.0551429 15.7514172,15.7215 C15.7515585,15.7213571 15.7516998,15.7212143 15.7518057,15.7210714 C16.0818013,15.3874286 16.0818013,14.8465 15.7518057,14.5128214 C14.709404,13.4587857 12.6682561,11.3948571 12.6682561,11.3948571 Z" id="Shape"></path>
                                    <path d="M12.6682561,4.58925 C12.6682561,4.58925 14.0970949,4.58925 15.0501722,4.58925 C15.2715585,4.58925 15.4838675,4.67817857 15.6404062,4.83646429 C15.7969448,4.99475 15.8848918,5.20942857 15.8848918,5.43328571 C15.8848918,5.43342857 15.8848918,5.43353571 15.8848918,5.43364286 C15.8848918,5.6575 15.7969448,5.87217857 15.6404062,6.03046429 C15.4838675,6.18878571 15.2715585,6.27767857 15.0501722,6.27767857 C13.7949669,6.27767857 11.4765563,6.27767857 10.6131567,6.27767857 C10.39834,6.27767857 10.1923179,6.19139286 10.0404062,6.03782143 C10.0404062,6.03778571 10.0404062,6.03778571 10.0404062,6.03778571 C9.88849448,5.88417857 9.80316115,5.67585714 9.80316115,5.45864286 C9.80316115,4.58564286 9.80316115,2.24132143 9.80316115,0.972107143 C9.80316115,0.74825 9.89110817,0.533571429 10.0476468,0.375285714 C10.2041854,0.217 10.4164945,0.128071429 10.6378808,0.128071429 C10.6379868,0.128071429 10.638128,0.128071429 10.638234,0.128071429 C10.8596203,0.128071429 11.0719294,0.217 11.228468,0.375285714 C11.3850066,0.533571429 11.4729536,0.74825 11.4729536,0.972107143 C11.4729536,1.93582143 11.4729536,3.38060714 11.4729536,3.38060714 C11.4729536,3.38060714 13.5141015,1.31667857 14.5565033,0.262642857 C14.8864636,-0.071 15.421457,-0.071 15.7514172,0.262642857 C15.7515585,0.262785714 15.7516998,0.262892857 15.7518057,0.263035714 C16.0818013,0.596678571 16.0818013,1.13764286 15.7518057,1.47128571 C14.709404,2.52532143 12.6682561,4.58925 12.6682561,4.58925 Z" id="Shape"></path>
                                </g>
                            </g>
                        </g>
                    </g>
                </g>
            </g>
        </g>
    </g>
</svg>