
<svg width="16px" height="16px" viewBox="0 0 16 16" version="1.1" xmlns="http://www.w3.org/2000/svg" xmlns:xlink="http://www.w3.org/1999/xlink">
    <!-- Generator: Sketch 50.2 (55047) - http://www.bohemiancoding.com/sketch -->
    <desc>Created with Sketch.</desc>
    <defs></defs>
    <g id="Design-3" stroke="none" stroke-width="1" fill="none" fill-rule="evenodd">
        <g id="Ruteoptimering---Overblik-(Vis-mindre)" transform="translate(-1715.000000, -901.000000)" fill="#333333">
            <g id="Control-panel" transform="translate(240.000000, 884.000000)">
                <g id="Oversigt">
                    <g id="Grid" transform="translate(1475.000000, 17.000000)">
                        <g id="Expand">
                            <g id="noun_801717">
                                <g>
                                    <path d="M2.76651163,14.3535385 C2.76651163,14.3535385 4.13493446,14.3535385 5.04771247,14.3535385 C5.25973784,14.3535385 5.46306977,14.4386667 5.61298943,14.590188 C5.76290909,14.7417094 5.84713742,14.9472137 5.84713742,15.1615043 C5.84713742,15.1616068 5.84713742,15.1617436 5.84713742,15.1618462 C5.84713742,15.3761368 5.76290909,15.581641 5.61298943,15.7331624 C5.46306977,15.8846838 5.25973784,15.969812 5.04771247,15.969812 C3.8455814,15.969812 1.62516702,15.969812 0.798308668,15.969812 C0.592575053,15.969812 0.395264271,15.8872137 0.249775899,15.7401709 C0.249775899,15.7401709 0.249775899,15.7401709 0.249775899,15.7401709 C0.104287526,15.5931282 0.0225623679,15.3937094 0.0225623679,15.1857436 C0.0225623679,14.3500513 0.0225623679,12.1059487 0.0225623679,10.8909744 C0.0225623679,10.6766838 0.106790698,10.4711795 0.256710359,10.3196581 C0.406630021,10.1681368 0.609961945,10.0830085 0.821987315,10.0830085 C0.822088795,10.0830085 0.822190275,10.0830085 0.822325581,10.0830085 C1.03435095,10.0830085 1.23768288,10.1681368 1.38760254,10.3196581 C1.5375222,10.4711795 1.62175053,10.6766838 1.62175053,10.8909744 C1.62175053,11.8135043 1.62175053,13.196547 1.62175053,13.196547 C1.62175053,13.196547 3.57659197,11.2208205 4.57491755,10.2118291 C4.890926,9.89241026 5.4032981,9.89241026 5.71930655,10.2118291 C5.71944186,10.2119316 5.71954334,10.2120684 5.71967865,10.2122051 C6.0356871,10.5315897 6.0356871,11.0494359 5.71967865,11.3688205 C4.72135307,12.377812 2.76651163,14.3535385 2.76651163,14.3535385 Z" id="Shape"></path>
                                    <path d="M2.76651163,1.63128205 C2.76651163,1.63128205 4.13493446,1.63128205 5.04771247,1.63128205 C5.25973784,1.63128205 5.46306977,1.54615385 5.61298943,1.39463248 C5.76290909,1.24311111 5.84713742,1.03760684 5.84713742,0.823316239 C5.84713742,0.823179487 5.84713742,0.823076923 5.84713742,0.822974359 C5.84713742,0.608683761 5.76290909,0.403179487 5.61298943,0.251623932 C5.46306977,0.100102564 5.25973784,0.014974359 5.04771247,0.014974359 C3.8455814,0.014974359 1.62516702,0.014974359 0.798308668,0.014974359 C0.592575053,0.014974359 0.395264271,0.0976068376 0.249775899,0.244615385 C0.249775899,0.244649573 0.249775899,0.244649573 0.249775899,0.244649573 C0.104287526,0.391692308 0.0225623679,0.591111111 0.0225623679,0.799042735 C0.0225623679,1.63473504 0.0225623679,3.87887179 0.0225623679,5.09384615 C0.0225623679,5.30813675 0.106790698,5.51364103 0.256710359,5.66516239 C0.406630021,5.81668376 0.609961945,5.90181197 0.821987315,5.90181197 C0.822088795,5.90181197 0.822190275,5.90181197 0.822325581,5.90181197 C1.03435095,5.90181197 1.23768288,5.81668376 1.38760254,5.66516239 C1.5375222,5.51364103 1.62175053,5.30813675 1.62175053,5.09384615 C1.62175053,4.17131624 1.62175053,2.7882735 1.62175053,2.7882735 C1.62175053,2.7882735 3.57659197,4.764 4.57491755,5.77299145 C4.890926,6.09237607 5.4032981,6.09237607 5.71930655,5.77299145 C5.71944186,5.7728547 5.71954334,5.77275214 5.71967865,5.77261538 C6.0356871,5.45323077 6.0356871,4.93538462 5.71967865,4.616 C4.72135307,3.60700855 2.76651163,1.63128205 2.76651163,1.63128205 Z" id="Shape"></path>
                                    <path d="M13.2522622,14.3535385 C13.2522622,14.3535385 11.8838732,14.3535385 10.9710951,14.3535385 C10.7590698,14.3535385 10.5557378,14.4386667 10.4057844,14.590188 C10.2558647,14.7417094 10.1716364,14.9472137 10.1716364,15.1615043 C10.1716364,15.1616068 10.1716364,15.1617436 10.1716364,15.1618462 C10.1716364,15.3761368 10.2558647,15.581641 10.4057844,15.7331624 C10.5557378,15.8846838 10.7590698,15.969812 10.9710951,15.969812 C12.1732262,15.969812 14.3936068,15.969812 15.2204651,15.969812 C15.4262326,15.969812 15.6235433,15.8872137 15.7690317,15.7401709 C15.7690317,15.7401709 15.7690317,15.7401709 15.7690317,15.7401709 C15.9145201,15.5931282 15.9962452,15.3937094 15.9962452,15.1857436 C15.9962452,14.3500513 15.9962452,12.1059487 15.9962452,10.8909744 C15.9962452,10.6766838 15.9120169,10.4711795 15.7620973,10.3196581 C15.6121776,10.1681368 15.4088457,10.0830085 15.1968203,10.0830085 C15.196685,10.0830085 15.1965835,10.0830085 15.196482,10.0830085 C14.9844567,10.0830085 14.7811247,10.1681368 14.6311712,10.3196581 C14.4812516,10.4711795 14.3970233,10.6766838 14.3970233,10.8909744 C14.3970233,11.8135043 14.3970233,13.196547 14.3970233,13.196547 C14.3970233,13.196547 12.4422156,11.2208205 11.4438901,10.2118291 C11.1278478,9.89241026 10.6155095,9.89241026 10.2995011,10.2118291 C10.2993658,10.2119316 10.2992304,10.2120684 10.2990951,10.2122051 C9.98308668,10.5315897 9.98308668,11.0494359 10.2990951,11.3688205 C11.2974207,12.377812 13.2522622,14.3535385 13.2522622,14.3535385 Z" id="Shape"></path>
                                    <path d="M13.2522622,1.63128205 C13.2522622,1.63128205 11.8838732,1.63128205 10.9710951,1.63128205 C10.7590698,1.63128205 10.5557378,1.54615385 10.4057844,1.39463248 C10.2558647,1.24311111 10.1716364,1.03760684 10.1716364,0.823316239 C10.1716364,0.823179487 10.1716364,0.823076923 10.1716364,0.822974359 C10.1716364,0.608683761 10.2558647,0.403179487 10.4057844,0.251623932 C10.5557378,0.100102564 10.7590698,0.014974359 10.9710951,0.014974359 C12.1732262,0.014974359 14.3936068,0.014974359 15.2204651,0.014974359 C15.4262326,0.014974359 15.6235433,0.0976068376 15.7690317,0.244615385 C15.7690317,0.244649573 15.7690317,0.244649573 15.7690317,0.244649573 C15.9145201,0.391692308 15.9962452,0.591111111 15.9962452,0.799042735 C15.9962452,1.63473504 15.9962452,3.87887179 15.9962452,5.09384615 C15.9962452,5.30813675 15.9120169,5.51364103 15.7620973,5.66516239 C15.6121776,5.81668376 15.4088457,5.90181197 15.1968203,5.90181197 C15.196685,5.90181197 15.1965835,5.90181197 15.196482,5.90181197 C14.9844567,5.90181197 14.7811247,5.81668376 14.6311712,5.66516239 C14.4812516,5.51364103 14.3970233,5.30813675 14.3970233,5.09384615 C14.3970233,4.17131624 14.3970233,2.7882735 14.3970233,2.7882735 C14.3970233,2.7882735 12.4422156,4.764 11.4438901,5.77299145 C11.1278478,6.09237607 10.6155095,6.09237607 10.2995011,5.77299145 C10.2993658,5.7728547 10.2992304,5.77275214 10.2990951,5.77261538 C9.98308668,5.45323077 9.98308668,4.93538462 10.2990951,4.616 C11.2974207,3.60700855 13.2522622,1.63128205 13.2522622,1.63128205 Z" id="Shape"></path>
                                </g>
                            </g>
                        </g>
                    </g>
                </g>
            </g>
        </g>
    </g>
</svg>