<?xml version="1.0" encoding="UTF-8"?>
<svg width="175px" height="226px" viewBox="0 0 175 226" version="1.1" xmlns="http://www.w3.org/2000/svg" xmlns:xlink="http://www.w3.org/1999/xlink">
    <!-- Generator: Sketch 52.6 (67491) - http://www.bohemiancoding.com/sketch -->
    <title>Coop C - white</title>
    <desc>Created with Sketch.</desc>
    <g id="Designguide---colors---fonts---forms" stroke="none" stroke-width="1" fill="none" fill-rule="evenodd">
        <g id="Coop-C---white" fill="#FFFFFF">
            <g id="Coop-logo.eps-Copy-2">
                <path d="M149.272054,132.749097 C140.653071,135.109888 130.935589,136.407911 121.193376,136.407911 C92.8921138,136.407911 67.4906383,118.576096 67.4906383,91.1484093 C67.4906383,61.4239037 89.2627428,43.5962167 117.564005,43.5962167 C128.347009,43.5962167 136.656847,44.2214961 145.166599,47.2839209 C145.164538,47.2839209 154.919116,25.9810834 171.289414,13.7024936 C168.156737,12.2269991 164.855061,10.7803955 161.322555,9.33379192 C146.54951,2.91797077 129.309483,0 109.944593,0 C47.532189,0 2.22430769e-11,33.0201204 2.22430769e-11,90.1702494 C2.22430769e-11,146.97988 47.532189,180 109.944593,180 C126.42,180 144.801807,177.616509 160.562057,173.167326 C163.708799,172.413157 175,168.392975 175,168.392975 C160.562057,159.004953 149.272054,132.749097 149.272054,132.749097 Z" id="Fill-3"></path>
            </g>
        </g>
    </g>
</svg>