<?xml version="1.0" encoding="UTF-8"?>
<svg width="910px" height="226px" viewBox="0 0 910 226" version="1.1" xmlns="http://www.w3.org/2000/svg" xmlns:xlink="http://www.w3.org/1999/xlink">
    <!-- Generator: Sketch 52.6 (67491) - http://www.bohemiancoding.com/sketch -->
    <title>Coop logo white</title>
    <desc>Created with Sketch.</desc>
    <g id="Designguide---colors---fonts---forms" stroke="none" stroke-width="1" fill="none" fill-rule="evenodd">
        <g id="Coop-logo-white" fill="#FFFFFF" fill-rule="nonzero">
            <g id="Coop-logo-red">
                <path d="M666.101873,0 C616.753594,0 576.73858,20.6888469 562.158829,57.6256954 C547.579075,20.6888469 507.555821,0 458.211663,0 C414.373531,0 377.907671,16.3305836 360.083626,45.8701526 C342.257521,16.3305836 305.791661,0 261.95765,0 C199.57864,0 152.071883,33.0348506 152.071883,90.2104743 C152.071883,104.60864 155.134908,117.472846 160.700674,128.666831 C159.98178,128.988901 159.269065,129.31097 158.529572,129.622717 C155.693133,130.743768 152.59097,131.80701 149.192186,132.808317 C140.577815,135.170161 130.865533,136.468762 121.128532,136.468762 C92.842412,136.468762 67.4545276,118.628993 67.4545276,91.1890707 C67.4545276,61.451305 89.214983,43.6156649 117.501103,43.6156649 C128.278337,43.6156649 136.583729,44.2412234 145.088927,47.3050144 C145.086867,47.3050144 154.836227,25.9926736 171.197766,13.7086062 C168.066765,12.2324536 164.766855,10.7852047 161.23624,9.33795573 L161.23212,9.37305307 C146.471099,2.91927248 129.240296,0 109.885768,0 C47.5067571,0 0,33.0348506 0,90.2104743 C0,147.045448 47.5067571,180.080298 109.885768,180.080298 C126.35236,180.080298 144.724331,177.695744 160.476148,173.244576 C166.379733,171.828295 180.219992,167.055058 190.340128,161.208254 C209.34242,173.506774 234.1659,180.080298 261.95765,180.080298 C305.791661,180.080298 342.257521,163.749714 360.083626,134.327825 C377.907671,163.749714 414.373531,180.080298 458.211663,180.080298 C501.971517,180.080298 538.39,163.805457 556.249064,134.480601 L556.249064,226 L623.371952,226 L623.371952,174.243818 C636.402684,178.07975 650.797048,180.080298 666.101873,180.080298 C728.485003,180.080298 776,147.045448 776,90.2104743 C776,33.0348506 728.485003,0 666.101873,0 Z M261.95765,138.456923 C231.856785,138.456923 219.53259,115.653978 219.53259,90.2104743 C219.53259,64.4304493 231.856785,41.6295686 261.95765,41.6295686 C292.064695,41.6295686 304.39095,64.4304493 304.39095,90.2104743 C304.39095,115.653978 292.064695,138.456923 261.95765,138.456923 Z M458.211663,138.456923 C428.119037,138.456923 415.780421,115.653978 415.780421,90.2104743 C415.780421,64.4304493 428.119037,41.6295686 458.211663,41.6295686 C488.318707,41.6295686 500.640842,64.4304493 500.640842,90.2104743 C500.640842,115.653978 488.318707,138.456923 458.211663,138.456923 Z M666.101873,138.456923 C636.009248,138.456923 623.670634,115.653978 623.670634,90.2104743 C623.670634,64.4304493 636.009248,41.6295686 666.101873,41.6295686 C696.206857,41.6295686 708.531053,64.4304493 708.531053,90.2104743 C708.531053,115.653978 696.206857,138.456923 666.101873,138.456923 Z" id="Fill-1"></path>
            </g>
        </g>
    </g>
</svg>