<svg xmlns="http://www.w3.org/2000/svg" width="24" height="23" viewBox="0 0 24 23">
    <path fill="currentColor" fill-rule="evenodd" d="M12 0c-.5 0-1.002.288-1.189.864L9.003 6.441a1.998 1.998 0 0 1-1.902 1.383H1.256c-1.214 0-1.719 1.553-.738 2.267l4.735 3.448a2 2 0 0 1 .725 2.233l-1.81 5.585C3.882 22.235 4.58 23 5.36 23c.245 0 .498-.076.732-.246l4.73-3.444a2 2 0 0 1 2.354 0l4.727 3.441c.234.171.487.247.732.247.782 0 1.48-.766 1.196-1.644l-1.81-5.58a1.999 1.999 0 0 1 .726-2.234l4.734-3.448c.981-.714.476-2.267-.737-2.267H16.9a2 2 0 0 1-1.903-1.383L13.19.864A1.227 1.227 0 0 0 12 0"/>
</svg>
