<svg xmlns="http://www.w3.org/2000/svg" width="16" height="16" viewBox="0 0 16 16">
  <g>
    <path d="M8.24,14A2,2,0,0,0,10,12a2,2,0,0,0-.68-1.51A2,2,0,0,0,10,9V6A2,2,0,0,0,6,6V9a2,2,0,0,0,.67,1.47A2,2,0,0,0,7.75,14H1.3A.28.28,0,0,1,1,13.85a.27.27,0,0,1,0-.3L8,2l7,11.53a.31.31,0,0,1,0,.3.28.28,0,0,1-.26.15Z" fill="currentColor"/>
    <path d="M11,8.92,13.46,13H10.84a3,3,0,0,0-.24-2.51A2.94,2.94,0,0,0,11,9v-.1m-6,0V9a2.93,2.93,0,0,0,.39,1.47A3.09,3.09,0,0,0,5,12a3,3,0,0,0,.17,1H2.54L5,8.92M8,1a1,1,0,0,0-.86.48L.18,13A1.3,1.3,0,0,0,1.3,15H14.7a1.3,1.3,0,0,0,1.11-2L8.85,1.5A1,1,0,0,0,8,1Zm0,9A1,1,0,0,1,7,9V6A1,1,0,0,1,9,6V9a1,1,0,0,1-1,1Zm0,3a1,1,0,1,1,1-1,1,1,0,0,1-1,1Z" fill="currentColor"/>
  </g>
</svg>
