<?xml version="1.0" encoding="UTF-8"?>
<svg width="909px" height="169px" viewBox="0 0 909 169" version="1.1" xmlns="http://www.w3.org/2000/svg" xmlns:xlink="http://www.w3.org/1999/xlink">
    <!-- Generator: Sketch 52.6 (67491) - http://www.bohemiancoding.com/sketch -->
    <title>Logo Mover - white</title>
    <desc>Created with Sketch.</desc>
    <g id="Designguide---colors---fonts---forms" stroke="none" stroke-width="1" fill="none" fill-rule="evenodd">
        <g id="Logo-Mover---white" fill="#e0edff">
            <g id="Mover---logo---black">
                <path d="M271.730107,108.949886 L280.521117,76.354645 C281.892514,71.2471787 283.023624,66.2334273 283.914446,61.313391 C284.761926,56.7458536 285.203198,52.1123092 285.233098,47.4670029 C285.233098,32.7303225 281.200955,21.138951 273.136668,12.6928886 C265.072382,4.24682613 253.351036,0.0179377128 237.97263,0.0062233405 C226.822408,-0.14285028 215.799618,2.3882314 205.832699,7.38627791 C196.036096,12.4246175 187.321424,19.3313188 180.180533,27.7165711 C177.414102,19.7157241 172.290066,12.7386843 165.481965,7.70256596 C158.601535,2.606814 149.658148,0.0530808298 138.651804,0.0413664575 C129.833993,-0.111355966 121.133602,2.07760664 113.439188,6.38469908 C106.323844,10.4115403 99.8128746,15.4220043 94.0989668,21.2678091 L98.82853,3.59082127 L42.8122168,3.59082127 L0,163 L56.0866413,163 L78.7850281,78.6565192 C81.3285602,69.4138794 84.9680382,62.291541 89.703462,57.2895041 C94.4327271,52.2711976 101.095092,49.5310097 107.988762,49.768877 C113.685336,49.768877 117.957767,51.2448879 120.806054,54.1969098 C123.802753,57.5703478 125.339123,61.993474 125.078485,66.4970007 C125.051424,68.5709476 124.857396,70.6393542 124.498278,72.6821893 C124.093892,75.0367781 123.619177,77.3035092 123.021388,79.4648109 L100.604314,162.876999 L156.638209,162.876999 L179.354178,78.5335183 C181.909431,69.2908785 185.543049,62.1685401 190.25503,57.1665031 C194.985621,52.1501222 201.647074,49.4103093 208.54033,49.6458761 C214.447888,49.6458761 218.755483,51.121887 221.51586,54.0739088 C224.276237,57.0259307 225.647635,61.1025323 225.647635,66.3739998 C225.622236,68.4488327 225.422268,70.5178548 225.049846,72.5591884 C224.663042,74.9137772 224.170745,77.1805083 223.590538,79.34181 L215.801704,108.703884 L196.021932,108.703884 L227.124524,161.787562 L291,108.703884 L271.730107,108.949886 Z" id="Path"></path>
                <path d="M372.601374,168.988697 C361.506391,169.166652 350.478623,167.2419 340.105667,163.316996 C331.015367,159.823188 322.709684,154.571427 315.667766,147.864686 C308.920392,141.336368 303.674828,133.428494 300.292695,124.686221 C296.709239,115.386423 294.914826,105.498179 295.003106,95.5375441 C295.000629,83.7148926 297.399669,72.0139178 302.055891,61.1385942 C306.63624,50.2038495 313.293686,40.2527906 321.662634,31.8318828 C330.166923,23.3038416 340.194924,16.4316192 351.231435,11.5682849 C373.32582,2.17941582 398.176942,1.50153544 420.754265,9.67186499 C429.896439,13.1458233 438.252048,18.3988319 445.333221,25.1241753 C452.080596,31.6524938 457.32616,39.5603675 460.708293,48.3026409 C464.276005,57.5090702 466.070485,67.302378 465.997882,77.1703662 C466.029513,89.0538032 463.585984,100.814621 458.821673,111.709792 C454.137147,122.571842 447.518548,132.500551 439.285458,141.016503 C430.84679,149.658058 420.80506,156.587395 409.716656,161.420577 C398.020531,166.52572 385.371022,169.105062 372.601374,168.988697 Z M375.810392,123.228787 C381.057169,123.274741 386.218311,121.903288 390.744664,119.260352 C395.263161,116.63645 399.208055,113.137666 402.346496,108.970518 C405.564942,104.722512 408.060773,99.9768003 409.734288,94.9229636 C411.471599,89.8335753 412.359096,84.4949028 412.361451,79.1194644 C412.361451,70.0939104 409.84008,62.9647763 404.814971,57.6618243 C399.680884,52.3275605 392.498705,49.4383803 385.084804,49.7249558 C379.839029,49.6868576 374.679946,51.0577635 370.150532,53.6933901 C365.632035,56.3172927 361.687141,59.8160765 358.5487,63.983224 C352.177493,72.5291871 348.67315,82.8576569 348.533745,93.5006487 C348.533745,102.72521 351.049238,109.97726 356.080225,115.256799 C361.208075,120.60398 368.391079,123.506278 375.810392,123.228787 Z" id="Shape" fill-rule="nonzero"></path>
                <polygon id="Path" points="467 7 523.846138 7 529.676512 98.8990826 584.116743 7 643 7 537.842546 166 487.406306 166"></polygon>
                <path d="M663.098538,101.64609 C663.696293,109.617515 666.374472,115.932615 671.133074,120.591392 C675.891675,125.250169 683.041299,127.591263 692.581943,127.614674 C698.207986,127.621316 703.790904,126.634577 709.07296,124.700012 C715.195418,122.325812 720.944552,119.085406 726.14415,115.078116 L751.830051,145.401135 C743.449045,152.517878 733.997632,158.271425 723.823453,162.450151 C701.972976,170.597332 678.012255,171.160163 655.802406,164.047948 C647.006191,161.074908 638.949305,156.255438 632.173487,149.913594 C625.691808,143.720947 620.614102,136.213069 617.282346,127.895605 C613.655887,118.715497 611.864084,108.915139 612.008034,99.0474756 C612.046487,87.226863 614.281995,75.5161062 618.600924,64.5104877 C622.910721,53.2355696 629.35093,42.8933562 637.570867,34.0470032 C646.039694,24.9521856 656.188274,17.5771937 667.458636,12.3275044 C679.806732,6.63929692 693.278782,3.80075861 706.875329,4.02247374 C717.203899,3.77276832 727.4768,5.6061117 737.079557,9.41284247 C752.781729,15.6835722 764.87125,28.6133694 770.06159,44.687275 C772.691407,52.6157921 774.021261,60.9165813 773.999743,69.2687611 C773.985124,74.8024144 773.449474,80.3224335 772.399868,85.7559149 C771.358255,91.1468457 769.840349,96.4349891 767.86396,101.558299 L663.098538,101.64609 Z M723.225697,73.3773809 C724.172444,70.6550914 724.665405,67.7960763 724.684924,64.9143264 C724.764105,59.7089776 722.881549,54.6640137 719.410612,50.7799719 C715.894403,46.8118177 710.444281,44.8218879 703.060244,44.8101824 C695.448431,44.9061942 688.062726,47.4079253 681.962995,51.9563716 C675.247037,56.7204977 670.236441,63.8608341 666.931205,73.3773809 L723.225697,73.3773809 Z" id="Shape" fill-rule="nonzero"></path>
                <path d="M801.442959,6.78415438 L857.075503,6.78415438 L848.576331,38.6457223 C855.343816,28.2352674 864.097729,19.2580389 874.338343,12.2265118 C883.895503,5.8976431 895.116055,3.22049643 908,4.19507175 L892.130178,62.6695911 L887.439763,62.6695911 C872.228245,62.6695911 859.691085,67.0551801 849.828284,75.826358 C839.965483,84.5975359 832.500789,98.4353313 827.434201,117.339744 L814.544379,165 L759,165 L801.442959,6.78415438 Z" id="Path"></path>
            </g>
        </g>
    </g>
</svg>
