<?xml version="1.0" encoding="UTF-8"?>
<svg width="291px" height="169px" viewBox="0 0 291 169" version="1.1" xmlns="http://www.w3.org/2000/svg" xmlns:xlink="http://www.w3.org/1999/xlink">
    <!-- Generator: Sketch 52.6 (67491) - http://www.bohemiancoding.com/sketch -->
    <title>Mover M white</title>
    <desc>Created with Sketch.</desc>
    <g id="Designguide---colors---fonts---forms" stroke="none" stroke-width="1" fill="none" fill-rule="evenodd">
        <g id="Mover-M-white" fill="#e0edff">
            <g id="Mover---logo---black">
                <path d="M271.730107,108.949886 L280.521117,76.354645 C281.892514,71.2471787 283.023624,66.2334273 283.914446,61.313391 C284.761926,56.7458536 285.203198,52.1123092 285.233098,47.4670029 C285.233098,32.7303225 281.200955,21.138951 273.136668,12.6928886 C265.072382,4.24682613 253.351036,0.0179377128 237.97263,0.0062233405 C226.822408,-0.14285028 215.799618,2.3882314 205.832699,7.38627791 C196.036096,12.4246175 187.321424,19.3313188 180.180533,27.7165711 C177.414102,19.7157241 172.290066,12.7386843 165.481965,7.70256596 C158.601535,2.606814 149.658148,0.0530808298 138.651804,0.0413664575 C129.833993,-0.111355966 121.133602,2.07760664 113.439188,6.38469908 C106.323844,10.4115403 99.8128746,15.4220043 94.0989668,21.2678091 L98.82853,3.59082127 L42.8122168,3.59082127 L0,163 L56.0866413,163 L78.7850281,78.6565192 C81.3285602,69.4138794 84.9680382,62.291541 89.703462,57.2895041 C94.4327271,52.2711976 101.095092,49.5310097 107.988762,49.768877 C113.685336,49.768877 117.957767,51.2448879 120.806054,54.1969098 C123.802753,57.5703478 125.339123,61.993474 125.078485,66.4970007 C125.051424,68.5709476 124.857396,70.6393542 124.498278,72.6821893 C124.093892,75.0367781 123.619177,77.3035092 123.021388,79.4648109 L100.604314,162.876999 L156.638209,162.876999 L179.354178,78.5335183 C181.909431,69.2908785 185.543049,62.1685401 190.25503,57.1665031 C194.985621,52.1501222 201.647074,49.4103093 208.54033,49.6458761 C214.447888,49.6458761 218.755483,51.121887 221.51586,54.0739088 C224.276237,57.0259307 225.647635,61.1025323 225.647635,66.3739998 C225.622236,68.4488327 225.422268,70.5178548 225.049846,72.5591884 C224.663042,74.9137772 224.170745,77.1805083 223.590538,79.34181 L215.801704,108.703884 L196.021932,108.703884 L227.124524,161.787562 L291,108.703884 L271.730107,108.949886 Z" id="Path"></path>
            </g>
        </g>
    </g>
</svg>
