<?xml version="1.0" encoding="UTF-8"?>
<svg width="16px" height="22px" viewBox="0 0 16 22" version="1.1" xmlns="http://www.w3.org/2000/svg" xmlns:xlink="http://www.w3.org/1999/xlink">
    <!-- Generator: sketchtool 46.2 (44496) - http://www.bohemiancoding.com/sketch -->
    <title>A84183BA-E934-42BE-9A6D-41404610C2F8</title>
    <desc>Created with sketchtool.</desc>
    <defs></defs>
    <g id="√-Client-Backoffice-|-Request-Mover" stroke="none" stroke-width="1" fill="none" fill-rule="evenodd">
        <g id="Bestil-en-Mover-(1920)" transform="translate(-348.000000, -274.000000)" fill-rule="nonzero" fill="#143C56">
            <g id="Del-1" transform="translate(281.000000, 91.000000)">
                <g id="Stop-1" transform="translate(24.000000, 142.000000)">
                    <g id="Startadresse-Copy" transform="translate(25.000000, 32.000000)">
                        <path d="M26,9 C21.581722,9 18,12.5571452 18,16.9451062 C18,22.3636686 25.376,30.6504144 25.376,30.6504144 C25.5250164,30.8693647 25.7738991,31.0003973 26.04,30.9999991 C26.2975731,30.9926359 26.535806,30.8625069 26.68,30.6504144 C26.68,30.6504144 34,22.3795589 34,16.9609964 C34,12.5730354 30.418278,9.01589021 26,9.01589021 M26,20.7508121 C23.901318,20.7508121 22.2,19.0611681 22.2,16.9768866 C22.2,14.8926052 23.901318,13.2029612 26,13.2029612 C28.098682,13.2029612 29.8,14.8926052 29.8,16.9768866 C29.8,17.9777939 29.399644,18.9377066 28.6870058,19.6454549 C27.9743675,20.3532032 27.0078227,20.7508121 26,20.7508121" id="Shape"></path>
                    </g>
                </g>
            </g>
        </g>
    </g>
</svg>