<?xml version="1.0" encoding="UTF-8"?>
<svg width="10px" height="9px" viewBox="0 0 10 9" version="1.1" xmlns="http://www.w3.org/2000/svg" xmlns:xlink="http://www.w3.org/1999/xlink">
    <!-- Generator: sketchtool 46.2 (44496) - http://www.bohemiancoding.com/sketch -->
    <title>B2EDEC54-C334-4677-B71F-45EB302B3BF9</title>
    <desc>Created with sketchtool.</desc>
    <defs></defs>
    <g id="√-Style-Guide" stroke="none" stroke-width="1" fill="none" fill-rule="evenodd">
        <g id="Selection-Controls" transform="translate(-551.000000, -217.000000)" stroke="#333333" stroke-width="0.754142335" fill="#333333">
            <path d="M555.308749,224.491507 C555.654615,223.97735 555.992636,223.474816 556.330697,222.972321 C557.412034,221.364985 558.49267,219.757195 559.577404,218.15199 C559.619988,218.088981 559.694903,218.024275 559.767284,218.006081 C559.914353,217.969041 560.034221,218.10761 559.991101,218.248428 C559.977901,218.291585 559.953149,218.332749 559.927409,218.370993 C558.473148,220.53373 557.018249,222.696111 555.56333,224.858453 C555.450093,225.02672 555.319436,225.045546 555.164974,224.911812 C554.14144,224.025638 553.118544,223.138813 552.095855,222.251751 C551.985501,222.156043 551.969275,222.025861 552.053188,221.938619 C552.13535,221.853213 552.269158,221.858146 552.383157,221.956774 C553.147209,222.617848 553.910334,223.279927 554.673789,223.941632 C554.882182,224.122234 555.090739,224.302717 555.308749,224.491507" id="Fill-1"></path>
        </g>
    </g>
</svg>