<svg xmlns="http://www.w3.org/2000/svg" width="26" height="23" viewBox="0 0 26 23">
    <g fill="none" fill-rule="evenodd">
        <path fill="#FFF" fill-rule="nonzero" d="M13.63 16.53c.248.216.384.532.37.86a1.06 1.06 0 0 1-.37.86 1.44 1.44 0 0 1-1 .32 1.49 1.49 0 0 1-1-.32 1.1 1.1 0 0 1-.37-.86 1.08 1.08 0 0 1 .37-.86 1.41 1.41 0 0 1 1-.32 1.4 1.4 0 0 1 1 .32zm-.11-8a1 1 0 0 1 .36.85v4.75a1 1 0 0 1-.36.85 1.32 1.32 0 0 1-.87.29 1.35 1.35 0 0 1-.88-.29 1 1 0 0 1-.35-.85V9.35a1 1 0 0 1 .35-.85 1.35 1.35 0 0 1 .88-.25c.31-.022.619.067.87.25v.03z"/>
        <path stroke="#FFF" stroke-linejoin="round" stroke-width="2" d="M12.63 1l5.82 10.07 5.81 10.08H1l5.82-10.08z"/>
    </g>
</svg>
