<svg xmlns="http://www.w3.org/2000/svg" width="92" height="143" viewBox="0 0 92 143">
    <g fill="none" fill-rule="evenodd" stroke="#008ED8" stroke-width="2">
        <path d="M23.247 70.095h45.241V48.333H23.247zM23.533 55.588h44.67M23.533 62.842h44.67M34.557 48.62v21.19M45.867 48.62v21.19M57.178 48.62v21.19M24.578 103.726l21.29-21.29 21.29 21.29-10.925-.074v20.729h-20.73v-20.73zM10.274 31.272h28.263c1.11 0 2.008-.9 2.008-2.008V1"/>
        <path d="M32.164 96.14H12.282a2.009 2.009 0 0 1-2.009-2.008V32.098c0-.528.211-1.036.585-1.41L39.96 1.585A1.998 1.998 0 0 1 41.372 1h38.081c1.11 0 2.01.899 2.01 2.008v91.123c0 1.109-.9 2.007-2.01 2.007H59.571M86.515 141.126H5.22A4.22 4.22 0 0 1 1 136.906v-11.994a4.22 4.22 0 1 1 8.44 0v7.774h72.855v-7.774a4.221 4.221 0 0 1 8.44 0v11.994a4.22 4.22 0 0 1-4.22 4.22z"/>
    </g>
</svg>
