<svg width="24" height="24" viewBox="0 0 24 24" focusable="false" role="presentation">
    <g fill="currentColor" fill-rule="evenodd">
        <path d="M12.671,3.314a2.01,2.01,0,0,1,1.992.963,2.032,2.032,0,0,1,.244.629,1.978,1.978,0,0,1-1.372,2.32,2.071,2.071,0,0,1-2.594-1.3,2.126,2.126,0,0,1,0-1.258,2.158,2.158,0,0,1,1.109-1.2A2.367,2.367,0,0,1,12.671,3.314ZM7.9,10.018c0.24-.1.588-0.248,0.827-0.334,0.435-.157.731-0.258,1.184-0.393A4.723,4.723,0,0,1,10.7,9.153a4.57,4.57,0,0,1,.94.039,2.231,2.231,0,0,1,.432.1,2.1,2.1,0,0,1,1.353,1.2,4.449,4.449,0,0,1,.019,2.34c-0.324,1.335-.607,2.308-0.959,3.6-0.056.288-.132,0.6-0.188,0.885-0.013.157-.044,0.373-0.056,0.531a1.167,1.167,0,0,0,.263.944,0.916,0.916,0,0,0,.526.236,3.877,3.877,0,0,0,1.71-.295v0.02c-0.054.245-.175,0.746-0.226,0.944a9.056,9.056,0,0,1-.9.413,7.819,7.819,0,0,1-.959.315,6.133,6.133,0,0,1-1.128.177,3.864,3.864,0,0,1-1.372-.236,2.115,2.115,0,0,1-1.24-1.2,4.554,4.554,0,0,1-.038-2.025c0.289-1.32.644-2.466,0.977-3.736a4.175,4.175,0,0,0,.113-2.359,1.346,1.346,0,0,0-1.541-.275c-0.251.085-.5,0.151-0.752,0.236Z"/>
    </g>
</svg>
