<?xml version="1.0" encoding="UTF-8"?>
<svg width="100px" height="100px" viewBox="0 0 100 100" version="1.1" xmlns="http://www.w3.org/2000/svg" xmlns:xlink="http://www.w3.org/1999/xlink">
    <!-- Generator: Sketch 48.2 (47327) - http://www.bohemiancoding.com/sketch -->
    <title>Icon - Adhoc Color</title>
    <desc>Created with Sketch.</desc>
    <defs></defs>
    <g id="Version-4" stroke="none" stroke-width="1" fill="none" fill-rule="evenodd">
        <g id="Icon---Adhoc-Color">
            <g id="Adhoc" transform="translate(4.000000, 0.000000)">
                <path d="M13.5,35 C11.2882235,35 0.0992647059,23.6488636 0.0992647059,13.4232955 C0.0992647059,6.02182955 6.11097353,0 13.5,0 C20.8890265,0 26.9007353,6.02182955 26.9007353,13.4232955 C26.9007353,24.0688636 15.3026471,35 13.5,35 Z M13.5,2.38636364 C7.42627059,2.38636364 2.48161765,7.33934091 2.48161765,13.4232955 C2.48161765,22.2075 11.3781176,30.9917045 13.4722059,32.4672727 C15.6529324,30.8825682 24.5183824,22.1104545 24.5183824,13.4232955 C24.5183824,7.33934091 19.5737294,2.38636364 13.5,2.38636364 Z" id="Shape" fill="#000000" fill-rule="nonzero"></path>
                <path d="M13.5,19.3732955 C10.2242647,19.3732955 7.55960294,16.7041477 7.55960294,13.4228977 C7.55960294,10.1416477 10.2242647,7.4725 13.5,7.4725 C16.7757353,7.4725 19.4403971,10.1416477 19.4403971,13.4228977 C19.4403971,16.7041477 16.7757353,19.3732955 13.5,19.3732955 Z M13.5,9.85886364 C11.5394824,9.85886364 9.94195588,11.4590795 9.94195588,13.4228977 C9.94195588,15.3867159 11.5394824,16.9869318 13.5,16.9869318 C15.4605176,16.9869318 17.0580441,15.3867159 17.0580441,13.4228977 C17.0580441,11.4590795 15.4605176,9.85886364 13.5,9.85886364 Z" id="Combined-Shape" fill="#4BB3FD"></path>
                <g id="np_pin_1199999_000000-copy" transform="translate(53.000000, 49.000000)">
                    <path d="M16,42 C13.3786353,42 0.117647059,28.3786364 0.117647059,16.1079545 C0.117647059,7.22619545 7.24263529,0 16,0 C24.7573647,0 31.8823529,7.22619545 31.8823529,16.1079545 C31.8823529,28.8826364 18.1364706,42 16,42 Z M16,2.86363636 C8.80150588,2.86363636 2.94117647,8.80720909 2.94117647,16.1079545 C2.94117647,26.649 13.4851765,37.1900455 15.9670588,38.9607273 C18.5516235,37.0590818 29.0588235,26.5325455 29.0588235,16.1079545 C29.0588235,8.80720909 23.1984941,2.86363636 16,2.86363636 Z" id="Shape" fill="#000000" fill-rule="nonzero"></path>
                    <path d="M16,23.2479545 C12.1176471,23.2479545 8.95952941,20.0449773 8.95952941,16.1074773 C8.95952941,12.1699773 12.1176471,8.967 16,8.967 C19.8823529,8.967 23.0404706,12.1699773 23.0404706,16.1074773 C23.0404706,20.0449773 19.8823529,23.2479545 16,23.2479545 Z M16,11.8306364 C13.6764235,11.8306364 11.7830588,13.7508955 11.7830588,16.1074773 C11.7830588,18.4640591 13.6764235,20.3843182 16,20.3843182 C18.3235765,20.3843182 20.2169412,18.4640591 20.2169412,16.1074773 C20.2169412,13.7508955 18.3235765,11.8306364 16,11.8306364 Z" id="Combined-Shape" fill="#42A5F5"></path>
                </g>
                <polyline id="Path-2" stroke="#42A5F5" stroke-width="3" stroke-linecap="round" stroke-linejoin="round" points="13.9622396 38.8802083 46.1171875 56.4244792 26.9453125 71.8710938 68.5716146 96.5442708"></polyline>
            </g>
        </g>
    </g>
</svg>