<svg xmlns="http://www.w3.org/2000/svg" width="377" height="109" viewBox="0 0 377 109">
    <path fill="#AC252A" fill-rule="nonzero" d="M323.609 0c-23.975 0-43.415 9.978-50.498 27.793C266.027 9.978 246.583 0 222.61 0c-21.298 0-39.014 7.876-47.673 22.123C166.278 7.876 148.56 0 127.266 0 96.96 0 73.88 15.933 73.88 43.509c0 6.944 1.488 13.148 4.192 18.547-.349.155-.695.31-1.054.461a53.669 53.669 0 0 1-4.537 1.537c-4.185 1.139-8.903 1.765-13.634 1.765-13.742 0-26.076-8.604-26.076-21.838 0-14.343 10.572-22.945 24.314-22.945 5.236 0 9.27.302 13.403 1.78-.001 0 4.735-10.28 12.684-16.204a102.806 102.806 0 0 0-4.84-2.108l-.001.017C71.159 1.408 62.788 0 53.385 0 23.08 0 0 15.933 0 43.509 0 70.92 23.08 86.853 53.385 86.853c8 0 16.926-1.15 24.578-3.297 2.868-.683 9.592-2.985 14.509-5.805 9.232 5.931 21.292 9.102 34.794 9.102 21.295 0 39.011-7.876 47.672-22.067 8.659 14.19 26.375 22.067 47.673 22.067 21.26 0 38.952-7.85 47.629-21.993V109h32.61V84.038c6.33 1.85 13.323 2.815 20.759 2.815C353.916 86.853 377 70.92 377 43.509 377 15.933 353.916 0 323.609 0zM127.266 66.778c-14.624 0-20.612-10.998-20.612-23.27 0-12.433 5.988-23.43 20.612-23.43 14.626 0 20.615 10.997 20.615 23.43 0 12.272-5.989 23.27-20.615 23.27zm95.345 0c-14.62 0-20.615-10.998-20.615-23.27 0-12.433 5.995-23.43 20.615-23.43 14.626 0 20.613 10.997 20.613 23.43 0 12.272-5.987 23.27-20.613 23.27zm100.998 0c-14.62 0-20.614-10.998-20.614-23.27 0-12.433 5.994-23.43 20.614-23.43 14.626 0 20.613 10.997 20.613 23.43 0 12.272-5.987 23.27-20.613 23.27z"/>
</svg>
