<?xml version="1.0" standalone="yes"?>
<svg xmlns="http://www.w3.org/2000/svg" width="381" height="194">
<path fill="currentColor" stroke="none" d="M89 0.424377C65.3857 3.56294 42.8575 12.3116 26.1705 30.0394C-13.6484 72.3417 -6.52201 143.15 41 176.43C69.0563 196.077 101.455 194 134 194L239 194C259.098 194 280.113 195.764 300 192.562C325.968 188.381 350.24 172.894 364.91 151C386.967 118.084 386.301 71.8721 362.622 40C356.61 31.9076 349.315 24.2555 341 18.5085C309.585 -3.20398 274.346 0 238 0L140 0C123.333 0 105.523 -1.77173 89 0.424377M93 26.2863C101.214 25.2775 109.979 25.9403 118 27.8981C125.971 29.8438 133.72 33.0415 140.576 37.5687C174.281 59.8276 180.709 105.163 159.409 138C154.282 145.904 146.873 152.652 138.83 157.537C129.768 163.041 119.512 166.423 109 167.714C99.8304 168.84 89.9016 167.913 81 165.511C33.5608 152.711 14.9777 92.2697 44.2361 54C49.4543 47.1747 55.6476 40.9973 63 36.4668C72.1726 30.8147 82.3568 27.5934 93 26.2863M288 47.3002C294.329 46.3959 301.8 46.4978 307.985 48.135C311.038 48.9434 314.899 50.7869 313.353 54.7269C311.886 58.4634 303.203 61.1461 300 63.669C291.445 70.4068 283.996 80.8248 283.093 92C281.901 106.759 287.495 120.06 299.001 129.535C302.626 132.521 310.493 134.792 312.957 138.509C315.258 141.98 311.981 144.681 308.956 145.606C304.059 147.105 299.063 147.024 294 146.999C288.12 146.971 282.514 145.831 277 143.771C239.477 129.75 235.437 76.2534 268.039 54.696C273.888 50.8288 281.06 48.2917 288 47.3002M297 139C291.276 133.158 284.915 128.447 280.985 121C269.244 98.7542 275.066 69.7213 297 56C292.559 54.1371 287.484 55.3421 283 56.7245C271.263 60.3432 260.992 69.5241 256.465 81C245.132 109.727 267.161 138.98 297 139z"/>
</svg>
