<?xml version="1.0" standalone="yes"?>
<svg xmlns="http://www.w3.org/2000/svg" width="381" height="194">
<path fill="currentColor" stroke="none" d="M89 0.424377C62.3496 3.96645 38.8572 14.8634 21.4637 36C-12.7763 77.6087 -4.80809 144.523 40 175.492C70.6457 196.672 104.509 194 140 194L241 194C260.457 194 280.746 195.662 300 192.562C311.83 190.657 323.744 186.353 334 180.2C341.786 175.528 349.641 169.791 355.711 162.985C393.98 120.077 387.614 50.9145 340 17.5702C311.677 -2.26405 278.839 0 246 0L143 0C125.362 0 106.485 -1.89952 89 0.424377M272 26.2863C281.17 25.1601 291.098 26.0875 300 28.4892C347.442 41.2893 366.034 101.715 336.764 140C331.546 146.825 325.352 153.003 318 157.533C308.827 163.185 298.643 166.407 288 167.714C279.786 168.723 271.021 168.06 263 166.102C255.029 164.156 247.28 160.959 240.424 156.431C206.719 134.172 200.264 88.8783 221.591 56C226.718 48.0956 234.127 41.348 242.17 36.463C251.232 30.9587 261.488 27.5773 272 26.2863M100.129 39.7516C102.975 38.9944 104.469 41.6653 104.852 44.0193C105.867 50.258 105.256 57.6863 104.981 63.9992C104.879 66.3411 104.625 69.5157 101.871 70.2485C99.025 71.0057 97.531 68.3347 97.1481 65.9807C96.1334 59.742 96.7442 52.3137 97.0193 46.0008C97.1213 43.6589 97.3746 40.4843 100.129 39.7516M70.1489 63.7516C74.8539 62.5542 82.3039 71.4974 84.3773 74.9992C85.6462 77.1422 85.8849 80.4764 82.8511 81.2485C78.1461 82.4458 70.6961 73.5026 68.6227 70.0008C67.3538 67.8578 67.1151 64.5236 70.1489 63.7516M129.981 63.7516C133.283 63.0155 135.107 66.1698 133.914 69.0046C132.229 73.0065 125.368 80.2791 121.019 81.2485C117.717 81.9846 115.893 78.8302 117.086 75.9954C118.771 71.9935 125.632 64.7209 129.981 63.7516M96 78.3935C102.923 76.8357 110.78 78.603 115.471 84.1049C124.245 94.396 119.964 112.567 106 115.61C96.7821 117.618 87.5719 113.642 83.4421 104.999C78.5525 94.7664 84.8229 80.9085 96 78.3935M97.0432 87.6528C90.8329 89.7082 89.1683 98.6348 93.0093 103.606C95.6527 107.027 101.058 107.638 104.957 106.347C111.167 104.292 112.832 95.3652 108.991 90.3943C106.347 86.9732 100.942 86.3623 97.0432 87.6528M46.1489 93.6034C51.5772 91.2168 64.1546 92.2005 69.9807 93.1481C73.3048 93.6888 76.4451 97.4041 72.6775 99.9722C70.8161 101.241 68.1322 100.985 66 100.999C60.1873 101.039 52.6814 102.229 47.0586 100.682C43.402 99.6759 42.2886 95.3006 46.1489 93.6034M130.149 93.6034C135.577 91.2168 148.155 92.2005 153.981 93.1481C157.305 93.6888 160.445 97.4041 156.677 99.9722C154.816 101.241 152.132 100.985 150 100.999C144.187 101.039 136.681 102.229 131.059 100.682C127.402 99.6759 126.289 95.3006 130.149 93.6034M80.9807 112.752C84.283 112.015 86.1067 115.17 84.9136 118.005C83.2293 122.007 76.3682 129.279 72.0193 130.248C68.717 130.985 66.8933 127.83 68.0864 124.995C69.7707 120.993 76.6318 113.721 80.9807 112.752M119.149 112.752C123.854 111.554 131.304 120.497 133.377 123.999C134.646 126.142 134.885 129.476 131.851 130.248C127.146 131.446 119.696 122.503 117.623 119.001C116.354 116.858 116.115 113.524 119.149 112.752M100.129 123.752C102.975 122.994 104.469 125.665 104.852 128.019C105.867 134.258 105.256 141.686 104.981 147.999C104.879 150.341 104.625 153.516 101.871 154.248C99.025 155.006 97.531 152.335 97.1481 149.981C96.1334 143.742 96.7442 136.314 97.0193 130.001C97.1213 127.659 97.3746 124.484 100.129 123.752z"/>
</svg>
