<?xml version="1.0" standalone="yes"?>
<svg xmlns="http://www.w3.org/2000/svg" width="381" height="194">
<path fill="currentColor" stroke="none" d="M89 0.424377C62.3496 3.96645 38.8572 14.8634 21.4637 36C-12.7763 77.6087 -4.80809 144.523 40 175.492C70.6457 196.672 104.509 194 140 194L241 194C260.457 194 280.746 195.662 300 192.562C311.83 190.657 323.744 186.353 334 180.2C341.786 175.528 349.641 169.791 355.711 162.985C393.98 120.077 387.614 50.9145 340 17.5702C311.677 -2.26405 278.839 0 246 0L143 0C125.362 0 106.485 -1.89952 89 0.424377M183 26.2863C192.17 25.1601 202.098 26.0875 211 28.4892C258.442 41.2892 277.034 101.715 247.764 140C242.546 146.825 236.352 153.003 229 157.533C219.827 163.185 209.643 166.407 199 167.714C190.786 168.723 182.021 168.06 174 166.102C166.029 164.156 158.28 160.959 151.424 156.431C117.719 134.172 111.264 88.8784 132.591 56C137.718 48.0956 145.127 41.348 153.17 36.463C162.232 30.9587 172.488 27.5773 183 26.2863z"/>
</svg>
