<svg xmlns="http://www.w3.org/2000/svg" width="161" height="165" viewBox="0 0 161 165">
    <path fill="#AC252A" fill-rule="evenodd" d="M137.33 121.687c-7.93 2.164-16.87 3.354-25.832 3.354-26.037 0-49.407-16.346-49.407-41.488 0-27.248 20.03-43.59 46.068-43.59 9.92 0 17.565.573 25.394 3.38-.002 0 8.973-19.527 24.033-30.782a194.517 194.517 0 0 0-9.17-4.005C134.827 2.675 118.966 0 101.15 0 43.729 0 0 30.268 0 82.656 0 134.732 43.73 165 101.149 165c15.157 0 32.069-2.185 46.568-6.263 2.895-.692 13.283-4.377 13.283-4.377-13.283-8.605-23.67-32.673-23.67-32.673z"/>
</svg>
