<svg xmlns="http://www.w3.org/2000/svg" width="215" height="120" viewBox="0 0 215 120">
    <path fill="#000100" fill-rule="evenodd" d="M200.761 80.205l6.496-23.999c1.013-3.765 1.858-7.452 2.507-11.074.63-3.363.96-6.774.988-10.195 0-10.841-2.98-19.375-8.939-25.603-5.958-6.227-14.62-9.336-25.983-9.327a51.717 51.717 0 0 0-23.749 5.42 62.5 62.5 0 0 0-18.968 14.969 30.89 30.89 0 0 0-10.887-14.749c-5.058-3.76-11.658-5.64-19.8-5.64a37.02 37.02 0 0 0-18.642 4.631 64.096 64.096 0 0 0-14.291 10.958l3.572-12.989h-41.47L0 120h41.405L58.19 57.901c1.88-6.788 4.564-12.032 8.055-15.732a17.771 17.771 0 0 1 13.511-5.537c4.21 0 7.38 1.087 9.484 3.26a12.53 12.53 0 0 1 3.157 9.056 27.393 27.393 0 0 1-.442 4.567 51.008 51.008 0 0 1-1.078 4.981L74.365 120h41.404l16.773-62.099c1.853-6.762 4.547-12.01 8.08-15.745a17.758 17.758 0 0 1 13.512-5.537c4.33 0 7.526 1.087 9.588 3.26a12.825 12.825 0 0 1 3.04 9.056 28.694 28.694 0 0 1-.429 4.567 50.983 50.983 0 0 1-1.091 4.981l-5.756 21.618h-14.68l22.995 39.084L215 80.101l-14.239.104z"/>
</svg>
