<svg xmlns="http://www.w3.org/2000/svg" width="454" height="82" viewBox="0 0 454 82">
    <g fill="#010202" fill-rule="evenodd">
        <path d="M129.767 52.808l4.197-15.817c.671-2.466 1.175-4.932 1.595-7.313.42-2.38.671-4.592.671-6.718 0-7.143-1.93-12.755-5.792-16.837C126.578 2.04 121.038 0 113.651 0c-5.624 0-10.744 1.19-15.36 3.572-4.617 2.38-8.646 5.697-12.255 9.864-1.427-3.997-3.778-7.228-7.051-9.694C75.71 1.276 71.43 0 66.143 0c-4.533 0-8.478 1.02-12.004 3.061-3.525 2.041-6.63 4.422-9.233 7.229l2.267-8.59H20.397L0 79h26.776l10.828-40.818c1.259-4.507 2.938-7.909 5.204-10.375 2.266-2.466 5.12-3.656 8.73-3.656 2.685 0 4.784.68 6.127 2.126 1.343 1.445 2.014 3.401 2.014 5.952 0 .85-.084 1.871-.251 2.977-.168 1.105-.42 2.21-.672 3.316l-10.66 40.393h26.776L85.7 38.097c1.259-4.507 2.938-7.909 5.204-10.375 2.266-2.466 5.12-3.656 8.73-3.656 2.853 0 4.868.68 6.21 2.126 1.344 1.445 1.931 3.401 1.931 5.952 0 .85-.084 1.871-.251 2.977-.168 1.105-.42 2.21-.672 3.316l-3.693 14.201h-9.485L108.53 78.32 139 52.638h-9.233v.17z"/>
        <path fill-rule="nonzero" d="M178.234 81.579c-5.812 0-10.95-.926-15.5-2.695-4.549-1.852-8.424-4.295-11.71-7.41-3.2-3.116-5.643-6.821-7.328-11.116-1.685-4.295-2.528-8.926-2.528-13.98 0-5.725 1.096-11.2 3.37-16.504 2.275-5.306 5.392-10.021 9.35-14.063 4.044-4.043 8.678-7.327 14.153-9.685 5.392-2.442 11.289-3.62 17.607-3.62 5.812 0 10.95.926 15.584 2.694 4.633 1.853 8.508 4.295 11.71 7.41 3.2 3.116 5.644 6.822 7.328 11.116 1.685 4.295 2.528 8.927 2.528 13.81 0 5.811-1.18 11.285-3.454 16.59-2.275 5.306-5.392 9.937-9.35 14.063-3.96 4.127-8.678 7.327-14.153 9.769-5.392 2.442-11.289 3.62-17.607 3.62zm1.517-21.979c2.611 0 4.97-.674 7.16-1.937 2.19-1.263 4.044-2.947 5.56-4.968s2.696-4.295 3.538-6.737c.843-2.526 1.264-4.969 1.264-7.58 0-4.294-1.18-7.746-3.623-10.273-2.443-2.526-5.56-3.79-9.435-3.79-2.611 0-4.97.674-7.16 1.938-2.19 1.263-4.044 2.947-5.56 4.968s-2.696 4.295-3.538 6.737c-.842 2.526-1.264 4.968-1.264 7.41 0 4.38 1.18 7.916 3.623 10.443 2.443 2.526 5.56 3.789 9.435 3.789z"/>
        <path d="M223.135 4.105h27.294l2.78 44.042 26.114-44.042h28.22l-50.46 76.21h-24.176z"/>
        <path fill-rule="nonzero" d="M317.4 49.326c.253 3.79 1.6 6.821 3.875 9.095 2.275 2.274 5.728 3.368 10.277 3.368 2.696 0 5.308-.505 7.92-1.431 2.526-.926 5.306-2.442 8.17-4.632l12.3 14.569c-3.876 3.368-8.425 6.063-13.395 8.168-5.054 2.105-10.867 3.116-17.522 3.116-5.56 0-10.614-.758-15.079-2.358s-8.255-3.874-11.288-6.821c-3.117-2.947-5.476-6.484-7.16-10.526-1.685-4.127-2.528-8.674-2.528-13.81 0-5.559 1.011-11.117 3.117-16.59 2.106-5.474 5.139-10.358 9.098-14.569 3.96-4.294 8.761-7.747 14.321-10.442 5.56-2.695 11.878-3.958 18.87-3.958 5.56 0 10.446.842 14.49 2.61 4.043 1.685 7.413 4.043 10.024 6.906 2.611 2.863 4.549 6.232 5.813 10.021 1.263 3.79 1.853 7.747 1.853 11.79 0 2.61-.253 5.22-.758 7.915a41.722 41.722 0 0 1-2.19 7.58H317.4zm28.81-13.642c.506-1.431.674-2.779.674-4.042 0-2.61-.842-4.884-2.527-6.82-1.685-1.938-4.296-2.864-7.834-2.864-3.538 0-6.908 1.179-10.11 3.453-3.2 2.273-5.643 5.726-7.244 10.273h27.041z"/>
        <path d="M383.36 4.105h26.536l-4.043 15.242c3.622-5.39 7.75-9.6 12.299-12.631 4.549-3.032 9.94-4.295 16.09-3.874L426.66 30.8h-2.274c-7.245 0-13.226 2.105-17.944 6.316-4.717 4.21-8.255 10.779-10.698 19.873l-6.15 22.822h-26.536L383.36 4.105z"/>
        <g>
            <path d="M443.681 2.978h-2.112v-.711h5.037v.71h-2.112V9.29h-.732V2.978zM447.256 2.267h.732l2.356 3.822 2.356-3.822h.731v7.022h-.731V3.6l-2.356 3.733-2.356-3.733v5.689h-.732z"/>
        </g>
    </g>
</svg>
