<svg width="389" height="167" viewBox="0 0 389 167" fill="none" xmlns="http://www.w3.org/2000/svg">
    <path fill-rule="evenodd" clip-rule="evenodd" d="M0 112.11V114.359C2.21225 114.471 5.24491 115.941 5.24491 117.826L5.25661 160.846C5.25661 163.146 2.22729 164.123 0.00501266 164.272V166.522C6.12881 166.17 13.7932 166.036 20.2411 166.522V164.272C18.0355 164.161 15.0012 162.694 15.0012 160.81L14.9812 117.783C14.9812 115.487 18.0172 114.511 20.2411 114.359V112.11C14.1173 112.466 6.45129 112.601 0 112.11ZM286.433 155.617C286.306 156.858 287.324 161.769 281.028 161.829C276.889 161.864 276.779 157.996 276.741 156.485C276.552 149.509 286.433 148.535 286.433 148.535V155.617ZM297.381 162.203C295.797 162.243 294.97 161.229 294.97 157.759V140.284C294.97 140.284 294.666 131.472 282.112 131.472C271.242 131.472 268.191 138.137 268.555 140.615C268.745 141.907 270.166 142.848 271.571 142.923C274.517 143.075 276.288 139.309 277.897 136.792C279.503 134.286 281.013 134.02 282.313 134.08C284.311 134.186 286.433 136.47 286.433 138.856V144.918C286.433 144.918 284.772 145.541 282.692 146.161C279.581 147.092 275.837 147.932 274.983 148.341C274.034 148.804 267.75 150.955 267.75 158.691C267.75 158.691 268.154 166.661 277.295 166.725C282.692 166.763 286.798 162.507 286.798 162.507C286.798 162.507 289.252 166.965 294.163 166.823C300.28 166.653 302.1 160.399 302.1 160.399L300.693 159.695C300.693 159.695 298.957 162.165 297.381 162.203ZM219.727 164.029C214.144 164.029 210.879 157.563 210.879 149.254C210.879 140.956 214.071 134.186 219.727 134.221C225.369 134.264 228.517 140.956 228.566 149.254C228.614 157.607 225.523 164.029 219.727 164.029ZM219.727 131.601C209.427 131.601 200.966 138.854 201.079 149.344C201.188 159.05 209.427 166.923 219.727 166.923C230.019 166.923 238.395 159.05 238.359 149.344C238.327 139.08 231.022 131.601 219.727 131.601ZM186.701 119.128C188.875 117.923 190.087 115.514 189.36 113.104C188.392 110.937 185.983 109.492 183.811 109.005C176.101 107.318 169.832 109.833 164.051 116.715C159.469 122.023 160.342 129.664 160.104 135.994H154.808V138.854H160.104L160.141 160.846C160.141 163.146 157.108 164.123 154.886 164.272V166.522C161.005 166.17 167.807 166.036 174.257 166.522V164.272C172.041 164.161 169.008 162.694 169.008 160.81L169.003 138.854H175.797V135.994H169.003C169.003 135.994 168.724 118.418 170.43 115.654C172.143 112.892 173.45 113.104 175.622 113.104C178.514 113.341 179.478 116.715 181.642 118.404C182.85 119.607 185.017 119.607 186.701 119.128ZM195.196 160.81L195.19 126.099L195.163 118.367L192.177 118.389C189.286 120.794 185.829 121.955 182.214 122.433V124.389C183.224 124.54 185.963 125.166 186.133 127.242V160.846C186.133 163.146 183.106 164.123 180.882 164.272V166.522C187.001 166.17 193.99 166.036 200.438 166.522V164.272C198.229 164.161 195.196 162.694 195.196 160.81ZM259.997 132.642C256.862 133.606 254.695 136.737 253.731 139.631L253.609 131.888L250.999 131.908C248.103 134.318 244.644 135.472 241.025 135.957V137.913C242.043 138.066 244.78 138.682 244.952 140.759V160.846C244.952 163.146 241.924 164.123 239.705 164.272V166.522C245.821 166.17 252.807 166.036 259.26 166.522V164.272C257.044 164.161 254.015 162.694 254.015 160.81L254.008 145.108C254.055 143.15 255.029 141.115 256.382 139.873C257.557 138.742 259.517 140.111 260.72 140.836C262.648 141.554 264.814 141.08 266.261 139.153C267.166 138.025 267.23 135.773 265.783 134.086C264.334 132.642 262.17 131.922 259.997 132.642ZM145.781 132.642C142.652 133.606 140.478 136.737 139.516 139.631L139.385 131.888L136.779 131.908C133.89 134.318 130.429 135.472 126.814 135.957V137.913C127.826 138.066 130.57 138.682 130.744 140.759V160.846C130.744 163.146 127.709 164.123 125.48 164.272V166.522C131.607 166.17 138.59 166.036 145.038 166.522V164.272C142.831 164.161 139.8 162.694 139.8 160.81L139.791 145.108C139.843 143.15 140.822 141.115 142.167 139.873C143.344 138.742 145.299 140.111 146.503 140.836C148.433 141.554 150.607 141.08 152.051 139.153C152.945 138.025 153.011 135.773 151.564 134.086C150.121 132.642 147.957 131.922 145.781 132.642ZM100.716 142.248C101.503 138.224 102.439 136.065 105.983 134.938C109.523 133.806 111.817 136.154 112.614 137.422C113.366 138.625 114.873 141.342 113.968 142.166L101.162 152.337C101.162 152.337 99.8822 146.463 100.716 142.248ZM112.013 160.776C104.123 160.101 102.414 155.523 102.414 155.523L122.9 138.894L121.94 137.205C121.94 137.205 120.902 137.05 119.397 135.994C117.886 134.938 112.25 130.395 103.876 132.527C95.8888 134.563 88.3632 142.395 91.2989 154.146C94.0492 165.152 103.876 166.89 109.296 166.952C116.91 167.024 122.397 160.846 122.935 159.946L121.346 157.911C121.346 157.911 118.182 161.301 112.013 160.776ZM83.0564 162.275C80.4482 162.275 79.9502 158.866 79.9502 158.866V135.994H87.4809V132.981H79.9502V124.344H77.337C77.337 124.344 75.5307 127.459 72.7153 129.766C69.9082 132.075 66.4912 133.897 66.4912 133.897V135.994H71.3118V158.992C71.3118 163.105 73.519 167 79.9502 167C86.3781 167 88.3849 162.404 88.3849 162.404L86.2779 160.897C86.2779 160.897 85.4708 162.275 83.0564 162.275ZM60.2438 160.81L60.2304 143.352C60.4744 139.254 59.0274 136.246 55.8962 133.832C49.6287 130.221 41.9108 133.357 36.6108 136.724L36.427 131.882L33.4779 131.908C30.5856 134.318 27.1235 135.472 23.5094 135.957V137.913C24.5253 138.066 27.2605 138.682 27.4326 140.759V160.846C27.4326 163.146 24.4016 164.123 22.1844 164.272V166.522C28.2981 166.17 35.63 166.036 42.0729 166.522V164.272C39.864 164.161 36.8364 162.694 36.8364 160.81L36.828 141.678C38.2683 138.667 42.8783 136.485 47.2109 137.69C49.1441 138.172 50.6863 140.936 50.8367 143.312L50.8434 160.846C50.8434 163.146 47.8141 164.123 45.5868 164.272V166.522C51.7123 166.17 59.0391 166.036 65.482 166.522V164.272C63.2765 164.161 60.2438 162.694 60.2438 160.81Z" fill="#d1ac53"/>
    <path fill-rule="evenodd" clip-rule="evenodd" d="M247.532 26.9619C247.763 26.9619 247.995 26.885 248.186 26.723C261.917 15.1504 279.645 8.17779 299.012 8.17779C311.058 8.17779 322.468 10.8746 332.679 15.7001C333.187 15.9374 333.792 15.7218 334.029 15.2172C334.27 14.7093 334.054 14.1044 333.548 13.8638C323.073 8.91465 311.362 6.146 299.012 6.146C279.154 6.146 260.958 13.3007 246.877 25.1724C246.45 25.5316 246.394 26.1699 246.754 26.6027C246.956 26.8383 247.243 26.9619 247.532 26.9619ZM376.005 62.0488C375.83 61.5175 375.258 61.2251 374.727 61.3955C374.192 61.5693 373.903 62.1441 374.075 62.6771C376.573 70.3648 377.922 78.5672 377.922 87.0871C377.922 103.669 372.814 119.043 364.082 131.743C363.764 132.204 363.881 132.838 364.341 133.153C364.519 133.275 364.72 133.334 364.919 133.334C365.24 133.334 365.557 133.178 365.754 132.893H365.753C374.71 119.87 379.952 104.085 379.952 87.0871C379.952 78.3517 378.567 69.9354 376.005 62.0488ZM222.207 65.6498C222.666 65.658 223.061 65.3422 223.204 64.8827C225.921 56.2225 227.66 52.757 231.614 46.1069C231.899 45.624 231.752 45.0025 231.275 44.7117C230.795 44.4193 230.162 44.5664 229.883 45.0492C225.732 52.194 224.127 55.5675 221.238 64.3881C221.062 64.9211 221.43 65.4875 221.973 65.6212C222.051 65.6396 222.13 65.6498 222.207 65.6498Z" fill="#d1ac53"/>
    <path fill-rule="evenodd" clip-rule="evenodd" d="M387.847 45.9402C387.847 45.9402 387.81 45.9368 387.748 45.9318C386.72 45.1833 384.824 44.3696 381.643 42.7087C375.231 39.3636 372.516 39.6125 369.388 38.9058C365.345 37.9951 366.451 37.2148 360.325 35.5105C354.354 33.848 352.354 34.0385 352.354 34.0385C353.826 29.3466 356.8 31.9482 358.399 31.614C359.791 31.3233 360.524 30.5363 360.431 28.4945C360.337 26.4493 361.711 24.4008 361.711 24.4008C361.711 24.4008 362.715 24.0766 362.955 23.9329C363.154 23.8143 363.158 23.5336 362.98 23.2228C362.675 22.6748 362.021 21.6054 361.808 20.3422C361.508 18.5978 362.307 17.2494 361.965 16.6395C356.693 14.9954 346.427 19.8794 347.435 18.5059C355.577 12.9652 366.011 13.3028 363.921 12.0596C361.074 10.3687 361.691 9.26257 357.971 6.5691C356.036 5.16221 353.373 4.79127 350.686 5.0937C351.222 4.18474 352.556 1.74692 352.073 0.535526C351.47 -0.963259 342.559 1.13872 336.55 1.33922C330.54 1.53806 326.911 0.139526 326.911 0.139526C326.911 0.139526 327.825 2.55229 331.954 3.46292C335.688 4.28834 338.788 3.64505 339.702 3.56651C339.83 3.55649 340.32 4.41365 340.32 4.41365C340.32 4.41365 338.946 4.96839 335.538 4.96839C332.126 4.96839 329.172 3.87229 329.172 3.87229C329.172 3.87229 331.402 6.5173 335.159 7.0052C339.169 7.52819 341.605 6.6493 341.605 6.6493L342.24 7.49477C336.594 9.6452 331.991 7.0052 331.991 7.0052C331.991 7.0052 332.804 8.95345 336.062 9.60677C339.102 10.2183 340.998 9.71872 341.241 9.65021C340.35 10.9418 339.962 12.4155 339.677 14.0079C339.389 15.1006 339.147 16.3455 339.022 17.6822C338.093 21.6689 333.788 24.9204 334.433 25.288C335.083 25.659 342.22 21.9897 342.22 21.9897C342.22 21.9897 342.24 26.7985 339.805 29.8897C337.372 32.9758 334.39 32.3709 330.194 33.4737C327.917 34.0719 327.24 34.5732 325.783 34.4077C323.718 34.1705 320.911 34.0518 318.323 34.7469C314.846 35.6793 310.804 38.224 308.541 38.732C306.521 39.1865 300.053 39.7663 297.407 40.6452L295.44 41.3219C293.779 41.915 292.568 42.3411 291.258 42.4263C290.506 42.4614 289.562 42.4714 288.506 42.2108C286.962 41.8265 285.045 41.3469 282.706 41.5023C280.253 41.6527 278.876 41.8415 274.634 42.9894C270.39 44.1423 265.788 45.6077 263.618 45.5876C260.366 45.5642 259.486 44.8374 256.884 43.8198C255.594 43.3152 252.537 43.4923 250.354 44.1807C249.085 43.1999 247.927 42.2676 247.343 41.5875C246.015 40.0303 245.958 37.2031 244.092 35.1145C242.227 33.0226 241.86 30.3943 242 28.5279C242.142 26.6632 242.453 26.1519 242.03 24.0599C241.607 21.968 240.279 20.9955 239.995 21.1208C239.723 21.2428 239.293 23.2496 239.739 24.7116C240.391 26.8303 240.05 28.6398 240.022 30.6766C240.007 31.8362 240.757 33.7845 240.588 33.7845C240.418 33.7845 238.949 32.6249 238.638 30.563C238.516 29.761 238.523 25.2212 237.422 23.7508C236.319 22.2804 236.122 19.4817 235.951 18.4658C235.321 14.6829 234.406 11.824 233.916 12.0697C233.659 12.1983 233.477 12.748 233.35 13.6854C233.067 15.8007 233.388 18.2803 233.539 19.7323C233.532 19.7273 233.53 19.719 233.525 19.7089C232.802 18.536 231.654 17.9428 230.578 18.6245C230.339 18.7749 230.06 18.9955 229.756 19.2411C230.043 17.505 230.128 15.6353 230.128 14.3922C230.128 12.2334 229.366 12.1448 228.093 11.6803C226.822 11.2142 226.865 10.8315 226.187 9.68864C225.507 8.54408 224.407 7.95092 223.346 8.58753C222.287 9.22079 220.419 11.1707 218.937 11.1707C217.451 11.1707 216.987 11.6386 216.095 13.5885C215.204 15.5384 214.653 14.86 214.4 16.3438C214.213 17.4332 215.77 21.6589 219.953 23.044C221.169 23.4467 222.335 23.7024 223.408 23.8327C222.669 24.2989 221.757 24.9488 221.652 26.5562C221.485 29.1077 223.757 32.6433 227.386 33.7093C229.091 34.2072 231.707 34.4562 233.709 34.2106C236.59 34.6183 238.551 36.3677 240.53 37.7996C241.833 38.7387 244.01 41.3319 245.138 42.4063C245.589 42.8357 248.334 44.7823 248.555 45.0329C248.557 45.0362 248.557 45.0429 248.558 45.0496C248.371 45.195 248.211 45.3487 248.107 45.5141C247.516 45.2585 244.323 43.0596 243.499 42.3495C242.282 41.3035 238.835 37.3518 234.934 35.7411C234.359 35.5055 233.271 36.0001 231.422 36.1889C229.472 36.3861 228.1 36.077 227.607 36.0185C226.932 35.9399 226.538 36.6684 223.629 37.6576C220.716 38.6468 218.567 40.2291 217.832 40.7671C217.1 41.3035 217.542 41.6744 218.031 41.8131C218.554 41.9601 223.881 43.1131 226.285 41.7563C228.688 40.4012 230.864 39.5775 232.732 39.5507C234.596 39.5223 236.461 40.2876 238.667 42.3211C240.87 44.3562 241.238 44.0187 242.538 44.3278C243.838 44.6402 246.1 46.0538 247.768 47.4373C249.435 48.8225 249.887 49.0781 252.064 50.2644C254.243 51.4508 266.465 59.8169 267.2 60.126C267.935 60.4385 268.749 59.1886 268.44 58.8495C268.129 58.5086 267.327 57.9806 267.128 57.6715C266.931 57.359 266.791 56.2863 266.62 55.9739C266.452 55.6614 264.711 54.7875 262.749 53.6279C261.269 52.7541 259.807 51.7682 258.483 50.7941C262.356 50.348 268.203 50.4566 276.43 50.7273C281.827 50.9061 286.534 49.7164 290.339 49.7097C294.519 49.708 297.707 50.9746 301.99 50.9779C309.758 50.9846 311.48 50.8309 311.48 50.8309C311.48 50.8309 309.24 59.5278 309.24 65.8438C309.24 71.0269 306.767 71.3076 301.313 74.753C297.408 77.2225 296.03 80.4239 296.03 80.4239C295.931 80.4239 285.765 80.8383 277.653 84.942C269.782 88.9104 268.191 89.1877 267.611 89.44C267.032 89.6957 266.701 89.5654 266.701 89.5654C266.594 89.5035 258.51 85.993 252.064 85.0874C246.513 84.3104 243.074 85.3731 242.057 85.3731C236.207 85.3731 230.501 85.5736 230.501 85.5736L234.229 82.7699C235.311 82.1249 237.086 80.9185 237.253 79.8141C237.495 78.215 228.743 75.5165 223.46 72.651C218.176 69.7804 215.752 66.736 215.752 66.736C215.752 66.736 215.316 69.2808 218.419 72.1564C221.222 74.758 224.118 75.7421 224.945 76.1381C224.962 76.1448 224.974 76.1715 224.985 76.2083L225.035 77.1824C224.949 77.1674 223.597 76.9401 220.748 75.2659C217.807 73.5416 215.812 71.1021 215.812 71.1021C215.812 71.1021 216.399 74.5107 219.393 76.8349C222.584 79.3128 225.129 79.789 225.129 79.789L225.186 80.2953L225.214 80.8316C219.281 79.8157 216.658 75.2292 216.658 75.2292C216.658 75.2292 216.335 77.1741 218.851 79.5334C220.648 81.2193 222.928 82.5928 225.338 83.3563L225.423 85.1141C223.958 84.8251 222.609 84.3672 222.051 83.5736C221.229 82.4073 219.889 81.0472 218.661 80.8935C215.937 80.5576 214.367 82.703 212.295 84.4157C210.225 86.1283 208.517 85.2962 205.344 86.4224C202.173 87.5486 200.53 91.2546 200.846 92.0416C201.16 92.8269 200.62 93.0141 205.326 91.8327C209.976 90.6665 210.23 90.5562 214.851 91.1677C219.47 91.7776 222.339 90.5178 225.477 90.4309C230.468 90.2905 230.808 91.2797 239.881 93.258C248.954 95.2363 263.725 98.812 263.964 98.939C264.204 99.0643 267.272 100.635 272.36 100.211C277.715 99.7645 280.596 100.343 287.199 99.4487C300.949 97.5906 304.509 95.5171 304.509 95.5171C304.509 95.5171 309.417 98.8271 316.032 102.585C326.632 108.607 334.179 111.913 334.179 111.913C334.179 111.913 336.831 122.641 340.088 127.715C341.784 130.36 344.357 132.494 344.721 132.918C347.209 135.797 349.473 138.419 351.694 141.144C351.206 141.179 350.725 141.206 350.252 141.219C344.242 141.421 340.612 140.023 340.612 140.023C340.612 140.023 341.525 142.436 345.655 143.348C349.389 144.173 352.489 143.525 353.403 143.448C353.532 143.436 354.025 144.299 354.025 144.299C354.025 144.299 352.649 144.852 349.241 144.852C345.829 144.852 342.873 143.757 342.873 143.757C342.873 143.757 345.105 146.401 348.863 146.887C352.868 147.411 355.304 146.533 355.304 146.533L355.802 147.196C355.834 147.261 355.864 147.33 355.894 147.393C350.272 149.512 345.692 146.887 345.692 146.887C345.692 146.887 346.397 148.731 349.765 149.492C352.344 150.073 354.329 150.229 356.522 149.605C356.586 150.72 356.111 151.393 355.672 152.391C355.096 153.696 354.04 155.896 354.541 157.024C355.654 159.534 359.468 159.074 362.005 159.966C364.539 160.855 364.705 162.749 367.306 164.887C369.908 167.024 373.931 166.52 374.441 165.845C374.951 165.17 375.39 165.536 371.955 162.114C368.556 158.73 368.327 158.568 366.469 154.294C364.727 150.282 364.616 151.226 361.612 146.823C362.367 146.113 362.64 145.597 362.64 145.597C362.64 145.597 364.842 142.19 364.24 140.689C363.906 139.849 361.452 140.053 358.304 140.43C358.304 140.43 355.012 129.637 352.579 122.428C350.15 115.22 346.482 107.745 346.374 107.476C346.263 107.208 346.023 106.374 345.939 105.95C345.852 105.526 345.329 104.057 344.34 102.968C343.353 101.88 340.41 99.604 340.114 99.335C339.817 99.0643 337.989 96.5179 333.793 92.0232C329.593 87.5285 322.035 81.0956 322.035 81.0956C322.321 79.2777 322.879 78.9352 324.525 77.0488C326.169 75.1606 328.353 73.3093 329.752 72.397C335.349 68.7495 340.482 63.3792 342.566 60.928L342.562 60.9264C342.031 60.7426 341.637 60.4953 341.476 60.1628L341.366 59.9355L341.374 59.6866C341.376 59.5579 341.513 56.5854 345.224 55.6113C345.742 55.4743 346.175 55.364 346.547 55.2721C346.547 55.2721 346.768 55.222 347.082 55.1434C346.2 54.6104 346.008 54.0039 346.165 54.059C346.34 54.1225 348.258 54.5219 349.05 54.5469H349.199C349.231 54.5486 349.258 54.5553 349.291 54.5569C350.564 54.6171 351.928 54.8727 350.704 55.2387C348.592 55.8736 348.497 55.8051 345.481 56.5954C342.462 57.3874 342.388 59.7166 342.388 59.7166C342.562 60.0725 344.925 60.5254 348.562 60.3549C352.202 60.1862 356.175 58.1209 358.952 57.7032C363.734 56.9914 371.651 59.0282 378.022 56.5152C382.119 54.8995 383.096 53.0515 384.597 52.1759C386.094 51.3021 387.887 50.201 388.433 49.4407C388.974 48.6821 389.203 46.7606 387.847 45.9402ZM222.962 17.7791C219.799 18.5778 217.909 16.8484 217.555 16.449C217.201 16.0464 217.485 15.6119 218.076 15.8776C219.617 16.5677 220.502 16.3739 220.502 16.3739C220.502 16.3739 220.131 14.6345 220.638 13.4181C221.144 12.2 222.681 11.4698 222.984 11.3746C223.57 11.1841 223.747 11.7806 223.431 11.8808C223.116 11.9828 221.953 12.5459 221.764 13.9695C221.573 15.3964 223.074 15.7389 223.913 14.992C224.75 14.2418 224.94 13.2543 225.156 12.5559C225.345 11.951 225.832 12.2167 225.869 12.6912C225.903 13.1407 226.125 16.9821 222.962 17.7791ZM230.204 27.9715C227.056 28.8086 225.146 27.1043 224.785 26.7083C224.427 26.3156 224.7 25.8879 225.301 26.1335C227.005 26.8286 227.731 26.598 227.731 26.598C227.731 26.598 227.383 25.1995 227.951 23.6957C228.207 23.0206 228.731 22.3941 229.194 22.0916C229.655 21.7875 229.871 22.3556 229.597 22.6497C229.345 22.9271 229.042 23.4952 228.959 24.1836C228.787 25.6072 230.29 25.9313 231.117 25.1727C231.946 24.4158 232.122 23.4267 232.329 22.7266C232.509 22.12 233.001 22.3807 233.044 22.8536C233.081 23.3014 233.353 27.136 230.204 27.9715ZM301.983 93.4151C301.843 93.9631 295.412 95.3851 289.475 96.3258C283.538 97.2665 281.373 97.995 281.466 96.9223C281.562 95.8496 285.694 96.2021 290.203 93.7827C294.711 91.3632 295.67 88.2921 296.645 88.1668C297.644 88.0398 296.99 88.496 298.668 90.2989C300.347 92.1034 302.122 92.867 301.983 93.4151ZM326.889 103.806C326.38 105.049 322.192 102.612 312.115 96.3325C303.246 90.8035 299.509 88.9271 299.848 83.4984C300.078 79.789 304.108 76.367 307.657 75.6252C309.3 75.2826 309.856 75.545 311.808 76.7731C314.244 78.3103 314.775 78.9786 314.224 79.2744C311.303 80.85 309.019 85.2912 310.211 88.0315C312.475 93.2346 327.397 102.56 326.889 103.806ZM322.052 57.0299C315.156 61.0149 315.268 64.1796 314.986 64.8312C314.704 65.4812 311.933 63.6716 312.045 62.3433C312.159 61.0149 312.506 59.2404 313.141 56.3147C313.903 52.8125 314.553 50.4566 315.008 50.2294C315.459 50.0055 318.914 48.916 320.525 47.703C322.137 46.4866 322.759 43.773 323.409 43.7462C324.059 43.7162 322.817 48.52 325.277 50.4716C327.733 52.4216 333.499 53.1567 333.414 53.6948C333.331 54.2311 328.95 53.0431 322.052 57.0299ZM343.1 36.4028C341.72 36.7486 339.119 36.9007 336.682 36.9776C333.889 37.0644 330.746 37.4203 330.034 37.4203C328.706 37.4203 328.924 36.1471 331.917 35.6475C334.91 35.1513 339.396 33.985 341.722 31.6591C344.049 29.3349 343.328 24.5696 344.215 24.5144C345.1 24.4593 343.882 29.4452 347.759 30.3291C343.882 32.6566 345.705 35.7495 343.1 36.4028ZM365.714 52.1275C362.69 53.5644 360.312 54.0239 357.04 53.6279C355.746 53.4709 355.005 53.4141 354.38 53.3472C353.991 53.3088 353.645 53.2637 353.243 53.1935C357.767 50.5635 358.631 45.6294 358.631 45.6294C358.631 45.6294 361.144 47.0413 365.682 47.9285C368.262 48.4332 370.775 48.3413 371.831 48.8225C369.913 49.4724 368.401 50.8509 365.714 52.1275Z" fill="#d1ac53"/>
    <path fill-rule="evenodd" clip-rule="evenodd" d="M206.101 34.2242C206.281 35.0262 207.39 35.8834 209.188 36.4849C209.756 36.6754 209.374 37.9052 210.906 38.0756C216.126 38.6504 223.887 36.926 225.376 35.8283C226.138 35.2652 225.613 33.9953 224.026 32.8123C222.29 31.5241 220.186 29.9116 218.813 26.5164C217.443 23.1195 215.994 22.6399 214.894 22.2757C214.081 22.0017 212.707 22.0886 210.883 23.574C209.147 24.9875 207.639 24.8873 206.707 26.8038C205.773 28.722 206.893 29.8097 206.742 30.9743C206.593 32.1356 205.815 32.9326 206.101 34.2242ZM208.996 31.9551C211.013 31.9317 211.646 31.3937 211.646 31.3937C211.646 31.3937 210.704 30.1272 210.637 28.3694C210.607 27.5774 210.873 26.7236 211.21 26.219C211.546 25.7177 212.004 26.1973 211.853 26.6133C211.715 26.9993 211.653 27.7027 211.86 28.4312C212.291 29.9417 213.947 29.6326 214.462 28.5165C214.975 27.4003 214.732 26.3243 214.645 25.5323C214.569 24.8438 215.175 24.8956 215.417 25.3535C215.648 25.7896 217.551 29.5457 214.727 31.7296C211.902 33.9101 209.252 32.9994 208.722 32.7538C208.191 32.5082 208.286 31.9618 208.996 31.9551Z" fill="#d1ac53"/>
    <path fill-rule="evenodd" clip-rule="evenodd" d="M343.411 152.334C336.818 156.828 329.513 160.35 321.695 162.691L321.643 162.706C321.113 162.894 320.836 163.475 321.021 164.001C321.21 164.531 321.79 164.808 322.316 164.621L322.366 164.61C330.355 162.203 337.819 158.603 344.554 154.013C345.015 153.694 345.136 153.064 344.82 152.601C344.502 152.14 343.872 152.019 343.411 152.334Z" fill="#d1ac53"/>
</svg>
