<svg width="20" height="20" viewBox="200 111 389 167" fill="none" xmlns="http://www.w3.org/2000/svg">
    <g transform="translate(-200, 30) scale(2, 2)">
        <path fill-rule="evenodd" clip-rule="evenodd" d="M387.847 45.9402C387.847 45.9402 387.81 45.9368 387.748 45.9318C386.72 45.1833 384.824 44.3696 381.643 42.7087C375.231 39.3636 372.516 39.6125 369.388 38.9058C365.345 37.9951 366.451 37.2148 360.325 35.5105C354.354 33.848 352.354 34.0385 352.354 34.0385C353.826 29.3466 356.8 31.9482 358.399 31.614C359.791 31.3233 360.524 30.5363 360.431 28.4945C360.337 26.4493 361.711 24.4008 361.711 24.4008C361.711 24.4008 362.715 24.0766 362.955 23.9329C363.154 23.8143 363.158 23.5336 362.98 23.2228C362.675 22.6748 362.021 21.6054 361.808 20.3422C361.508 18.5978 362.307 17.2494 361.965 16.6395C356.693 14.9954 346.427 19.8794 347.435 18.5059C355.577 12.9652 366.011 13.3028 363.921 12.0596C361.074 10.3687 361.691 9.26257 357.971 6.5691C356.036 5.16221 353.373 4.79127 350.686 5.0937C351.222 4.18474 352.556 1.74692 352.073 0.535526C351.47 -0.963259 342.559 1.13872 336.55 1.33922C330.54 1.53806 326.911 0.139526 326.911 0.139526C326.911 0.139526 327.825 2.55229 331.954 3.46292C335.688 4.28834 338.788 3.64505 339.702 3.56651C339.83 3.55649 340.32 4.41365 340.32 4.41365C340.32 4.41365 338.946 4.96839 335.538 4.96839C332.126 4.96839 329.172 3.87229 329.172 3.87229C329.172 3.87229 331.402 6.5173 335.159 7.0052C339.169 7.52819 341.605 6.6493 341.605 6.6493L342.24 7.49477C336.594 9.6452 331.991 7.0052 331.991 7.0052C331.991 7.0052 332.804 8.95345 336.062 9.60677C339.102 10.2183 340.998 9.71872 341.241 9.65021C340.35 10.9418 339.962 12.4155 339.677 14.0079C339.389 15.1006 339.147 16.3455 339.022 17.6822C338.093 21.6689 333.788 24.9204 334.433 25.288C335.083 25.659 342.22 21.9897 342.22 21.9897C342.22 21.9897 342.24 26.7985 339.805 29.8897C337.372 32.9758 334.39 32.3709 330.194 33.4737C327.917 34.0719 327.24 34.5732 325.783 34.4077C323.718 34.1705 320.911 34.0518 318.323 34.7469C314.846 35.6793 310.804 38.224 308.541 38.732C306.521 39.1865 300.053 39.7663 297.407 40.6452L295.44 41.3219C293.779 41.915 292.568 42.3411 291.258 42.4263C290.506 42.4614 289.562 42.4714 288.506 42.2108C286.962 41.8265 285.045 41.3469 282.706 41.5023C280.253 41.6527 278.876 41.8415 274.634 42.9894C270.39 44.1423 265.788 45.6077 263.618 45.5876C260.366 45.5642 259.486 44.8374 256.884 43.8198C255.594 43.3152 252.537 43.4923 250.354 44.1807C249.085 43.1999 247.927 42.2676 247.343 41.5875C246.015 40.0303 245.958 37.2031 244.092 35.1145C242.227 33.0226 241.86 30.3943 242 28.5279C242.142 26.6632 242.453 26.1519 242.03 24.0599C241.607 21.968 240.279 20.9955 239.995 21.1208C239.723 21.2428 239.293 23.2496 239.739 24.7116C240.391 26.8303 240.05 28.6398 240.022 30.6766C240.007 31.8362 240.757 33.7845 240.588 33.7845C240.418 33.7845 238.949 32.6249 238.638 30.563C238.516 29.761 238.523 25.2212 237.422 23.7508C236.319 22.2804 236.122 19.4817 235.951 18.4658C235.321 14.6829 234.406 11.824 233.916 12.0697C233.659 12.1983 233.477 12.748 233.35 13.6854C233.067 15.8007 233.388 18.2803 233.539 19.7323C233.532 19.7273 233.53 19.719 233.525 19.7089C232.802 18.536 231.654 17.9428 230.578 18.6245C230.339 18.7749 230.06 18.9955 229.756 19.2411C230.043 17.505 230.128 15.6353 230.128 14.3922C230.128 12.2334 229.366 12.1448 228.093 11.6803C226.822 11.2142 226.865 10.8315 226.187 9.68864C225.507 8.54408 224.407 7.95092 223.346 8.58753C222.287 9.22079 220.419 11.1707 218.937 11.1707C217.451 11.1707 216.987 11.6386 216.095 13.5885C215.204 15.5384 214.653 14.86 214.4 16.3438C214.213 17.4332 215.77 21.6589 219.953 23.044C221.169 23.4467 222.335 23.7024 223.408 23.8327C222.669 24.2989 221.757 24.9488 221.652 26.5562C221.485 29.1077 223.757 32.6433 227.386 33.7093C229.091 34.2072 231.707 34.4562 233.709 34.2106C236.59 34.6183 238.551 36.3677 240.53 37.7996C241.833 38.7387 244.01 41.3319 245.138 42.4063C245.589 42.8357 248.334 44.7823 248.555 45.0329C248.557 45.0362 248.557 45.0429 248.558 45.0496C248.371 45.195 248.211 45.3487 248.107 45.5141C247.516 45.2585 244.323 43.0596 243.499 42.3495C242.282 41.3035 238.835 37.3518 234.934 35.7411C234.359 35.5055 233.271 36.0001 231.422 36.1889C229.472 36.3861 228.1 36.077 227.607 36.0185C226.932 35.9399 226.538 36.6684 223.629 37.6576C220.716 38.6468 218.567 40.2291 217.832 40.7671C217.1 41.3035 217.542 41.6744 218.031 41.8131C218.554 41.9601 223.881 43.1131 226.285 41.7563C228.688 40.4012 230.864 39.5775 232.732 39.5507C234.596 39.5223 236.461 40.2876 238.667 42.3211C240.87 44.3562 241.238 44.0187 242.538 44.3278C243.838 44.6402 246.1 46.0538 247.768 47.4373C249.435 48.8225 249.887 49.0781 252.064 50.2644C254.243 51.4508 266.465 59.8169 267.2 60.126C267.935 60.4385 268.749 59.1886 268.44 58.8495C268.129 58.5086 267.327 57.9806 267.128 57.6715C266.931 57.359 266.791 56.2863 266.62 55.9739C266.452 55.6614 264.711 54.7875 262.749 53.6279C261.269 52.7541 259.807 51.7682 258.483 50.7941C262.356 50.348 268.203 50.4566 276.43 50.7273C281.827 50.9061 286.534 49.7164 290.339 49.7097C294.519 49.708 297.707 50.9746 301.99 50.9779C309.758 50.9846 311.48 50.8309 311.48 50.8309C311.48 50.8309 309.24 59.5278 309.24 65.8438C309.24 71.0269 306.767 71.3076 301.313 74.753C297.408 77.2225 296.03 80.4239 296.03 80.4239C295.931 80.4239 285.765 80.8383 277.653 84.942C269.782 88.9104 268.191 89.1877 267.611 89.44C267.032 89.6957 266.701 89.5654 266.701 89.5654C266.594 89.5035 258.51 85.993 252.064 85.0874C246.513 84.3104 243.074 85.3731 242.057 85.3731C236.207 85.3731 230.501 85.5736 230.501 85.5736L234.229 82.7699C235.311 82.1249 237.086 80.9185 237.253 79.8141C237.495 78.215 228.743 75.5165 223.46 72.651C218.176 69.7804 215.752 66.736 215.752 66.736C215.752 66.736 215.316 69.2808 218.419 72.1564C221.222 74.758 224.118 75.7421 224.945 76.1381C224.962 76.1448 224.974 76.1715 224.985 76.2083L225.035 77.1824C224.949 77.1674 223.597 76.9401 220.748 75.2659C217.807 73.5416 215.812 71.1021 215.812 71.1021C215.812 71.1021 216.399 74.5107 219.393 76.8349C222.584 79.3128 225.129 79.789 225.129 79.789L225.186 80.2953L225.214 80.8316C219.281 79.8157 216.658 75.2292 216.658 75.2292C216.658 75.2292 216.335 77.1741 218.851 79.5334C220.648 81.2193 222.928 82.5928 225.338 83.3563L225.423 85.1141C223.958 84.8251 222.609 84.3672 222.051 83.5736C221.229 82.4073 219.889 81.0472 218.661 80.8935C215.937 80.5576 214.367 82.703 212.295 84.4157C210.225 86.1283 208.517 85.2962 205.344 86.4224C202.173 87.5486 200.53 91.2546 200.846 92.0416C201.16 92.8269 200.62 93.0141 205.326 91.8327C209.976 90.6665 210.23 90.5562 214.851 91.1677C219.47 91.7776 222.339 90.5178 225.477 90.4309C230.468 90.2905 230.808 91.2797 239.881 93.258C248.954 95.2363 263.725 98.812 263.964 98.939C264.204 99.0643 267.272 100.635 272.36 100.211C277.715 99.7645 280.596 100.343 287.199 99.4487C300.949 97.5906 304.509 95.5171 304.509 95.5171C304.509 95.5171 309.417 98.8271 316.032 102.585C326.632 108.607 334.179 111.913 334.179 111.913C334.179 111.913 336.831 122.641 340.088 127.715C341.784 130.36 344.357 132.494 344.721 132.918C347.209 135.797 349.473 138.419 351.694 141.144C351.206 141.179 350.725 141.206 350.252 141.219C344.242 141.421 340.612 140.023 340.612 140.023C340.612 140.023 341.525 142.436 345.655 143.348C349.389 144.173 352.489 143.525 353.403 143.448C353.532 143.436 354.025 144.299 354.025 144.299C354.025 144.299 352.649 144.852 349.241 144.852C345.829 144.852 342.873 143.757 342.873 143.757C342.873 143.757 345.105 146.401 348.863 146.887C352.868 147.411 355.304 146.533 355.304 146.533L355.802 147.196C355.834 147.261 355.864 147.33 355.894 147.393C350.272 149.512 345.692 146.887 345.692 146.887C345.692 146.887 346.397 148.731 349.765 149.492C352.344 150.073 354.329 150.229 356.522 149.605C356.586 150.72 356.111 151.393 355.672 152.391C355.096 153.696 354.04 155.896 354.541 157.024C355.654 159.534 359.468 159.074 362.005 159.966C364.539 160.855 364.705 162.749 367.306 164.887C369.908 167.024 373.931 166.52 374.441 165.845C374.951 165.17 375.39 165.536 371.955 162.114C368.556 158.73 368.327 158.568 366.469 154.294C364.727 150.282 364.616 151.226 361.612 146.823C362.367 146.113 362.64 145.597 362.64 145.597C362.64 145.597 364.842 142.19 364.24 140.689C363.906 139.849 361.452 140.053 358.304 140.43C358.304 140.43 355.012 129.637 352.579 122.428C350.15 115.22 346.482 107.745 346.374 107.476C346.263 107.208 346.023 106.374 345.939 105.95C345.852 105.526 345.329 104.057 344.34 102.968C343.353 101.88 340.41 99.604 340.114 99.335C339.817 99.0643 337.989 96.5179 333.793 92.0232C329.593 87.5285 322.035 81.0956 322.035 81.0956C322.321 79.2777 322.879 78.9352 324.525 77.0488C326.169 75.1606 328.353 73.3093 329.752 72.397C335.349 68.7495 340.482 63.3792 342.566 60.928L342.562 60.9264C342.031 60.7426 341.637 60.4953 341.476 60.1628L341.366 59.9355L341.374 59.6866C341.376 59.5579 341.513 56.5854 345.224 55.6113C345.742 55.4743 346.175 55.364 346.547 55.2721C346.547 55.2721 346.768 55.222 347.082 55.1434C346.2 54.6104 346.008 54.0039 346.165 54.059C346.34 54.1225 348.258 54.5219 349.05 54.5469H349.199C349.231 54.5486 349.258 54.5553 349.291 54.5569C350.564 54.6171 351.928 54.8727 350.704 55.2387C348.592 55.8736 348.497 55.8051 345.481 56.5954C342.462 57.3874 342.388 59.7166 342.388 59.7166C342.562 60.0725 344.925 60.5254 348.562 60.3549C352.202 60.1862 356.175 58.1209 358.952 57.7032C363.734 56.9914 371.651 59.0282 378.022 56.5152C382.119 54.8995 383.096 53.0515 384.597 52.1759C386.094 51.3021 387.887 50.201 388.433 49.4407C388.974 48.6821 389.203 46.7606 387.847 45.9402ZM222.962 17.7791C219.799 18.5778 217.909 16.8484 217.555 16.449C217.201 16.0464 217.485 15.6119 218.076 15.8776C219.617 16.5677 220.502 16.3739 220.502 16.3739C220.502 16.3739 220.131 14.6345 220.638 13.4181C221.144 12.2 222.681 11.4698 222.984 11.3746C223.57 11.1841 223.747 11.7806 223.431 11.8808C223.116 11.9828 221.953 12.5459 221.764 13.9695C221.573 15.3964 223.074 15.7389 223.913 14.992C224.75 14.2418 224.94 13.2543 225.156 12.5559C225.345 11.951 225.832 12.2167 225.869 12.6912C225.903 13.1407 226.125 16.9821 222.962 17.7791ZM230.204 27.9715C227.056 28.8086 225.146 27.1043 224.785 26.7083C224.427 26.3156 224.7 25.8879 225.301 26.1335C227.005 26.8286 227.731 26.598 227.731 26.598C227.731 26.598 227.383 25.1995 227.951 23.6957C228.207 23.0206 228.731 22.3941 229.194 22.0916C229.655 21.7875 229.871 22.3556 229.597 22.6497C229.345 22.9271 229.042 23.4952 228.959 24.1836C228.787 25.6072 230.29 25.9313 231.117 25.1727C231.946 24.4158 232.122 23.4267 232.329 22.7266C232.509 22.12 233.001 22.3807 233.044 22.8536C233.081 23.3014 233.353 27.136 230.204 27.9715ZM301.983 93.4151C301.843 93.9631 295.412 95.3851 289.475 96.3258C283.538 97.2665 281.373 97.995 281.466 96.9223C281.562 95.8496 285.694 96.2021 290.203 93.7827C294.711 91.3632 295.67 88.2921 296.645 88.1668C297.644 88.0398 296.99 88.496 298.668 90.2989C300.347 92.1034 302.122 92.867 301.983 93.4151ZM326.889 103.806C326.38 105.049 322.192 102.612 312.115 96.3325C303.246 90.8035 299.509 88.9271 299.848 83.4984C300.078 79.789 304.108 76.367 307.657 75.6252C309.3 75.2826 309.856 75.545 311.808 76.7731C314.244 78.3103 314.775 78.9786 314.224 79.2744C311.303 80.85 309.019 85.2912 310.211 88.0315C312.475 93.2346 327.397 102.56 326.889 103.806ZM322.052 57.0299C315.156 61.0149 315.268 64.1796 314.986 64.8312C314.704 65.4812 311.933 63.6716 312.045 62.3433C312.159 61.0149 312.506 59.2404 313.141 56.3147C313.903 52.8125 314.553 50.4566 315.008 50.2294C315.459 50.0055 318.914 48.916 320.525 47.703C322.137 46.4866 322.759 43.773 323.409 43.7462C324.059 43.7162 322.817 48.52 325.277 50.4716C327.733 52.4216 333.499 53.1567 333.414 53.6948C333.331 54.2311 328.95 53.0431 322.052 57.0299ZM343.1 36.4028C341.72 36.7486 339.119 36.9007 336.682 36.9776C333.889 37.0644 330.746 37.4203 330.034 37.4203C328.706 37.4203 328.924 36.1471 331.917 35.6475C334.91 35.1513 339.396 33.985 341.722 31.6591C344.049 29.3349 343.328 24.5696 344.215 24.5144C345.1 24.4593 343.882 29.4452 347.759 30.3291C343.882 32.6566 345.705 35.7495 343.1 36.4028ZM365.714 52.1275C362.69 53.5644 360.312 54.0239 357.04 53.6279C355.746 53.4709 355.005 53.4141 354.38 53.3472C353.991 53.3088 353.645 53.2637 353.243 53.1935C357.767 50.5635 358.631 45.6294 358.631 45.6294C358.631 45.6294 361.144 47.0413 365.682 47.9285C368.262 48.4332 370.775 48.3413 371.831 48.8225C369.913 49.4724 368.401 50.8509 365.714 52.1275Z" fill="#d1ac53"/>
        <path fill-rule="evenodd" clip-rule="evenodd" d="M206.101 34.2242C206.281 35.0262 207.39 35.8834 209.188 36.4849C209.756 36.6754 209.374 37.9052 210.906 38.0756C216.126 38.6504 223.887 36.926 225.376 35.8283C226.138 35.2652 225.613 33.9953 224.026 32.8123C222.29 31.5241 220.186 29.9116 218.813 26.5164C217.443 23.1195 215.994 22.6399 214.894 22.2757C214.081 22.0017 212.707 22.0886 210.883 23.574C209.147 24.9875 207.639 24.8873 206.707 26.8038C205.773 28.722 206.893 29.8097 206.742 30.9743C206.593 32.1356 205.815 32.9326 206.101 34.2242ZM208.996 31.9551C211.013 31.9317 211.646 31.3937 211.646 31.3937C211.646 31.3937 210.704 30.1272 210.637 28.3694C210.607 27.5774 210.873 26.7236 211.21 26.219C211.546 25.7177 212.004 26.1973 211.853 26.6133C211.715 26.9993 211.653 27.7027 211.86 28.4312C212.291 29.9417 213.947 29.6326 214.462 28.5165C214.975 27.4003 214.732 26.3243 214.645 25.5323C214.569 24.8438 215.175 24.8956 215.417 25.3535C215.648 25.7896 217.551 29.5457 214.727 31.7296C211.902 33.9101 209.252 32.9994 208.722 32.7538C208.191 32.5082 208.286 31.9618 208.996 31.9551Z" fill="#d1ac53"/>
        <path fill-rule="evenodd" clip-rule="evenodd" d="M343.411 152.334C336.818 156.828 329.513 160.35 321.695 162.691L321.643 162.706C321.113 162.894 320.836 163.475 321.021 164.001C321.21 164.531 321.79 164.808 322.316 164.621L322.366 164.61C330.355 162.203 337.819 158.603 344.554 154.013C345.015 153.694 345.136 153.064 344.82 152.601C344.502 152.14 343.872 152.019 343.411 152.334Z" fill="#d1ac53"/>
    </g>
</svg>
