<svg xmlns="http://www.w3.org/2000/svg" width="231" height="199" viewBox="0 0 231 199">
    <g fill="none" fill-rule="evenodd" stroke="#D8E1EE" stroke-linecap="round" stroke-linejoin="round" stroke-width="2.5">
        <path d="M28.8 69.752v127.95M105.501 120.26l1.932 3.775h11.396v11.855H102.86l-15.969 26.319v16.302l11.312 6.32H65.6v-21.624l-9.316-5.887s1.664-12.744 1.664-13.742V113.93L70.59 98.665l16.301-1.996 8.318-10.816h7.052l6.255-8.927-2.096 12.873 1.286 19.629-2.205 10.833z"/>
        <path d="M103.859 157.32l-11.977 5.222 5.989 11.31 10.978 6.987 4.99-6.654v-7.651zM116.168 152.228h10.98l2.993-5.773-5.657-4.207 9.982 1.996 1.663 10.355 3.327-6.176-1.664-6.175 8.317-4.658 5.656 3.327v13.682l-9.648 7.277 8.318 4.658-10.314 7.319 3.66 6.986-11.644-2.994.333-5.988-7.653 1.33-2.994-5.655 2.33-2.662-2.995-7.55z"/>
        <path stroke-dasharray="1,5" d="M88.437 136.672L78.575 148.9s-11.644-.332-11.977 0c-.333.333 5.988-14.305 5.988-14.305L68.26 121.62l15.969-10.734 10.979 12.848 20.439-8.751 10.574-10.575"/>
        <path d="M179.16 69.752h22.945M1.25 69.752h139.991M194.276 55.532h2.891c2.727 0 4.939 2.517 4.939 5.623v130.924c0 3.105-2.212 5.623-4.939 5.623H6.19c-2.729 0-4.94-2.518-4.94-5.623V61.155c0-3.106 2.212-5.623 4.94-5.623h149.845"/>
        <path d="M127.678 102.561l27.302-8.628 74.01-74.01L210.317 1.25l-74.01 74.01-8.63 27.301M195.788 15.778L213.83 33.82M136.307 75.26l18.673 18.673"/>
        <path d="M130.864 92.226a8.996 8.996 0 0 1 4.666 2.482 9.003 9.003 0 0 1 2.468 4.591"/>
    </g>
</svg>
