<svg xmlns="http://www.w3.org/2000/svg" width="24" height="24" viewBox="0 0 24 24">
  <g>
    <path d="M23,16a1,1,0,0,0-1,1v4H2V17a1,1,0,0,0-2,0v4a2,2,0,0,0,2,2H22a2,2,0,0,0,2-2V17A1,1,0,0,0,23,16Z" fill="currentColor"/>
    <path d="M8,8a1,1,0,0,0,.7-.29L11,5.39V16a1,1,0,0,0,2,0V5.39l2.3,2.27A1,1,0,0,0,16,8a1,1,0,0,0,.71-.3,1,1,0,0,0,0-1.41l-4-3.95a.71.71,0,0,0-.18-.12l-.14-.1-.21,0A1,1,0,0,0,12,2a1,1,0,0,0-.17,0l-.21,0-.14.1a.71.71,0,0,0-.18.12l-4,4a1,1,0,0,0,0,1.41A1,1,0,0,0,8,8Z" fill="currentColor"/>
  </g>
</svg>
