<svg xmlns="http://www.w3.org/2000/svg" width="24" height="24" viewBox="0 0 24 24">
  <path d="M 15.31 9.75 a 5 5 0 1 0 -6.63 0 c -4.68 2.25 -5.68 6.25 -5.68 9.25 v 0.63 A 2.32 2.32 0 0 0 5.23 22 h 13.5 A 2.32 2.32 0 0 0 21 19.62 v -0.48 A 10.4 10.4 0 0 0 15.31 9.75 Z M 12 3 a 3 3 0 0 1 0.11 6 h -0.11 A 3 3 0 0 1 12 3 Z Z m -13 14 Z m 20 2.83 c 0 0.23 -0.14 0.38 -0.25 0.38 H 17 V 18 a 1 1 0 0 0 -2 0 v 2 H 9 V 18 a 1 1 0 0 0 -2 0 v 2 H 5.23 c -0.1 0 -0.25 -0.15 -0.25 -0.38 v -0.8 H 5 A 7.92 7.92 0 0 1 5 18 a 2.34 2.34 0 0 1 0 -0.26 a 5.81 5.81 0 0 1 0.09 -0.58 a 2.68 2.68 0 0 1 0.07 -0.27 a 4.77 4.77 0 0 1 0.15 -0.54 a 2.58 2.58 0 0 1 0.08 -0.26 c 0.07 -0.18 0.14 -0.37 0.22 -0.55 s 0.05 -0.13 0.08 -0.2 s 0.21 -0.42 0.33 -0.62 l 0 -0.08 a 8.12 8.12 0 0 1 1.54 -1.89 A 6.57 6.57 0 0 1 11.93 11 h 0.19 c 3.72 0.08 6.86 3.8 6.86 8.14 Z" fill="currentColor"/>
</svg>
