<svg xmlns="http://www.w3.org/2000/svg" width="24" height="24" viewBox="0 0 24 24">
  <path d="M18.31,9.75a5,5,0,1,0-6.63,0,8.87,8.87,0,0,0-2.33,1.51,4.88,4.88,0,0,0-.7-.49,3.46,3.46,0,0,0,.83-2.23,3.5,3.5,0,1,0-6.16,2.24,7,7,0,0,0-3.3,6v.55A1.57,1.57,0,0,0,1.52,19H6v.63A2.32,2.32,0,0,0,8.23,22h13.5A2.32,2.32,0,0,0,24,19.62v-.48A10.4,10.4,0,0,0,18.31,9.75ZM15,3a3,3,0,0,1,.11,6h-.2A3,3,0,0,1,15,3ZM6,7a1.49,1.49,0,0,1,.07,3H6A1.5,1.5,0,0,1,6,7ZM2,16.79C2,14.21,3.82,12,6,12h.11A3.29,3.29,0,0,1,8,12.7c-.12.15-.21.32-.32.48l-.15.22a10.9,10.9,0,0,0-.6,1.12l0,.05A10.64,10.64,0,0,0,6.14,17H2Zm20,2.83c0,.23-.14.38-.25.38H20V18a1,1,0,0,0-2,0v2H12V18a1,1,0,0,0-2,0v2H8.23c-.1,0-.25-.15-.25-.38v-.8H8A7.92,7.92,0,0,1,8,18a2.34,2.34,0,0,1,0-.26,5.81,5.81,0,0,1,.09-.58,2.68,2.68,0,0,1,.07-.27,4.77,4.77,0,0,1,.15-.54,2.58,2.58,0,0,1,.08-.26c.07-.18.14-.37.22-.55s.05-.13.08-.2.21-.42.33-.62l0-.08a8.12,8.12,0,0,1,1.54-1.89A6.57,6.57,0,0,1,14.93,11h.19c3.72.08,6.86,3.8,6.86,8.14Z" fill="currentColor"/>
</svg>
