<svg xmlns="http://www.w3.org/2000/svg" xmlns:xlink="http://www.w3.org/1999/xlink" width="148" height="26" viewBox="0 0 148 26">
    <defs>
        <path id="prefix__a" d="M0 0.263L17.571 0.263 17.571 26 0 26z"/>
        <path id="prefix__c" d="M0.543 0.262L42.306 0.262 42.306 26 0.543 26z"/>
        <path id="prefix__e" d="M0.33 0.259L29.61 0.259 29.61 25.773 0.33 25.773z"/>
    </defs>
    <g fill="none" fill-rule="evenodd" transform="translate(74, 13) scale(0.9) translate(-81, -13)">
        <g transform="translate(0 -1) translate(0 .741)">
            <mask id="prefix__b" fill="#fff">
                <use xlink:href="#prefix__a"/>
            </mask>
            <path fill="#FFE700" d="M17.063 26c.46 0 .645-.184.398-.46-.191-.218-.522-1.689-.522-3.257V3.98c0-1.567.33-3.039.522-3.255.247-.278.063-.46-.398-.46H.508c-.46 0-.645.182-.4.46C.303.94.633 2.412.633 3.98v18.304c0 1.568-.33 3.04-.523 3.256-.246.277-.061.461.399.461h16.555" mask="url(#prefix__b)"/>
        </g>
        <g transform="translate(0 -1) translate(25 .741)">
            <mask id="prefix__d" fill="#fff">
                <use xlink:href="#prefix__c"/>
            </mask>
            <path fill="#FFE700" d="M16.986 9.45l6.025-8.174c.246-.246.122-.584.122-.738 0-.153 0-.276.124-.276h16.338c.215 0 .124.154.032.276L32.9 9.936c-.308.4-.247.77.06 1.167l9.245 14.62c.092.123.183.277-.03.277H22.212c-.122 0-.122-.124-.122-.278 0-.152.307-1.473.06-1.719l-5.16-7.896v6.176c0 1.567.33 3.04.523 3.256.246.277.06.461-.398.461H1.05c-.46 0-.645-.184-.398-.46.192-.218.52-1.69.52-3.257V3.98C1.173 2.412.845.94.653.723.406.446.59.263 1.05.263h16.064c.459 0 .644.183.398.46-.192.217-.522 1.69-.522 3.256l-.005 5.471" mask="url(#prefix__d)"/>
        </g>
        <g transform="translate(0 -1) translate(72 .741)">
            <mask id="prefix__f" fill="#fff">
                <use xlink:href="#prefix__e"/>
            </mask>
            <path fill="#FFE700" d="M16.335 16.444c0-.102.04-.461.463-.461h6.355c.658 0 3.02-.08 3.222.122.203.204.455.076.455-.308V9.63c0-.386-.252-.513-.456-.31-.2.202-2.563.121-3.22.121h-6.358c-.42 0-.46-.358-.46-.46V7.73c0-.103.04-.462.462-.462h9.137c1.548 0 3.005.325 3.22.517.274.242.455.06.455-.396V.26H.832c-.455 0-.637.23-.394.504.19.215.516 1.67.516 3.222v18.11c0 1.55-.326 3.008-.516 3.223-.243.272-.062.454.393.454H29.61v-7.576c0-.456-.182-.639-.455-.396-.215.191-1.672.518-3.22.518h-9.138c-.42 0-.462-.359-.462-.463l.001-1.412" mask="url(#prefix__f)"/>
        </g>
        <path fill="#FFE700" d="M147.208 26.514S137.65 3.8 137.513 3.423c-.137-.378-.274-1.03-.034-1.611.24-.582.034-.72-.376-.72H114.73c-.412 0-.617.138-.376.72.24.582.101 1.233-.036 1.61-.136.378-8.598 23.092-8.598 23.092h13.756c.326 0 .394-.154.291-.377-.104-.222-.104-.735.05-1.113l.738-2.45c.24-.685.582-.788 1.164-.788h6.048c.582 0 .924.103 1.165.789l.737 2.449c.153.378.153.89.05 1.113-.102.223-.033.377.292.377h17.198zm-24.384-9.747c-.215-.018-.24-.24-.179-.394l1.488-3.53c.061-.101.095-.205.223-.205.13 0 .164.104.222.206l1.491 3.529c.061.154.035.376-.179.394h-3.066z" transform="translate(0 -1)"/>
    </g>
</svg>
