<svg xmlns="http://www.w3.org/2000/svg" width="114" height="114" viewBox="0 0 114 114">
    <g fill="none" fill-rule="evenodd" stroke="#00AE00" stroke-width="2">
        <path d="M1 57C1 26.072 26.072 1 57 1s56 25.072 56 56-25.072 56-56 56S1 87.928 1 57z"/>
        <path d="M11.4 57c0-25.184 20.416-45.6 45.6-45.6 25.185 0 45.6 20.416 45.6 45.6 0 25.185-20.415 45.6-45.6 45.6-25.184 0-45.6-20.415-45.6-45.6z"/>
        <path d="M52.717 82.353L27.4 65.952a1.587 1.587 0 0 1-.47-2.197l6.475-9.992a1.587 1.587 0 0 1 2.196-.47l13.99 9.063 20.935-32.312a1.586 1.586 0 0 1 2.195-.468l9.994 6.474c.736.477.946 1.46.47 2.196L54.913 81.882a1.587 1.587 0 0 1-2.196.47z"/>
    </g>
</svg>
