<?xml version="1.0" encoding="UTF-8"?>
<svg width="8px" height="11px" viewBox="0 0 8 11" version="1.1" xmlns="http://www.w3.org/2000/svg" xmlns:xlink="http://www.w3.org/1999/xlink">
    <!-- Generator: Sketch 49 (51002) - http://www.bohemiancoding.com/sketch -->
    <title>Shape Copy</title>
    <desc>Created with Sketch.</desc>
    <defs></defs>
    <g id="Scrapbook" stroke="none" stroke-width="1" fill="none" fill-rule="evenodd">
        <path d="M4,0 C1.790861,-8.82083985e-17 3.55271368e-16,1.77857261 0,3.9725531 C0,6.68183432 3.688,10.8252072 3.688,10.8252072 C3.76250818,10.9346824 3.88694957,11.0001986 4.02,10.9999995 C4.14878655,10.996318 4.267903,10.9312535 4.34,10.8252072 C4.34,10.8252072 8,6.68977943 8,3.98049821 C8,1.78651771 6.209139,0.00794510621 4,0.00794510621 M4,5.87540604 C2.95065898,5.87540604 2.1,5.03058405 2.1,3.98844332 C2.1,2.94630258 2.95065898,2.10148059 4,2.10148059 C5.04934102,2.10148059 5.9,2.94630258 5.9,3.98844332 C5.9,4.48889695 5.699822,4.9688533 5.34350288,5.32272746 C4.98718377,5.67660161 4.50391133,5.87540604 4,5.87540604" id="Shape-Copy" fill="#333" fill-rule="nonzero"></path>
    </g>
</svg>