<svg xmlns="http://www.w3.org/2000/svg" width="1215" height="665" viewBox="0 0 1215 665">
    <g fill="none" fill-rule="evenodd">
        <g stroke="#D8E0EE" stroke-width="30">
            <path d="M569.56 277.077C595.634 128.17 725.577 15 881.952 15c175.163 0 317.161 141.997 317.161 317.16 0 175.164-141.998 317.161-317.16 317.161-156.376 0-286.319-113.17-312.395-262.077"/>
            <path d="M1121.71 371.162c-8.032 50.048-31.494 96.182-68.034 132.722-45.869 45.868-106.855 71.13-171.724 71.13-64.868 0-125.853-25.262-171.722-71.13-45.869-45.87-71.13-106.855-71.13-171.723 0-64.87 25.261-125.854 71.13-171.723a247.98 247.98 0 0 1 10.272-9.704M785.194 109.273c30.133-13.09 62.918-19.965 96.759-19.965 64.869 0 125.854 25.26 171.723 71.13 37.103 37.103 60.722 84.097 68.394 135.036"/>
            <path d="M856.965 498.877c-35.535-5.25-68.326-21.673-94.19-47.538-31.834-31.834-49.367-74.159-49.367-119.179 0-45.02 17.533-87.345 49.366-119.179 31.834-31.833 74.16-49.365 119.178-49.365 45.021 0 87.346 17.532 119.18 49.365 31.834 31.834 49.365 74.16 49.365 119.18 0 45.02-17.53 87.344-49.366 119.178-25.123 25.124-56.78 41.34-91.142 47.06M881.953 92.84v61.204M764.866 466.197l-37.861 37.862"/>
            <path d="M913.675 243.371c12.981 4.627 24.88 12.12 34.913 22.154 17.8 17.8 27.601 41.464 27.601 66.635 0 25.171-9.802 48.836-27.6 66.635-17.8 17.8-41.465 27.601-66.637 27.601-25.17 0-48.836-9.802-66.634-27.6-17.799-17.8-27.6-41.465-27.6-66.636 0-25.17 9.801-48.836 27.6-66.636 10.73-10.728 23.591-18.552 37.63-23.075M631.149 332.16H0"/>
        </g>
        <path stroke="#FFF" stroke-dasharray="15" stroke-width="2" d="M569.56 387.244c26.075 148.906 156.018 262.077 312.393 262.077 175.163 0 317.161-141.997 317.161-317.16 0-175.164-141.998-317.16-317.16-317.16-156.376 0-286.319 113.17-312.395 262.076"/>
        <path stroke="#FFF" stroke-dasharray="15" stroke-width="2" d="M1121.71 371.162c-8.032 50.048-31.494 96.182-68.034 132.722-45.869 45.868-106.855 71.13-171.724 71.13-64.868 0-125.853-25.262-171.722-71.13-45.869-45.87-71.13-106.855-71.13-171.723 0-64.87 25.261-125.854 71.13-171.723a247.98 247.98 0 0 1 10.272-9.704M785.194 109.273c30.133-13.09 62.918-19.965 96.759-19.965 64.869 0 125.854 25.26 171.723 71.13 37.103 37.103 60.722 84.097 68.394 135.036M881.953 105.331v48.713M631.149 332.16H0"/>
        <path fill="#FFF" d="M349.013 297.626l-4.634-2.919-13.748-9.502a7.481 7.481 0 0 0-4.253-1.327h-39.956a6.41 6.41 0 0 0-6.409 6.41v16.57c0 3.044 2.482 5.35 5.526 5.35l1.302-.002v-1.689a7.013 7.013 0 0 1 14.026 0v1.69l.44.001H333.484l2.13-.002v-1.689a7.013 7.013 0 0 1 14.025 0v1.69l.44.001h1.648a.643.643 0 0 0 .19-.028 4.18 4.18 0 0 0 2.927-3.987c0-4.29-2.203-8.28-5.832-10.567"/>
        <path fill="#008DD5" d="M351.755 299.661a7.004 7.004 0 0 1 2.27 3.484h-1.356a3.62 3.62 0 0 1-2.563-1.062l-1.663-1.66a.461.461 0 0 1 .332-.788l2.98.026zM281.659 303.762h-1.756a1.598 1.598 0 0 1 0-3.195h1.756c.854 0 1.547.693 1.547 1.547v.1c0 .855-.693 1.548-1.547 1.548M313.831 298.548h-3.775a.51.51 0 1 1 0-1.019h3.775a.51.51 0 0 1 0 1.02"/>
        <path fill="#B0DEF0" d="M327.663 287.75l9.053 6.257c.957.661.489 2.162-.675 2.162h-8.933a3.96 3.96 0 0 1-3.96-3.96v-4.497c0-.577.468-1.045 1.045-1.045 1.24 0 2.45.378 3.47 1.083"/>
        <path stroke="#008DD5" stroke-linecap="round" stroke-linejoin="round" d="M327.663 287.75l9.053 6.257c.957.661.489 2.162-.675 2.162h-8.933a3.96 3.96 0 0 1-3.96-3.96v-4.497c0-.577.468-1.045 1.045-1.045 1.24 0 2.45.378 3.47 1.083z"/>
        <path stroke="#D8E1EE" d="M313.409 286.667h-25.522a2.207 2.207 0 0 0-2.207 2.207v4.81a2.485 2.485 0 0 0 2.486 2.484h23.014a4.586 4.586 0 0 0 4.586-4.585v-2.559a2.357 2.357 0 0 0-2.357-2.357z"/>
        <path stroke="#008DD5" d="M333.484 312.058l2.13-.001v-1.69a7.014 7.014 0 0 1 14.026 0v1.69h2.088a.643.643 0 0 0 .19-.027 4.18 4.18 0 0 0 2.926-3.987c0-4.29-2.202-8.28-5.83-10.567l-4.635-2.92-13.748-9.5a7.481 7.481 0 0 0-4.253-1.327h-39.956a6.41 6.41 0 0 0-6.409 6.409v16.57c0 3.045 2.482 5.35 5.526 5.35l1.302-.001v-1.69a7.014 7.014 0 0 1 14.026 0v1.69h32.618z"/>
        <path stroke="#008DD5" d="M338.22 310.223a4.412 4.412 0 0 0 4.408 4.407 4.412 4.412 0 0 0 4.406-4.407 4.412 4.412 0 0 0-4.406-4.407 4.412 4.412 0 0 0-4.407 4.407zm-2.036 0a6.45 6.45 0 0 1 6.444-6.443 6.45 6.45 0 0 1 6.443 6.443 6.45 6.45 0 0 1-6.443 6.443 6.45 6.45 0 0 1-6.444-6.443z"/>
        <path fill="#008DD5" d="M344.199 309.71a1.572 1.572 0 1 0-3.144 0 1.572 1.572 0 0 0 3.144 0"/>
        <path stroke="#008DD5" d="M289.448 310.223a4.412 4.412 0 0 0 4.407 4.407 4.412 4.412 0 0 0 4.406-4.407 4.412 4.412 0 0 0-4.406-4.407 4.412 4.412 0 0 0-4.407 4.407zm-2.037 0a6.45 6.45 0 0 1 6.444-6.443 6.45 6.45 0 0 1 6.443 6.443 6.45 6.45 0 0 1-6.443 6.443 6.45 6.45 0 0 1-6.444-6.443z"/>
        <path fill="#008DD5" d="M295.426 309.71a1.572 1.572 0 1 0-3.145 0 1.572 1.572 0 0 0 3.145 0"/>
        <path stroke="#FFF" stroke-dasharray="15" stroke-width="2" d="M856.965 498.877c-35.535-5.25-68.326-21.673-94.19-47.538-31.834-31.834-49.367-74.159-49.367-119.179 0-45.02 17.533-87.345 49.366-119.179 31.834-31.833 74.16-49.365 119.178-49.365 45.021 0 87.346 17.532 119.18 49.365 31.834 31.834 49.365 74.16 49.365 119.18 0 45.02-17.53 87.344-49.366 119.178-25.123 25.124-56.78 41.34-91.142 47.06M764.866 466.197l-37.861 37.862"/>
        <path stroke="#FFF" stroke-dasharray="15" stroke-width="2" d="M913.675 243.371c12.981 4.627 24.88 12.12 34.913 22.154 17.8 17.8 27.601 41.464 27.601 66.635 0 25.171-9.802 48.836-27.6 66.635-17.8 17.8-41.465 27.601-66.637 27.601-25.17 0-48.836-9.802-66.634-27.6-17.799-17.8-27.6-41.465-27.6-66.636 0-25.17 9.801-48.836 27.6-66.636 10.73-10.728 23.591-18.552 37.63-23.075"/>
        <path fill="#B0DEF0" d="M880.406 362.296l26.203-13.38v-32.893l-26.203-13.38-26.203 13.38v32.893z"/>
        <path stroke="#008DD5" stroke-linecap="round" stroke-linejoin="round" d="M880.406 362.296l26.203-13.38v-32.893l-26.203-13.38-26.203 13.38v32.893z"/>
        <path fill="#B0DEF0" d="M906.609 316.023l-26.203 13.38"/>
        <path stroke="#008DD5" stroke-linecap="round" stroke-linejoin="round" d="M906.609 316.023l-26.203 13.38"/>
        <path fill="#B0DEF0" d="M854.203 316.023l26.203 13.38"/>
        <path stroke="#008DD5" stroke-linecap="round" stroke-linejoin="round" d="M854.203 316.023l26.203 13.38"/>
        <g>
            <path fill="#B0DEF0" d="M880.406 329.403v32.893"/>
            <path stroke="#008DD5" stroke-linecap="round" stroke-linejoin="round" d="M880.406 329.403v32.893"/>
        </g>
    </g>
</svg>
