<svg xmlns="http://www.w3.org/2000/svg" width="28" height="28" viewBox="0 0 28 28">
    <g fill="none" fill-rule="evenodd" stroke="currentColor" stroke-linecap="round" stroke-linejoin="round" stroke-width="1.5">
        <path d="M17.09 7.21h3.36a.7.7 0 0 1 .55.25l4.6 6.3a.75.75 0 0 1 .18.48v5.28a.73.73 0 0 1-.73.72h-1.37a2.54 2.54 0 0 0-5.06 0h-8a2.53 2.53 0 0 0-5.05 0h-1a.72.72 0 0 1-.72-.72V7.93a2.17 2.17 0 0 1 2.08-2.18h8.88A2.18 2.18 0 0 1 17 7.93v3.95h7"/>
        <path d="M10.58 20.41a2.54 2.54 0 1 1-5.07 0 1 1 0 0 1 0-.17 2.53 2.53 0 0 1 5.05 0 1 1 0 0 1 .02.17zM23.69 20.41a2.54 2.54 0 1 1-5.08 0 1 1 0 0 1 0-.17 2.54 2.54 0 0 1 5.06 0 1 1 0 0 1 .02.17z"/>
    </g>
</svg>
